<svg version="1.2" xmlns="http://www.w3.org/2000/svg" viewBox="0 0 1000 1000" width="510" height="510"><style>.a{fill:#f0f0f0}.b{fill:#e0e0e0}.c{fill:#27debf}.d{opacity:.1}.e{fill:#fff}.f{fill:#455a64}.g{fill:#263238}.h{fill:#37474f}.i{fill:#fafafa}.j{fill:#ffa8a7}.k{opacity:.6;fill:#fff}.l{fill:#b16668}.m{fill:#f28f8f}</style><path class="a" d="m833.2 491.5c184 106.2 184 278.4 0 384.7-184 106.2-482.4 106.2-666.4 0-184-106.3-184-278.5 0-384.7 184-106.3 482.4-106.3 666.4 0z"/><path class="b" d="m517.4 729.8c63.4 36.7 63.4 96.1 0 132.7-63.5 36.6-166.3 36.6-229.8 0-63.5-36.6-63.5-96 0-132.7 63.5-36.6 166.3-36.6 229.8 0z"/><path class="c" d="m864.6 678.8l-19.1-11c0 0-4.7-40.8-1.6-72.4 4.4-44.4 33.1-97.8 67.3-85.3 34.2 12.6-15.7 57.8-26.8 95.4-11.1 37.7-19.8 73.3-19.8 73.3z"/><path class="d" d="m864.6 678.8l-19.1-11c0 0-4.7-40.8-1.6-72.4 4.4-44.4 33.1-97.8 67.3-85.3 34.2 12.6-15.7 57.8-26.8 95.4-11.1 37.7-19.8 73.3-19.8 73.3z"/><path class="e" d="m853.4 673.1c-3.4-99.7 46.4-150.1 46.9-150.5 0.5-0.5 1.2-0.5 1.7 0 0.4 0.4 0.4 1.1-0.1 1.6-0.4 0.5-49.6 50.1-46.2 148.8 0 0.6-0.5 1.2-1.1 1.2q-0.1 0-0.1 0c-0.6 0-1.1-0.5-1.1-1.1z"/><path class="c" d="m876.5 685.7l-13.5-7.9c0 0-2.3-28 11.4-62 11.9-29.6 41.6-54.2 56.5-49 14.9 5.2 14.6 15.7 7.3 26.8-7.3 11.1-51.5 37.6-61.7 92.1z"/><path class="e" d="m868.2 681.5c-0.2-63.5 59.3-106.4 59.9-106.8 0.5-0.4 1.2-0.3 1.6 0.3 0.4 0.5 0.3 1.2-0.3 1.6-0.6 0.4-59.1 42.5-58.9 104.9 0 0.7-0.5 1.2-1.1 1.2-0.7 0-1.2-0.5-1.2-1.2z"/><path class="c" d="m123.2 541.3c-26.1-32.4-23.1-49.4-9.1-55.4 14-5.9 53.2 13 63.4 69.9 7.2 40.5-0.6 86.6-0.6 86.6l-17.6 11.9c-0.5-53-20.7-93.8-36.1-113z"/><g style="opacity:.1"><path  d="m123.2 541.3c-26.1-32.4-23.1-49.4-9.1-55.4 14-5.9 53.2 13 63.4 69.9 7.2 40.5-0.6 86.6-0.6 86.6l-17.6 11.9c-0.5-53-20.7-93.8-36.1-113z"/></g><path class="e" d="m165.4 631.5q-0.1 0-0.2 0c-0.7-0.1-1.2-0.7-1.1-1.4 6.3-53.6-16.3-111.8-40.9-134.9-0.5-0.5-0.5-1.3-0.1-1.8 0.5-0.5 1.3-0.6 1.8-0.1 25.1 23.6 48.1 82.7 41.7 137.1-0.1 0.6-0.6 1.1-1.2 1.1z"/><path class="c" d="m113.2 685.4c-2.8 1.7-10.9-4.4-13.2-5.9-3.8-2.4-7-6-9.1-10.1-2.5-4.7-3.2-9.8-2.6-15.1 0.4-2.7 1.1-5.4 1.8-8.1q1-3.9 2.1-7.9c0.7-2.6 1.4-5.2 1-7.9-0.8-5.3-5.6-9-10-12.1-4.9-3.5-9.9-8.2-10-14.6-0.1-5 2.4-9.6 5.4-13.6 3-4 6.6-7.5 9.3-11.7 1.9-3 3.4-6.5 3-10.1-0.2-2.2-1.2-4.2-2.3-6.2-2.3-4.1-5.4-7.9-7-12.4-1.7-4.5-1.6-10.1 1.9-13.4 2.8-2.7 7.1-3.1 11-2.9 3.6 0.1 7.2 1.7 10.4 3.4 10.3 5.5 16.4 17.5 27.4 21.7 4.2 1.6 8.8 1.8 13.2 2.9 4.4 1.1 8.9 3.2 11 7.2 4.1 7.9-3.1 17.9-0.2 26.3 2.7 7.4 10 10.1 14.2 16.8 1.9 2.9 2.3 6.3 2.1 9.7-0.4 5.9-1.1 10.1-3.8 16.7-2.2 5.4-8.7 15.7-8.7 15.7 0 0-46.4 31.3-46.9 31.6z"/><path class="e" d="m140.3 668.8q-0.1 0-0.1 0c-0.7 0-1.2-0.6-1.2-1.3 1.1-50.6-23.8-106-41.5-121.9-0.5-0.5-0.5-1.3-0.1-1.8 0.5-0.6 1.3-0.6 1.8-0.1 18 16.2 43.5 72.5 42.3 123.8 0 0.7-0.5 1.3-1.2 1.3z"/><path class="e" d="m130.9 607.1q-0.1 0-0.3 0c-16.4-4.8-36.7-5.2-36.9-5.3-0.7 0-1.2-0.6-1.2-1.3 0-0.7 0.5-1.2 1.3-1.2 0.2 0 20.8 0.5 37.5 5.3 0.7 0.2 1 0.9 0.8 1.6-0.1 0.5-0.6 0.9-1.2 0.9z"/><path class="f" d="m602.3 619.5l-7.6-4.4c-2.4-1.4-4.3-4.7-4.3-7.5v-315c0-2.8 1.9-6.2 4.3-7.5l210.7-121.7c2.4-1.4 6.3-1.4 8.7 0l7.6 4.4c2.4 1.4 4.3 4.7 4.3 7.5v315c0 2.8-1.9 6.2-4.3 7.5l-210.7 121.7c-2.4 1.4-6.3 1.4-8.7 0z"/><path class="f" d="m826 174.6c-0.3-2.2-2.2-3.1-4.3-1.8l-210.7 121.7c-1.2 0.7-2.3 1.8-3.1 3.2l-16.2-9.4c0.7-1.4 1.8-2.5 3-3.2l210.7-121.7c2.4-1.4 6.3-1.4 8.7 0l7.6 4.4c2.2 1.3 4 4.2 4.3 6.8z"/><path class="g" d="m610.2 619.8c-2.4 1.1-5.7 0.9-7.9-0.3l-7.6-4.4c-2.4-1.4-4.3-4.7-4.3-7.5v-315c0-1.4 0.5-2.9 1.3-4.3l16.2 9.4c-0.8 1.3-1.3 2.9-1.3 4.3v315c0 2.5 1.6 3.6 3.6 2.8z"/><path class="h" d="m611 294.5l210.7-121.7c2.4-1.4 4.3-0.3 4.3 2.5v315c0 2.8-1.9 6.2-4.3 7.5l-210.7 121.7c-2.4 1.4-4.4 0.3-4.4-2.5v-315c0-2.8 2-6.2 4.4-7.5z"/><path class="f" d="m557.4 422c-2.7-1.6-15.3-8.8-16-9.1-2-1.3-2.7-4.2-0.8-6.2l49.8-53.5 16.2 9.4-49.8 53.4c-1.8 1.9-1.2 4.7 0.6 6z"/><path class="h" d="m606.6 418.9l-46.5 3.8c-3.7 0.3-5.8-4-3.3-6.7l49.8-53.4z"/><path class="c" d="m716.3 266.4c24.6-14.2 44.5-2.7 44.5 25.7 0 28.3-19.9 62.8-44.5 77-24.5 14.2-44.4 2.7-44.4-25.7 0-28.3 19.9-62.8 44.4-77z"/><path class="e" d="m716 288.7c8-4.6 14.4-0.9 14.4 8.3 0 9.2-6.4 20.4-14.4 25-8 4.6-14.4 0.9-14.4-8.3 0-9.2 6.4-20.4 14.4-25z"/><path class="e" d="m744.4 341.3c-7.6 11.6-17.4 21.6-28.1 27.8-7.1 4.1-13.8 6.1-19.8 6.1q-4.1 0-7.6-1.2v-4.1c0-15.2 10.6-33.5 23.7-41.1l8.1-4.7c13.1-7.6 23.7-1.4 23.7 13.7z"/><path class="c" d="m688.2 509.5l56.3-32.6c2.4-1.3 4.3-0.2 4.3 2.5v18.2c0 2.7-1.9 6.1-4.3 7.5l-56.3 32.5c-2.4 1.4-4.4 0.3-4.4-2.5v-18.1c0-2.8 2-6.2 4.4-7.5z"/><path class="i" d="m660.6 468.9l111.5-64.3c2.8-1.7 5.2-0.3 5.2 3v6.7c0 3.3-2.4 7.4-5.2 9l-111.5 64.4c-2.9 1.6-5.2 0.3-5.2-3v-6.8c0-3.3 2.3-7.3 5.2-9z"/><path fill-rule="evenodd" class="i" d="m673.6 422.4q2.3-1.4 3.6-0.4 1.2 0.9 1.2 4.1 0 3.2-1.2 5.6-1.3 2.4-3.6 3.7l-3 1.7v6.5q0 0.3-0.1 0.6-0.2 0.3-0.4 0.5l-1.5 0.8q-0.2 0.2-0.4 0-0.1-0.1-0.1-0.5v-18.7q0-0.3 0.1-0.6 0.2-0.3 0.4-0.4zm-3 11.1l2.9-1.7q1.1-0.6 1.7-1.6 0.6-1 0.6-2.7 0-1.6-0.6-1.8-0.6-0.3-1.7 0.3l-2.9 1.7z"/><path fill-rule="evenodd" class="i" d="m686.8 414.7q0.3-0.1 0.5 0 0.1 0.2 0.2 0.6l4.6 15.7q0.1 0 0.1 0.1-0.1 0.4-0.2 0.7-0.1 0.3-0.4 0.4l-1.3 0.8q-0.4 0.2-0.5 0.1-0.2-0.2-0.2-0.4l-0.9-2.7-5.9 3.4-0.8 3.7q-0.1 0.2-0.2 0.6-0.2 0.3-0.5 0.5l-1.4 0.8q-0.2 0.1-0.4 0-0.1-0.2-0.1-0.5 0-0.1 0-0.2l4.6-21q0.1-0.5 0.3-0.9 0.1-0.3 0.4-0.5zm1.1 12.2l-2.1-7.1-2.1 9.4z"/><path class="i" d="m699.1 407.3q1.3-0.7 2.3-0.7 0.9-0.1 1.6 0.3 0.6 0.5 0.9 1.2 0.4 0.8 0.4 1.6 0 0.3-0.1 0.6-0.2 0.3-0.4 0.5l-1.3 0.7q-0.3 0.2-0.5 0.1-0.2-0.1-0.3-0.3-0.3-0.6-0.8-0.8-0.6-0.2-1.8 0.4-0.4 0.3-0.9 0.7-0.4 0.5-0.8 1-0.3 0.4-0.5 1-0.2 0.5-0.2 1.1 0 0.7 0.2 1 0.2 0.3 0.6 0.3 0.4 0.1 1.1 0 0.7-0.2 1.8-0.4 1.1-0.3 1.9-0.3 0.8 0.1 1.4 0.5 0.5 0.4 0.7 1.2 0.3 0.7 0.3 1.9 0 1.3-0.4 2.7-0.4 1.3-1.1 2.5-0.7 1.2-1.7 2.2-1 1.1-2.3 1.8-1 0.6-2 0.8-0.9 0.2-1.7-0.1-0.7-0.4-1.2-1.1-0.4-0.8-0.5-2.1 0-0.3 0.2-0.6 0.1-0.3 0.3-0.4l1.4-0.8q0.3-0.2 0.4-0.1 0.2 0.1 0.3 0.3 0.2 0.4 0.3 0.6 0.2 0.3 0.5 0.4 0.4 0.1 0.8 0 0.5-0.1 1.2-0.5 0.6-0.3 1.1-0.8 0.6-0.4 1-0.9 0.3-0.6 0.6-1.1 0.2-0.6 0.2-1.3 0-0.6-0.2-0.9-0.3-0.2-0.8-0.2-0.6 0-1.4 0.2-0.7 0.2-1.8 0.4-0.9 0.2-1.6 0.1-0.7-0.1-1.2-0.5-0.4-0.4-0.7-1.2-0.2-0.8-0.2-2.2 0-1.3 0.4-2.6 0.4-1.3 1-2.4 0.7-1.2 1.6-2.2 0.9-1 1.9-1.6z"/><path class="i" d="m712.3 399.8q1.2-0.8 2.2-0.8 1 0 1.6 0.4 0.6 0.4 1 1.1 0.3 0.8 0.3 1.6 0 0.3-0.1 0.6-0.2 0.4-0.4 0.5l-1.3 0.7q-0.3 0.2-0.5 0.1-0.1-0.1-0.3-0.3-0.2-0.6-0.8-0.8-0.6-0.2-1.7 0.5-0.5 0.3-1 0.7-0.4 0.4-0.7 0.9-0.4 0.5-0.5 1-0.2 0.6-0.2 1.1 0 0.7 0.1 1 0.2 0.3 0.6 0.4 0.5 0 1.2-0.1 0.7-0.2 1.7-0.4 1.1-0.3 1.9-0.2 0.9 0 1.4 0.4 0.5 0.4 0.8 1.2 0.2 0.8 0.2 2 0 1.3-0.4 2.6-0.3 1.3-1 2.5-0.7 1.2-1.8 2.3-1 1-2.2 1.7-1.1 0.7-2 0.8-1 0.2-1.7-0.1-0.8-0.3-1.2-1.1-0.5-0.8-0.5-2-0.1-0.4 0.1-0.7 0.2-0.3 0.4-0.4l1.3-0.8q0.3-0.2 0.5-0.1 0.1 0.1 0.2 0.4 0.2 0.3 0.4 0.5 0.2 0.3 0.5 0.4 0.3 0.1 0.8 0 0.5-0.1 1.2-0.5 0.5-0.3 1.1-0.7 0.5-0.5 0.9-1 0.4-0.5 0.6-1.1 0.3-0.6 0.3-1.3 0-0.6-0.3-0.9-0.3-0.2-0.8-0.2-0.5 0-1.3 0.2-0.8 0.2-1.8 0.4-1 0.2-1.7 0.1-0.7 0-1.2-0.5-0.4-0.4-0.6-1.2-0.3-0.8-0.3-2.1 0-1.3 0.4-2.6 0.4-1.4 1-2.5 0.7-1.2 1.6-2.2 0.9-0.9 2-1.5z"/><path class="i" d="m726.9 402.3l-1.7 9.5q-0.1 0.5-0.2 0.9-0.1 0.3-0.4 0.5l-1.5 0.9q-0.3 0.2-0.5 0-0.1-0.2-0.2-0.6l-2.4-16.9q0-0.1 0-0.2 0-0.3 0.1-0.7 0.2-0.3 0.4-0.4l1.4-0.8q0.2-0.1 0.3 0 0.2 0 0.3 0.4l1.5 11.4 1.4-8.5q0.1-0.2 0.2-0.6 0.1-0.4 0.5-0.6l1.5-0.9q0.4-0.2 0.5 0 0.1 0.2 0.2 0.4l1.4 7 1.6-13.2q0-0.5 0.2-0.8 0.1-0.2 0.3-0.4l1.4-0.8q0.2-0.1 0.4 0.1 0.1 0.1 0.1 0.4 0 0.1 0 0.3l-2.4 19.6q0 0.5-0.2 0.9-0.2 0.3-0.4 0.5l-1.6 0.9q-0.3 0.1-0.4 0-0.1-0.2-0.2-0.6z"/><path fill-rule="evenodd" class="i" d="m736.2 393.8q0.1-1.7 0.4-3.3 0.4-1.6 1.1-3.1 0.6-1.4 1.6-2.7 1.1-1.2 2.5-2 1.3-0.8 2.3-0.7 1.1 0 1.7 0.7 0.7 0.6 1.1 1.9 0.3 1.2 0.4 2.8 0 0.5 0 1.2 0 0.6 0 1.4 0 0.7 0 1.3 0 0.7 0 1.3-0.1 1.6-0.4 3.3-0.4 1.6-1 3-0.7 1.5-1.7 2.7-1.1 1.2-2.4 2-1.4 0.8-2.5 0.8-1-0.1-1.6-0.7-0.7-0.7-1.1-1.9-0.3-1.3-0.4-2.8 0-0.6 0-1.2 0-0.7 0-1.4 0-0.7 0-1.4 0-0.7 0-1.2zm8.5-4.8q0-2-0.8-2.7-0.8-0.7-2.1 0.1-1.4 0.7-2.2 2.3-0.8 1.6-0.8 3.8-0.1 1.1-0.1 2.4 0 1.4 0.1 2.4 0 2.1 0.8 2.8 0.8 0.6 2.2-0.1 1.3-0.8 2.1-2.4 0.8-1.6 0.8-3.7 0.1-1.1 0.1-2.5 0-1.3-0.1-2.4z"/><path fill-rule="evenodd" class="i" d="m756.1 374.8q2.3-1.4 3.5-0.4 1.3 1 1.3 3.9 0 2.1-0.7 4-0.6 1.9-1.8 3.3l2.6 5.6q0 0.2 0 0.3 0 0.3-0.1 0.5-0.1 0.3-0.3 0.4l-1.6 0.9q-0.4 0.2-0.5 0.1-0.2-0.2-0.3-0.4l-2.5-5.3-2.5 1.4v6.8q0 0.3-0.1 0.6-0.2 0.3-0.4 0.5l-1.5 0.8q-0.2 0.2-0.3 0-0.2-0.1-0.2-0.5v-18.7q0-0.3 0.2-0.6 0.1-0.3 0.3-0.4zm-2.8 10.7l2.7-1.6q1.1-0.6 1.7-1.5 0.7-1 0.7-2.6 0-1.6-0.7-1.8-0.6-0.2-1.7 0.4l-2.7 1.6z"/><path fill-rule="evenodd" class="i" d="m769.4 367.1q1.4-0.8 2.4-0.9 1 0 1.7 0.6 0.7 0.7 1.1 2 0.3 1.2 0.4 3 0.1 2.1 0 4.3-0.1 1.9-0.4 3.5-0.4 1.7-1.1 3.2-0.6 1.4-1.6 2.5-1.1 1.2-2.4 2l-4.7 2.7q-0.3 0.1-0.4 0-0.2-0.2-0.2-0.5v-18.7q0-0.3 0.2-0.6 0.1-0.3 0.4-0.5zm3 6.3q0-1-0.2-1.6-0.2-0.7-0.6-1.1-0.4-0.4-0.9-0.4-0.6 0-1.4 0.5l-2.6 1.5v13l2.7-1.5q0.7-0.5 1.3-1.1 0.6-0.7 0.9-1.5 0.4-0.8 0.6-1.7 0.2-0.9 0.2-1.9 0.1-2.1 0-4.2z"/><path class="c" d="m494.8 76.8q5.2 1.2 9.8 3.7 4.7 2.5 7.9 6.2 3.2 3.7 4.6 8.4 1.4 4.7 0.2 10.2-0.9 4.5-3.1 7.5-2.1 2.9-4.8 5.1-2.8 2.1-5.9 3.7-3 1.6-5.7 3.1-2.7 1.4-4.9 3.2-2.2 1.7-3.1 4.1-0.5 1.2-1.5 1.9-1 0.7-2.2 0.4l-8.5-1.9q-1.2-0.2-1.9-1.3-0.8-1.1-0.4-2.3 1.2-4.3 3.5-7.3 2.4-2.9 5.2-5 2.9-2.1 6-3.7 3.1-1.5 5.7-3 2.7-1.4 4.6-3.1 1.9-1.6 2.4-3.9 0.9-4.3-2-7.8-3-3.5-8.9-4.8-9.5-2.1-16.1 6.4-0.8 1.1-1.5 1.5-0.8 0.5-2.2 0.2l-9.1-2q-1-0.2-1.5-1-0.6-0.9-0.4-2 1-3.9 4.2-7.4 3.2-3.6 7.8-6 4.5-2.5 10.2-3.4 5.6-1 11.6 0.3zm-9.6 64.3q1.2 0.3 1.9 1.4 0.7 1.1 0.4 2.3l-2.1 9.8q-0.3 1.3-1.4 1.9-1.1 0.7-2.3 0.5l-9.6-2.2q-1.2-0.2-1.9-1.3-0.7-1.1-0.5-2.3l2.2-9.8q0.3-1.3 1.4-2 1.1-0.7 2.3-0.4z"/><path class="c" d="m505.4 170.6q3.7-0.6 7.3-0.1 3.6 0.4 6.7 1.9 3 1.6 5.1 4.2 2.1 2.7 2.7 6.5 0.5 3.1-0.1 5.6-0.6 2.4-1.8 4.5-1.2 2.1-2.8 3.9-1.5 1.8-2.9 3.4-1.3 1.7-2.3 3.3-1 1.7-0.9 3.5 0 0.8-0.5 1.5-0.4 0.8-1.3 0.9l-5.9 1q-0.9 0.1-1.6-0.4-0.8-0.5-0.8-1.4-0.4-3.1 0.4-5.5 0.7-2.5 2-4.6 1.3-2.1 2.9-3.9 1.6-1.7 2.9-3.4 1.4-1.6 2.1-3.1 0.8-1.5 0.6-3.2-0.5-2.9-3.3-4.4-2.8-1.5-6.9-0.9-6.7 1.1-8.7 8.3-0.2 0.9-0.6 1.4-0.4 0.5-1.4 0.6l-6.3 1.1q-0.7 0.1-1.3-0.3-0.5-0.4-0.7-1.2-0.3-2.7 0.8-5.8 1.1-3.1 3.4-5.8 2.4-2.8 5.7-4.8 3.4-2.1 7.5-2.8zm10.4 43.7q0.8-0.1 1.5 0.4 0.8 0.5 0.9 1.4l1.1 6.8q0.2 0.9-0.3 1.6-0.6 0.7-1.4 0.9l-6.7 1.1q-0.9 0.1-1.6-0.4-0.7-0.5-0.9-1.4l-1.1-6.9q-0.1-0.8 0.4-1.5 0.5-0.8 1.4-0.9z"/><g style="opacity:.2"><path  d="m505.4 170.6q3.7-0.6 7.3-0.1 3.6 0.4 6.7 1.9 3 1.6 5.1 4.2 2.1 2.7 2.7 6.5 0.5 3.1-0.1 5.6-0.6 2.4-1.8 4.5-1.2 2.1-2.8 3.9-1.5 1.8-2.9 3.4-1.3 1.7-2.3 3.3-1 1.7-0.9 3.5 0 0.8-0.5 1.5-0.4 0.8-1.3 0.9l-5.9 1q-0.9 0.1-1.6-0.4-0.8-0.5-0.8-1.4-0.4-3.1 0.4-5.5 0.7-2.5 2-4.6 1.3-2.1 2.9-3.9 1.6-1.7 2.9-3.4 1.4-1.6 2.1-3.1 0.8-1.5 0.6-3.2-0.5-2.9-3.3-4.4-2.8-1.5-6.9-0.9-6.7 1.1-8.7 8.3-0.2 0.9-0.6 1.4-0.4 0.5-1.4 0.6l-6.3 1.1q-0.7 0.1-1.3-0.3-0.5-0.4-0.7-1.2-0.3-2.7 0.8-5.8 1.1-3.1 3.4-5.8 2.4-2.8 5.7-4.8 3.4-2.1 7.5-2.8zm10.4 43.7q0.8-0.1 1.5 0.4 0.8 0.5 0.9 1.4l1.1 6.8q0.2 0.9-0.3 1.6-0.6 0.7-1.4 0.9l-6.7 1.1q-0.9 0.1-1.6-0.4-0.7-0.5-0.9-1.4l-1.1-6.9q-0.1-0.8 0.4-1.5 0.5-0.8 1.4-0.9z"/></g><path class="c" d="m562 181.4q0.8 0.6 1 1.6 0.2 1.1-0.4 1.9l-4.8 6.7q-0.6 0.8-1.6 1-1.1 0.2-1.9-0.4l-6.6-4.7q-0.8-0.6-1-1.6-0.1-1 0.5-1.9l4.7-6.7q0.6-0.8 1.7-1 1-0.2 1.8 0.4zm27.7-45.4q3.6 2.5 6.3 5.9 2.7 3.4 3.9 7.2 1.3 3.9 0.9 7.9-0.5 3.9-3.1 7.7-2.2 3-4.7 4.6-2.6 1.6-5.4 2.3-2.7 0.7-5.5 1-2.8 0.2-5.3 0.4-2.5 0.3-4.8 0.9-2.2 0.6-3.6 2.1-0.7 0.7-1.7 0.9-1 0.3-1.8-0.3l-5.8-4.1q-0.8-0.6-1-1.7-0.3-1.1 0.4-1.8 2.3-2.9 5-4.4 2.7-1.4 5.5-2.1 2.9-0.7 5.7-0.9 2.8-0.1 5.3-0.4 2.4-0.2 4.4-0.9 1.9-0.6 3-2.2 2.1-2.9 1-6.5-1.1-3.6-5.2-6.5-6.4-4.6-14.1-0.3-1 0.6-1.7 0.7-0.7 0.2-1.7-0.5l-6.1-4.4q-0.7-0.5-0.9-1.3-0.2-0.8 0.4-1.6 1.9-2.6 5.5-4.3 3.5-1.7 7.7-2 4.3-0.4 8.8 0.7 4.6 1 8.6 3.9z"/><g style="opacity:.6"><path class="e" d="m562 181.4q0.8 0.6 1 1.6 0.2 1.1-0.4 1.9l-4.8 6.7q-0.6 0.8-1.6 1-1.1 0.2-1.9-0.4l-6.6-4.7q-0.8-0.6-1-1.6-0.1-1 0.5-1.9l4.7-6.7q0.6-0.8 1.7-1 1-0.2 1.8 0.4zm27.7-45.4q3.6 2.5 6.3 5.9 2.7 3.4 3.9 7.2 1.3 3.9 0.9 7.9-0.5 3.9-3.1 7.7-2.2 3-4.7 4.6-2.6 1.6-5.4 2.3-2.7 0.7-5.5 1-2.8 0.2-5.3 0.4-2.5 0.3-4.8 0.9-2.2 0.6-3.6 2.1-0.7 0.7-1.7 0.9-1 0.3-1.8-0.3l-5.8-4.1q-0.8-0.6-1-1.7-0.3-1.1 0.4-1.8 2.3-2.9 5-4.4 2.7-1.4 5.5-2.1 2.9-0.7 5.7-0.9 2.8-0.1 5.3-0.4 2.4-0.2 4.4-0.9 1.9-0.6 3-2.2 2.1-2.9 1-6.5-1.1-3.6-5.2-6.5-6.4-4.6-14.1-0.3-1 0.6-1.7 0.7-0.7 0.2-1.7-0.5l-6.1-4.4q-0.7-0.5-0.9-1.3-0.2-0.8 0.4-1.6 1.9-2.6 5.5-4.3 3.5-1.7 7.7-2 4.3-0.4 8.8 0.7 4.6 1 8.6 3.9z"/></g><path class="g" d="m413.1 358.4h-71.1v-172.1c0-31.2 25.2-56.4 56.4-56.4h6.5c31.2 0 56.4 25.2 56.4 56.4v123.9c0 26.6-21.6 48.2-48.2 48.2z"/><path class="g" d="m358.3 773.3c0 0 1.1 6.4 2.1 14.8 1 9.5 1.3 16.4 3.1 28.8 1.8 12.1 2.5 19.6-3.1 31.4-5.5 11.7-18.6 5.5-23.6-1.5-5-6.9-7.1-11.5-6.7-23.8 0.3-10.7 2.7-15.4 2.9-28.5 0.3-12.2 1.5-17.3 2.1-21.6z"/><path class="j" d="m370.5 695.5c-4.2 31.1-12.4 60.4-12.2 77.8 0 4.2 2.1 44.4 1.2 53.8-1 9.5-19.7 11.6-22.6-4.2-1.9-10.4-1.7-44.9-1.8-50-0.8-27.1-5.3-59.1-6-87.9l43.2 0.7c-0.2 1.5-1.5 8.3-1.8 9.8z"/><path class="g" d="m452 751.9c5.4 12.4 12.3 19 31.4 31.5q5.2 3.4 9.3 6c12 7.8 18.7 8.2 15.1 14.1-3.4 5.6-10.8 9-21.3 9.1-8.8 0.1-21.9-5.3-27.9-11-4.9-4.6-11.1-9.1-20.1-11.9-6.1-1.9-15.5-7-16.2-11.1-0.8-4 0.3-12.1 1.5-17.1 0.9-3.5 1.6-8 2-10.2 0.3-1.8 2-0.9 2-0.9z"/><path class="j" d="m458.2 759.7c8.7 9.5 24.6 22 35.5 30.4-1.7 4.1-14.9 3.8-21.4 0.6-10.4-5.3-20.7-13.2-24.3-15.9-8.9-6.8-20.4-12.3-20.5-22.4 0-1.3 0.2-2 0.2-2.2-0.1-8.6-2-21-10.8-73.4l41.1-18.7c0 0-6.2 75.7-5.8 84.6 0.3 9 1.9 12.5 6 17z"/><path class="f" d="m456.3 406.3c4.3 50.5 9.9 146 7.3 181.2-2 26.4-7.3 96.1-7.3 96.1-14.1 12.6-37.3 5.7-37.3 5.7 0 0-12.2-42.9-10.1-64.8 1.3-13.8 7.1-32 7.1-32l-15.1-73.7c0 0-7.1 41.4-11.2 73.9-4.7 37.1-20.7 113.5-20.7 113.5-16.6 12.5-39 0.1-39 0.1 0 0-3.2-37.7-2-67.4 1.3-31.8 11.3-45.8 11.9-53 0 0-3.8-35.6-6.2-76.1-2.6-44.1-2.6-70.9 13.1-105.5z"/><path class="g" d="m400.9 518.8l6.2-55.5c0 0 27.9-3.7 40.5-15.6 0 0-9.5 17.4-32.8 20.8l-9 51.6 10.2 72.4z"/><path class="j" d="m492 429.3l-12.9-17.3 2.7-39.4c0.2-2.3-0.4-4.5-1.8-6.4l-43.1-46.3c-7.5-21.9-22.5-58.8-14.8-59.3 11-0.6 22.2 1.5 32.9 14.9 15 18.9 29.2 37.8 45.8 58.9 12.3 15.5 13.9 17 14.5 25.8 0.2 2.2 0.2 13.5-1.5 30.5-2.2 21.7-21.8 38.6-21.8 38.6z"/><path class="c" d="m420.3 260.7c10.6-0.9 26.6 15.9 43.1 42.6 7.1 11.4 6.9 29.2-6.1 39.9-0.3 9.6-0.8 18-0.6 26.3 0.3 19.9 1.6 31.7 2.4 50.7-3.5 4.6-13.7 9.3-33.1 11.8-25.4 3.3-53.4 2.6-86.8-16.1 6.8-19.2 14.5-32.3 17.9-42.8l0.7-17.2-6.5-34.8c-3.5-18.7-7.5-31.9-6.8-36.9 1.6-11.6 3.8-15.6 12.6-20.5 0 0 15.1-1.3 23.5-1.9z"/><path class="k" d="m420.3 260.7c10.6-0.9 26.6 15.9 43.1 42.6 7.1 11.4 6.9 29.2-6.1 39.9-0.3 9.6-0.8 18-0.6 26.3 0.3 19.9 1.6 31.7 2.4 50.7-3.5 4.6-13.7 9.3-33.1 11.8-25.4 3.3-53.4 2.6-86.8-16.1 6.8-19.2 14.5-32.3 17.9-42.8l0.7-17.2-6.5-34.8c-3.5-18.7-7.5-31.9-6.8-36.9 1.6-11.6 3.8-15.6 12.6-20.5 0 0 15.1-1.3 23.5-1.9z"/><path class="d" d="m399 354.4c-21.9-6.8-20.1-26.7-20.1-26.7 0 0 2.5 15.2 19.9 21.4 17.5 6.2 32.7-5.7 32.7-5.7 0 0-11.3 17.5-32.5 11z"/><path class="j" d="m452.2 207.2c-0.7 28.9-10 36-14.7 38.1-4.7 2-13.8 0.8-22.6-0.7v17.4c0 0 10.2 10.6 9.4 18.5-0.8 8-16 8.9-27.4 1.1-8.3-5.7-14.2-12.1-16.8-15.2-1-1.1-1.5-2.5-1.5-4v-40.8c0 0-4.8 5.1-13.3-0.7-8.5-5.8-9.3-16.7-4.1-22.9 3.7-4.3 13.2-4.6 17.7 2.1 2.6 5 2.9 10 5.8 8 7.6-5.5 3.5-18 12.7-24.1q0 0 0 0c2.8-1.5 5.9-2.9 9.4-4.1 16.3-5.7 30.5-10.4 34-21.6 6.4 3.8 12.2 14.9 11.4 48.9z"/><path class="l" d="m423.7 229.2c0 2.1-1.7 3.8-3.8 3.8-2.1 0-3.8-1.7-3.8-3.8 0-2.1 1.7-3.8 3.8-3.8 2.1 0 3.8 1.7 3.8 3.8z"/><path class="g" d="m417.4 202.8c0.1 2.3-1.6 4.3-3.8 4.4-2.2 0.1-4.1-1.7-4.2-4-0.1-2.3 1.6-4.2 3.8-4.3 2.2-0.1 4 1.7 4.2 3.9z"/><path class="g" d="m447.7 203.2c0.1 2.1-1.5 3.9-3.5 4-2.2 0.1-3.7-1.3-3.8-3.6-0.1-2.1 1.4-3.9 3.4-4 2-0.1 3.8 1.6 3.9 3.6z"/><path fill-rule="evenodd" class="f" d="m412.2 213.1c-7.2 0-13-5.8-13-13 0-8.8 9.1-8.8 13-8.8 3.9 0 13 0 13 8.8 0 7.2-5.8 13-13 13zm0-19.8c-7.9 0-10.9 1.9-10.9 6.8 0 6.1 4.9 11 10.9 11 6.1 0 11-4.9 11-11 0-4.9-3.1-6.8-11-6.8z"/><path fill-rule="evenodd" class="f" d="m445.2 213.1c-7.1 0-13-5.8-13-13 0-8.8 9.1-8.8 13-8.8 3.9 0 13 0 13 8.8 0 7.2-5.8 13-13 13zm0-19.8c-7.8 0-10.9 1.9-10.9 6.8 0 6.1 4.9 11 10.9 11 6.1 0 11-4.9 11-11 0-4.9-3.1-6.8-11-6.8z"/><path class="m" d="m440.7 216.3l-12.8 3.9-0.7-24.3z"/><path class="m" d="m414.9 250.4c0 0-19-5.5-24.7-10.4-5.7-4.9-6.7-9.6-6.7-9.6 3 7.5 22.1 13 31.4 14.2z"/><path class="g" d="m415.3 184.1l-8.4 5.2c-1.4-2.4-0.7-5.6 1.7-7 2.3-1.4 5.3-0.6 6.7 1.8z"/><path class="g" d="m449.8 189.9l-9.4-3.3c0.8-2.7 3.6-4.1 6.2-3.2 2.6 0.9 4.1 3.8 3.2 6.5z"/><path class="f" d="m424.2 201.2c-0.6 0-1-0.5-1-1.1 0-1.6 3.3-2.7 6.2-2.7 3 0 4.9 1.1 4.9 2.7 0 0.6-0.5 1-1 1-0.6 0-1.1-0.4-1.1-1-0.1-0.2-1-0.7-2.8-0.7-1.8 0-4.1 0.5-4.2 0.7 0 0.6-0.4 1.1-1 1.1z"/><path class="f" d="m400.3 200.3q-0.1 0-0.2 0l-22.8-2.1c-0.4-0.4-1.5-1.5-3.8-2.4l26.9 2.4c0.5 0.1 0.9 0.6 0.9 1.2-0.1 0.5-0.5 0.9-1 0.9z"/><path class="j" d="m354.9 260.6c4.1 3 7.4 6.9 9.5 11.5 13 28.4 2.6 51.9-13.1 49l-2.7-6.1c-1.4-3.4-3.7-6.5-6.7-8.8-13.7-10.9-55.2-43.9-67.2-55.3-7-6.6-12.8-10.5-18-21.2-0.9-1.8-3.2-7.2 3.1-14.1 7.7-8.4 16-15.4 24.4-23.1 9.3-8.5 16.6-15.5 24.8-23.2 7-6.6 16.9-14.1 21.7-22.5 1.8-3.1 3.4-6.5 6.2-8.8 1.7-1.5 3.8-2.5 6-3.5 4.3-1.9 8.9-3.4 13.5-4.5 10.7-2.8 20.1-6.5 31-4.1 1.8 0.4 3.5 1.1 4.8 2.3 4.5 4 0.6 8.2-3.1 10.8-6.2 4.3-12.9 7.8-18.9 12.3-5.7 4.3-10.8 9.5-15.1 15.2-1.3 1.8-2.5 3.5-4 5.1-2 2.1-5.1 4.5-8.3 5.7-2.8 1.1-4.4 4-6.9 7.4-3.7 5-6.2 8.5-10.1 13.3-6.8 8.6-11.9 16.1-19.4 26.1 0 0 32.1 24.6 48.5 36.5z"/><path class="m" d="m310.9 227.6c-13.7 12.3-23.7 9.7-23.7 9.7 12.1-3.7 19.2-13.2 19.2-13.2z"/><path class="f" d="m510.2 372.9c-3.9 11.3-16 46.3-20 57.6-0.8 2.5-3.6 5.2-6.2 5.8l-27.8 7.6c-1.1 0.3-2.1 0.2-2.6-0.3l-2.7-2.3c-0.6-0.5-0.8-1.6-0.3-2.9l20-57.7c0.8-2.5 3.6-5.1 6.2-5.8l27.8-7.6c1.1-0.3 2-0.1 2.6 0.3l2.6 2.2h-0.1c0.8 0.6 1 1.6 0.5 3.1z"/><path class="c" d="m453.1 440.6l20-57.7c0.9-2.5 3.7-5.1 6.3-5.8l27.7-7.5c2.6-0.7 4 0.7 3.1 3.3-3.9 11.3-16 46.3-20 57.6-0.8 2.5-3.6 5.2-6.2 5.8l-27.8 7.6c-2.5 0.7-3.9-0.8-3.1-3.3z"/><path class="h" d="m476.4 378.7c-1.5 1.2-2.7 2.7-3.3 4.3l-20 57.6c-0.4 1.3-0.3 2.3 0.3 2.9l-2.5-2.1 0.1-0.1c-0.7-0.6-0.9-1.6-0.4-2.9l20-57.7c0.4-1.4 1.6-2.8 2.9-4z"/><path class="m" d="m505.7 385.9c0 0 5-0.5 7.4 2.6 2.4 3.2-0.2 26.4-2.5 29.7-2.2 3.3-9.7 14-17.1 15.1-7.4 1.1-25.9-2.4-27.8-6.1-1.8-3.7 4.5-15.9 16-18.6 11.5-2.7 18.4-6.6 20.4-12.5z"/></svg>