<svg version="1.2" xmlns="http://www.w3.org/2000/svg" viewBox="0 0 2760 1840" width="2760" height="1840">
	<title>Bank employee giving loan to shop owner-ai</title>
	<style>
		.s0 { fill: #b8d5dc } 
		.s1 { fill: #acc9c5 } 
		.s2 { fill: #92bcb5 } 
		.s3 { fill: #68a1bf } 
		.s4 { fill: #ccd39c } 
		.s5 { fill: #c2c68e } 
		.s6 { fill: #da6f59 } 
		.s7 { fill: #ef8062 } 
		.s8 { fill: #ffb27d } 
		.s9 { fill: #83c6e2 } 
		.s10 { fill: #ff8a74 } 
		.s11 { opacity: .4;fill: #ffffff } 
		.s12 { fill: #331832 } 
		.s13 { fill: #fd8772 } 
		.s14 { fill: #92a5e6 } 
		.s15 { fill: #e06750 } 
		.s16 { fill: #a9c570 } 
		.s17 { fill: #92ae55 } 
		.s18 { fill: #b6d47f } 
		.s19 { fill: #c1de82 } 
		.s20 { fill: #f6bb60 } 
		.s21 { fill: #e8b74d } 
		.s22 { fill: #f8d37a } 
		.s23 { fill: #f2c665 } 
		.s24 { fill: #db6b55 } 
		.s25 { fill: #366f90 } 
		.s26 { fill: #020202 } 
		.s27 { opacity: .5;fill: #ec865c } 
		.s28 { fill: #e9633e } 
		.s29 { fill: #ffffff } 
		.s30 { fill: #080435 } 
		.s31 { opacity: .3;fill: #ffffff } 
		.s32 { fill: #764678 } 
		.s33 { fill: #5c305d } 
		.s34 { fill: #e9845c } 
		.s35 { fill: #d86a54 } 
		.s36 { fill: #71a99e } 
		.s37 { fill: #5f3563 } 
		.s38 { fill: #7a4a7f } 
		.s39 { fill: #78b8ab } 
		.s40 { fill: #4794ba } 
		.s41 { opacity: .8;fill: #ffffff } 
	</style>
	<g id="&lt;Layer&gt;">
		<g id="&lt;Group&gt;">
			<path id="&lt;Path&gt;" class="s0" d="m2446.5 1410.9c0 78.8-494.2 142.6-1103.9 142.6-609.6 0-1103.9-63.8-1103.9-142.6 0-78.7 494.3-142.5 1103.9-142.5 609.7 0 1103.9 63.8 1103.9 142.5z"/>
			<g id="&lt;Group&gt;">
				<g id="&lt;Group&gt;">
					<g id="&lt;Group&gt;">
						<path id="&lt;Path&gt;" class="s1" d="m2225.4 768.4c0 0 12.8 0.6 28.4 14.6 8.6 7.8 8.8 12.9 5.8 16.4-2.9 3.4-7.8 3.9-16.3-3.8-15.9-14.3-17.9-27.2-17.9-27.2z"/>
						<path id="&lt;Path&gt;" class="s1" d="m2221.9 838.9c0 0 12 4.8 22.4 23.3 5.7 10.2 4.3 15.1 0.4 17.4-3.8 2.3-8.6 1.1-14.3-9-10.6-18.9-8.5-31.7-8.5-31.7z"/>
						<g id="&lt;Group&gt;">
							<g id="&lt;Group&gt;">
								<path id="&lt;Path&gt;" class="s1" d="m2223.4 983.6c18.4-44 55-108.4 125-165.8l1.3 1.8c-69.6 57-106 121.1-124.3 164.8-19.8 47.4-23.2 81.7-23.3 82l-2.1-0.2c0-0.3 3.5-34.9 23.4-82.6z"/>
							</g>
							<g id="&lt;Group&gt;">
								<path id="&lt;Path&gt;" class="s1" d="m2287 739l1.8 1.1c-0.4 0.8-39.8 77-10.4 152l-2 0.9c-29.7-76 10.2-153.2 10.6-154z"/>
							</g>
							<g id="&lt;Group&gt;">
								<path id="&lt;Path&gt;" class="s1" d="m2304.7 860.9l0.7-2.1c24.6 9.3 47.9-0.8 48.1-0.9l0.8 2c-0.2 0.1-18.3 8-39.8 3.8-3.2-0.6-6.5-1.5-9.8-2.8z"/>
							</g>
							<g id="&lt;Group&gt;">
								<path id="&lt;Path&gt;" class="s1" d="m2392.7 792.5c0 0-7.3 14.4-31 29.4-13 8.3-18.8 7.5-21.1 3.6-2.3-3.9-0.3-9.6 12.7-17.8 24.1-15.3 39.4-15.2 39.4-15.2z"/>
							</g>
							<g id="&lt;Group&gt;">
								<path id="&lt;Path&gt;" class="s1" d="m2392 849.6c0 0-11.1 11.5-38.2 18.3-14.8 3.8-20.1 1.3-21.1-3.2-1.1-4.4 2.4-9.2 17.2-13 27.5-6.9 42.1-2.1 42.1-2.1z"/>
							</g>
							<g id="&lt;Group&gt;">
								<path id="&lt;Path&gt;" class="s1" d="m2318.8 799c0 0 3.4 12.9-4.9 32.4-4.5 10.8-9.2 12.5-13.3 10.6-4-1.9-6-6.6-1.4-17.3 8.4-19.9 19.6-25.7 19.6-25.7z"/>
							</g>
							<g id="&lt;Group&gt;">
								<path id="&lt;Path&gt;" class="s1" d="m2308.2 693.6c0 0 1.9 16.2-9.4 42.5-6.2 14.5-11.4 17.3-15.4 15.4-4.1-1.9-5.5-7.7 0.7-22.2 11.5-26.7 24.1-35.7 24.1-35.7z"/>
							</g>
						</g>
					</g>
				</g>
				<path id="&lt;Path&gt;" class="s1" d="m2072.5 1213.9c0 0 210.1-378.2 306.9-315 96.9 63.2-194.9 220.9-252.7 333z"/>
				<g id="&lt;Group&gt;">
					<path id="&lt;Path&gt;" class="s2" d="m2172.6 1145c0 0 245.2-282.1 333.2-205.3 87.9 76.9-213.8 148.6-282.1 233.2z"/>
					<g id="&lt;Group&gt;">
						<path id="&lt;Path&gt;" class="s3" d="m2198.8 1159c46.4-59.7 116.2-107.4 166.5-137 54.5-31.9 98.7-50 99.1-50.2l1.1 2.8c-0.5 0.2-44.4 18.2-98.7 50.1-50.2 29.4-119.6 76.9-165.7 136.2z"/>
					</g>
				</g>
				<g id="&lt;Group&gt;">
					<g id="&lt;Group&gt;">
						<path id="&lt;Path&gt;" class="s4" d="m2468.1 1291.2c-57.5 5-59.9 93.9-121.3 69.1-61.5-24.9-55.6-28.4-90-3.9 0 0-15.7 26.1-41.6 27.3-102.2 4.6-218.2-167-102.8-237.3 8.3-5.1 19.6-5.9 32-6.3 67.1-1.7 83.4 32.4 146-41 62.5-73.4 117.4 51.4 162 53.3 44.6 1.9 85.3-6.6 113.2 46.5 27.8 53.2-40 87.4-97.5 92.3z"/>
					</g>
					<g id="&lt;Group&gt;">
						<g id="&lt;Group&gt;">
							<path id="&lt;Path&gt;" class="s5" d="m2129.3 1262.1l-1.6-3.5c1.5-0.7 153.6-77 443.9-44.9l-0.4 4c-289.3-32.1-440.4 43.7-441.9 44.4z"/>
						</g>
						<g id="&lt;Group&gt;">
							<path id="&lt;Path&gt;" class="s5" d="m2324.9 1170.5c-33.4-40.8-36.3-70-36.4-71.2l3.7-0.4c0.1 0.3 3.1 29.3 35.6 69.1z"/>
						</g>
						<g id="&lt;Group&gt;">
							<path id="&lt;Path&gt;" class="s5" d="m2325.9 1213.5c-8.1-21.1-3.3-49.2 13.9-81.4 12.8-24.1 28.3-42.2 28.4-42.4l2.9 2.6c-0.6 0.7-60.3 71.2-41.7 119.7z"/>
						</g>
						<g id="&lt;Group&gt;">
							<path id="&lt;Path&gt;" class="s5" d="m2403 1217c-4-4.6-6.1-7.5-6.2-7.6l3-2.4c0.4 0.7 45 61.6 121.7 69.6l-0.4 3.9c-61.8-6.4-103.2-46.5-118.1-63.5z"/>
						</g>
						<g id="&lt;Group&gt;">
							<path id="&lt;Path&gt;" class="s5" d="m2428.5 1312.2c-14.8-22.5-17.1-43.4-16.4-56.9 0.8-14.7 5-24 5.2-24.4l3.4 1.7c-0.2 0.3-16.1 36.1 10.9 77.4z"/>
						</g>
					</g>
				</g>
			</g>
			<g id="&lt;Group&gt;">
				<g id="&lt;Group&gt;">
					<g id="&lt;Group&gt;">
						<path id="&lt;Path&gt;" class="s1" d="m536.1 841.6c-7.6 6.9-11.9 6.4-14.5 3.3-2.6-3-2.4-7.6 5.2-14.4 13.8-12.6 25.2-13 25.2-13 0 0-1.8 11.4-15.9 24.1z"/>
						<path id="&lt;Path&gt;" class="s1" d="m547.6 908.1c-5.1 9.1-9.4 10.1-12.8 8-3.4-2-4.6-6.3 0.4-15.4 9.3-16.4 19.9-20.7 19.9-20.7 0 0 1.8 11.4-7.5 28.1z"/>
						<g id="&lt;Group&gt;">
							<g id="&lt;Group&gt;">
								<path id="&lt;Path&gt;" class="s1" d="m574.5 1081.8l-1.9 0.2c0-0.3-3-30.8-20.6-72.8-16.2-38.8-48.5-95.7-110.3-146.3l1.2-1.6c62.1 50.9 94.6 108.1 110.9 147.1 17.7 42.4 20.7 73.1 20.7 73.4z"/>
							</g>
							<g id="&lt;Group&gt;">
								<path id="&lt;Path&gt;" class="s1" d="m506.7 928l-1.8-0.7c26.1-66.6-8.9-134.3-9.2-135l1.7-0.9c0.3 0.7 35.7 69.2 9.3 136.6z"/>
							</g>
							<g id="&lt;Group&gt;">
								<path id="&lt;Path&gt;" class="s1" d="m472.9 902.1c-19 3.7-35.2-3.3-35.3-3.4l0.7-1.8c0.2 0.1 20.9 9 42.7 0.8l0.6 1.9c-2.9 1.1-5.8 1.9-8.7 2.5z"/>
							</g>
							<g id="&lt;Group&gt;">
								<path id="&lt;Path&gt;" class="s1" d="m438.5 852.3c11.5 7.3 13.3 12.3 11.2 15.8-2 3.5-7.1 4.2-18.7-3.1-21-13.4-27.5-26.1-27.5-26.1 0 0 13.6-0.1 35 13.4z"/>
							</g>
							<g id="&lt;Group&gt;">
								<path id="&lt;Path&gt;" class="s1" d="m441.5 891.4c13.1 3.4 16.3 7.6 15.3 11.6-1 3.9-5.6 6.1-18.8 2.8-24-6.1-33.8-16.2-33.8-16.2 0 0 12.9-4.4 37.3 1.8z"/>
							</g>
							<g id="&lt;Group&gt;">
								<path id="&lt;Path&gt;" class="s1" d="m486.5 867.4c4.1 9.5 2.3 13.7-1.3 15.4-3.6 1.6-7.7 0.1-11.8-9.4-7.3-17.4-4.3-28.8-4.3-28.8 0 0 9.9 5.2 17.4 22.8z"/>
							</g>
							<g id="&lt;Group&gt;">
								<path id="&lt;Path&gt;" class="s1" d="m499.9 782.7c5.5 12.9 4.2 18.1 0.6 19.7-3.6 1.7-8.1-0.7-13.6-13.6-10.1-23.4-8.4-37.7-8.4-37.7 0 0 11.2 7.9 21.4 31.6z"/>
							</g>
						</g>
					</g>
				</g>
				<path id="&lt;Path&gt;" class="s1" d="m587.1 1218c-51.3-99.5-310.3-239.5-224.3-295.6 85.9-56 272.4 279.5 272.4 279.5z"/>
				<g id="&lt;Group&gt;">
					<path id="&lt;Path&gt;" class="s2" d="m501 1165.6c-60.6-75.1-328.4-138.8-250.3-206.9 78-68.2 295.6 182.1 295.6 182.1z"/>
					<g id="&lt;Group&gt;">
						<path id="&lt;Path&gt;" class="s3" d="m521.1 1154.9c-40.9-52.6-102.6-94.8-147.1-120.8-48.2-28.3-87.2-44.3-87.6-44.5l1-2.5c0.4 0.2 39.6 16.2 87.9 44.6 44.7 26.2 106.6 68.5 147.8 121.5z"/>
					</g>
				</g>
				<g id="&lt;Group&gt;">
					<g id="&lt;Group&gt;">
						<path id="&lt;Path&gt;" class="s4" d="m197.6 1188.7c24.7-47.2 60.8-39.6 100.4-41.3 39.6-1.7 88.3-112.5 143.9-47.3 55.4 65.1 69.9 34.9 129.5 36.4 11 0.3 21 1.1 28.4 5.6 102.4 62.4-0.5 214.7-91.3 210.6-23-1.1-36.8-24.3-36.8-24.3-30.6-21.7-25.4-18.6-79.9 3.5-54.5 22.1-56.7-56.9-107.7-61.3-51.1-4.4-111.2-34.7-86.5-81.9z"/>
					</g>
					<g id="&lt;Group&gt;">
						<g id="&lt;Group&gt;">
							<path id="&lt;Path&gt;" class="s5" d="m192.6 1205.3l-0.4-3.5c257.7-28.5 392.7 39.2 394.1 39.9l-1.5 3.1c-1.3-0.7-135.5-67.9-392.2-39.5z"/>
						</g>
						<g id="&lt;Group&gt;">
							<path id="&lt;Path&gt;" class="s5" d="m408.6 1161.2c28.9-35.3 31.6-61 31.6-61.3l3.3 0.3c-0.1 1.1-2.7 27.1-32.3 63.3z"/>
						</g>
						<g id="&lt;Group&gt;">
							<path id="&lt;Path&gt;" class="s5" d="m407.2 1200.3c16.5-43-36.4-105.6-37-106.2l2.5-2.3c0.2 0.1 13.9 16.2 25.3 37.6 15.2 28.5 19.5 53.5 12.3 72.2z"/>
						</g>
						<g id="&lt;Group&gt;">
							<path id="&lt;Path&gt;" class="s5" d="m237 1261.1l-0.3-3.5c68.1-7.1 107.6-61.2 108-61.7l2.7 2.1c-0.1 0.1-1.9 2.7-5.5 6.7-13.3 15.1-50 50.7-104.9 56.4z"/>
						</g>
						<g id="&lt;Group&gt;">
							<path id="&lt;Path&gt;" class="s5" d="m316.5 1287.3c23.9-36.7 9.8-68.4 9.7-68.7l3-1.5c0.2 0.3 3.9 8.6 4.6 21.6 0.6 12-1.4 30.5-14.5 50.5z"/>
						</g>
					</g>
				</g>
			</g>
			<g id="&lt;Group&gt;">
				<g id="&lt;Group&gt;">
					<path id="&lt;Path&gt;" class="s6" d="m533.3 1350.1v-32.5l416.3-2.9-0.6 35.4z"/>
					<path id="&lt;Path&gt;" class="s6" d="m549.6 1316.7c37.9-36 124.3-67.7 273-46.1 96.8 14.1 147.4 56.9 119.5 94.2-34 45.3-132.9 61.4-278.5 46.4-100.2-10.3-161.4-49.5-114-94.5z"/>
					<path id="&lt;Path&gt;" class="s7" d="m549.6 1285.4c37.9-36 124.3-67.7 273-46.1 96.8 14.1 147.4 56.9 119.5 94.2-34 45.3-132.9 61.4-278.5 46.4-100.2-10.3-161.4-49.5-114-94.5z"/>
					<g id="&lt;Group&gt;">
						<path id="&lt;Compound Path&gt;" fill-rule="evenodd" class="s8" d="m758 1377.5c-25.1 0-52.6-1.5-82.5-4.6-61.2-6.3-104.3-25.1-112.4-49-2.9-8.5-2.9-21.8 13.4-37.3 20.4-19.4 84.1-62 235.1-40.1 56.7 8.3 98.4 28.8 108.6 53.7 4.5 10.8 2.8 21.8-4.7 31.9-22.5 29.8-77.3 45.4-157.5 45.4zm-176.7-85.9c-11 10.4-14.9 20.6-11.7 30 7.2 21.1 49 38.5 106.6 44.4 122.8 12.7 205.8-0.9 233.7-38.1 6.1-8.1 7.5-16.5 3.9-25.1-9.2-22.2-49.7-41.7-103.2-49.5-38.5-5.6-168.7-19.4-229.3 38.3z"/>
					</g>
				</g>
				<g id="&lt;Group&gt;">
					<path id="&lt;Path&gt;" class="s6" d="m533.3 1314.3v-32.5l416.3-3-0.6 35.5z"/>
					<path id="&lt;Path&gt;" class="s6" d="m549.6 1280.9c37.9-36.1 124.3-67.7 273-46.1 96.8 14.1 147.4 56.9 119.5 94.2-34 45.3-132.9 61.4-278.5 46.4-100.2-10.4-161.4-49.5-114-94.5z"/>
					<path id="&lt;Path&gt;" class="s7" d="m549.6 1249.5c37.9-36 124.3-67.7 273-46 96.8 14.1 147.4 56.9 119.5 94.1-34 45.3-132.9 61.4-278.5 46.4-100.2-10.3-161.4-49.4-114-94.5z"/>
					<g id="&lt;Group&gt;">
						<path id="&lt;Compound Path&gt;" fill-rule="evenodd" class="s8" d="m758 1341.6c-25.1 0-52.6-1.5-82.5-4.5-61.2-6.4-104.3-25.1-112.4-49.1-2.9-8.4-2.9-21.7 13.4-37.2 20.4-19.4 84.1-62.1 235.1-40.1 56.7 8.2 98.4 28.8 108.6 53.7 4.5 10.7 2.8 21.8-4.7 31.8-22.5 29.9-77.3 45.4-157.5 45.4zm-176.7-85.8c-11 10.4-14.9 20.5-11.7 30 7.2 21 49 38.5 106.6 44.4 122.8 12.6 205.8-0.9 233.7-38.1 6.1-8.1 7.5-16.6 3.9-25.1-9.2-22.3-49.7-41.7-103.2-49.5-38.5-5.6-168.7-19.4-229.3 38.3z"/>
					</g>
				</g>
				<g id="&lt;Group&gt;">
					<path id="&lt;Path&gt;" class="s6" d="m558.2 1264.7v-32.6l416.4-2.9-0.6 35.5z"/>
					<path id="&lt;Path&gt;" class="s6" d="m574.5 1231.2c37.9-36 124.3-67.7 273-46 96.9 14.1 147.5 56.9 119.5 94.1-34 45.3-132.8 61.4-278.5 46.4-100.2-10.3-161.3-49.4-114-94.5z"/>
					<path id="&lt;Path&gt;" class="s7" d="m574.5 1199.9c37.9-36 124.3-67.7 273-46.1 96.9 14.1 147.5 56.9 119.5 94.2-34 45.3-132.8 61.4-278.5 46.4-100.2-10.3-161.3-49.4-114-94.5z"/>
					<g id="&lt;Group&gt;">
						<path id="&lt;Compound Path&gt;" fill-rule="evenodd" class="s8" d="m783 1292c-25.1 0-52.7-1.5-82.5-4.6-61.2-6.3-104.3-25.1-112.5-49-2.9-8.4-2.8-21.7 13.5-37.3 20.4-19.4 84-62 235.1-40.1 56.7 8.3 98.3 28.9 108.6 53.7 4.4 10.8 2.8 21.8-4.8 31.9-22.4 29.9-77.2 45.4-157.4 45.4zm-24-129.7c-52.3 0-115.6 8.5-152.7 43.8-11 10.5-15 20.6-11.8 30.1 7.2 21 49.1 38.4 106.7 44.3 122.8 12.7 205.8-0.8 233.7-38 6.1-8.2 7.4-16.6 3.9-25.1-9.2-22.3-49.7-41.7-103.2-49.5-14.9-2.2-43.6-5.6-76.6-5.6z"/>
					</g>
				</g>
				<g id="&lt;Group&gt;">
					<path id="&lt;Path&gt;" class="s6" d="m532.2 1208.5v-32.5l416.4-3-0.6 35.5z"/>
					<path id="&lt;Path&gt;" class="s6" d="m548.5 1175.1c37.9-36.1 124.4-67.7 273.1-46.1 96.8 14.1 147.4 56.9 119.4 94.2-33.9 45.2-132.8 61.3-278.5 46.3-100.2-10.3-161.3-49.4-114-94.4z"/>
					<path id="&lt;Path&gt;" class="s7" d="m548.5 1143.7c37.9-36 124.4-67.7 273.1-46 96.8 14.1 147.4 56.9 119.4 94.1-33.9 45.3-132.8 61.4-278.5 46.4-100.2-10.3-161.3-49.4-114-94.5z"/>
					<g id="&lt;Group&gt;">
						<path id="&lt;Compound Path&gt;" fill-rule="evenodd" class="s8" d="m757 1235.8c-25.1 0-52.7-1.5-82.5-4.6-61.2-6.3-104.3-25-112.5-49-2.8-8.4-2.8-21.7 13.5-37.3 20.4-19.3 84.1-62 235.1-40 56.7 8.2 98.3 28.8 108.6 53.7 4.4 10.7 2.8 21.7-4.8 31.8-22.4 29.9-77.2 45.4-157.4 45.4zm-24-129.7c-52.3 0-115.6 8.5-152.7 43.9-11 10.4-15 20.5-11.7 30 7.1 21 49 38.4 106.6 44.4 122.8 12.6 205.8-0.9 233.7-38.1 6.1-8.2 7.4-16.6 3.9-25.1-9.2-22.3-49.7-41.7-103.2-49.5-14.9-2.2-43.6-5.6-76.6-5.6z"/>
					</g>
				</g>
				<g id="&lt;Group&gt;">
					<path id="&lt;Path&gt;" class="s6" d="m532.2 1172.7v-32.6l416.4-2.9-0.6 35.5z"/>
					<path id="&lt;Path&gt;" class="s6" d="m548.5 1139.2c37.9-36 124.4-67.7 273.1-46 96.8 14.1 147.4 56.9 119.4 94.1-33.9 45.3-132.8 61.4-278.5 46.4-100.2-10.3-161.3-49.4-114-94.5z"/>
					<path id="&lt;Path&gt;" class="s7" d="m548.5 1107.9c37.9-36 124.4-67.7 273.1-46.1 96.8 14.1 147.4 56.9 119.4 94.2-33.9 45.3-132.8 61.4-278.5 46.4-100.2-10.3-161.3-49.5-114-94.5z"/>
					<g id="&lt;Group&gt;">
						<path id="&lt;Compound Path&gt;" fill-rule="evenodd" class="s8" d="m757 1200c-25.1 0-52.7-1.5-82.5-4.6-61.2-6.3-104.3-25.1-112.5-49-2.8-8.4-2.8-21.7 13.5-37.3 20.4-19.4 84.1-62 235.1-40.1 56.7 8.3 98.3 28.9 108.6 53.7 4.4 10.8 2.8 21.8-4.8 31.9-22.4 29.9-77.2 45.4-157.4 45.4zm-24.1-129.7c-52.2 0-115.5 8.5-152.6 43.8-11 10.5-15 20.6-11.7 30.1 7.1 21 49 38.4 106.6 44.3 122.8 12.7 205.8-0.9 233.7-38.1 6.1-8.1 7.4-16.5 3.9-25-9.2-22.3-49.7-41.8-103.2-49.5-14.9-2.2-43.6-5.6-76.7-5.6z"/>
					</g>
				</g>
				<g id="&lt;Group&gt;">
					<path id="&lt;Path&gt;" class="s6" d="m532.2 1123v-32.5l416.4-2.9-0.6 35.4z"/>
					<path id="&lt;Path&gt;" class="s6" d="m548.5 1089.6c37.9-36 124.4-67.7 273.1-46.1 96.8 14.1 147.4 56.9 119.4 94.2-33.9 45.3-132.8 61.4-278.5 46.4-100.2-10.3-161.3-49.5-114-94.5z"/>
					<path id="&lt;Path&gt;" class="s7" d="m548.5 1058.3c37.9-36.1 124.4-67.7 273.1-46.1 96.8 14.1 147.4 56.9 119.4 94.2-33.9 45.2-132.8 61.3-278.5 46.4-100.2-10.4-161.3-49.5-114-94.5z"/>
					<g id="&lt;Group&gt;">
						<path id="&lt;Compound Path&gt;" fill-rule="evenodd" class="s8" d="m757 1150.4c-25.1 0-52.7-1.6-82.5-4.6-61.2-6.3-104.3-25.1-112.5-49.1-2.8-8.4-2.8-21.7 13.5-37.2 20.4-19.4 84.1-62.1 235.1-40.1 56.7 8.2 98.3 28.8 108.6 53.7 4.4 10.8 2.8 21.8-4.8 31.8-22.4 29.9-77.2 45.5-157.4 45.5zm-24-129.8c-52.3 0-115.6 8.5-152.7 43.9-11 10.4-15 20.5-11.7 30 7.1 21.1 49 38.5 106.6 44.4 122.8 12.6 205.8-0.9 233.7-38.1 6.1-8.1 7.4-16.6 3.9-25.1-9.2-22.3-49.7-41.7-103.2-49.5-14.9-2.2-43.6-5.6-76.6-5.6z"/>
					</g>
				</g>
				<g id="&lt;Group&gt;">
					<path id="&lt;Path&gt;" class="s6" d="m511.6 1062.1v-32.5l416.4-2.9-0.6 35.4z"/>
					<path id="&lt;Path&gt;" class="s6" d="m527.9 1028.7c37.9-36 124.3-67.7 273-46.1 96.9 14.1 147.5 56.9 119.5 94.2-34 45.3-132.8 61.4-278.5 46.4-100.2-10.3-161.3-49.5-114-94.5z"/>
					<path id="&lt;Path&gt;" class="s7" d="m527.9 997.4c37.9-36 124.3-67.7 273-46.1 96.9 14.1 147.5 56.9 119.5 94.2-34 45.3-132.8 61.4-278.5 46.4-100.2-10.3-161.3-49.5-114-94.5z"/>
					<g id="&lt;Group&gt;">
						<path id="&lt;Compound Path&gt;" fill-rule="evenodd" class="s8" d="m736.3 1089.5c-25 0-52.6-1.5-82.4-4.6-61.2-6.3-104.3-25.1-112.5-49-2.9-8.4-2.9-21.8 13.5-37.3 20.4-19.4 84.1-62 235-40.1 56.8 8.3 98.4 28.9 108.7 53.7 4.4 10.8 2.8 21.8-4.8 31.9-22.4 29.8-77.2 45.4-157.5 45.4zm-24-129.7c-52.3 0-115.5 8.5-152.7 43.8-11 10.5-14.9 20.6-11.7 30 7.2 21.1 49.1 38.5 106.7 44.4 122.8 12.7 205.8-0.9 233.7-38.1 6.1-8.1 7.4-16.5 3.9-25.1-9.2-22.2-49.7-41.7-103.3-49.5-14.9-2.1-43.5-5.5-76.6-5.5z"/>
					</g>
					<g id="&lt;Group&gt;">
						<path id="&lt;Compound Path&gt;" class="s8" d="m682.4 1062.8l2.9-4.7c1-1.8-1.6-3.5-6.1-4-10.6-1.4-20.5-3.4-27.8-5.7-3.5-1.1-4.3-3-1.9-4.4l1.7-1c2.9-1.8 9.3-2.2 13.6-0.9 8.4 2.5 19.2 4.6 31.3 5.6 20.7 1.7 33.2-2.6 37-9 3.7-6.1-1.1-9.9-20.7-15-27-6.9-53.2-14.5-47.4-24.2 5.1-8.5 24.2-15.8 58.8-13.4 4.1 0.3 7.7-1.1 8.6-2.6l3.2-5.2c1.1-1.9 6-3.1 11-2.6 5 0.4 8.1 2.2 7 4.1l-2.6 4.3c-1 1.7 1.5 3.4 5.9 4 8.8 1.2 15.7 2.6 21.1 4.1 3.9 1.1 4.8 3.1 2.2 4.6l-1.7 1c-2.9 1.6-8.9 2-13.2 0.8-6-1.6-14.7-3.4-26.8-4.4-22.4-1.9-33.9 2.5-36.6 7-3.5 5.8 11.8 7.6 34.7 13.8 27.2 7.1 42.2 15.3 38.7 25.4-3.7 10.7-24.8 16.7-62.5 15.7-4.2-0.1-7.8 1.2-8.7 2.7l-3.3 5.5c-1.2 1.9-6.1 3.1-11.1 2.7l-0.3-0.1c-5-0.4-8.1-2.2-7-4.1z"/>
					</g>
				</g>
			</g>
			<g id="&lt;Group&gt;">
				<path id="&lt;Path&gt;" class="s3" d="m553.1 1116.1c39 56.3 124.2 207.4 93.4 259.3-30.9 51.9-217 40.3-247.5 21-30.5-19.2 45.9-259.5 70.8-289.8 24.9-30.3 56-29.7 83.3 9.5z"/>
				<g id="&lt;Group&gt;">
					<path id="&lt;Compound Path&gt;" class="s9" d="m527.1 1320.3l-0.6-8.6c-0.3-3.1-2.5-5.4-5.1-5.5-6.2-0.1-12.3-1.5-17.1-3.8-2.4-1.2-3.6-4.2-3-7.1l0.4-2c0.7-3.5 3.9-5.5 6.8-4.2 5.5 2.5 12.1 3.9 18.9 3.1 11.7-1.2 16.3-11.1 15.4-22.5-0.9-11-5.1-16.3-17.7-21-17.4-6.1-34.6-13.6-36-30.9-1.1-15.2 5.6-31.4 24.8-34.2 2.3-0.3 3.6-3.5 3.4-6.2l-0.8-9.4c-0.2-3.3 1.8-6.2 4.7-6.5 2.8-0.3 5.2 2.1 5.5 5.4l0.6 7.8c0.2 3.1 2.3 5.4 4.9 5.5 5.2 0.2 9.5 1.2 13 2.6 2.5 1.1 3.9 4.3 3.2 7.3l-0.4 2c-0.8 3.3-3.8 5.2-6.6 4.1-3.9-1.6-9.3-2.9-16.1-2.1-12.6 1.4-16.6 11.1-16 19.1 0.8 10.4 9.7 10.4 24.5 16 17.5 6.6 29.1 17.3 31.9 34.8 2.9 18.8-5.4 33-25.7 39-2.2 0.6-3.5 3.5-3.3 6.2l0.8 9.9c0.2 3.4-1.9 6.3-4.7 6.6h-0.1c-2.8 0.3-5.3-2.1-5.6-5.4z"/>
				</g>
				<path id="&lt;Path&gt;" class="s3" d="m461.1 1031.8c0 0 39.4 6.3 43.2 34.1 3.7 27.8-34.6 5.7-60.1 13.1-25.5 7.4-11.1-14.5-5.3-29.2 5.7-14.6 5.3-19.9 22.2-18z"/>
			</g>
			<g id="&lt;Group&gt;">
				<path id="&lt;Path&gt;" class="s7" d="m576.9 1348.8c0-76.4 34.9-157.8 147.7-157.8 73.4 0 136.3 65.2 143.7 141.2 9 92.4-44.9 148.5-151.1 159.9-73 7.9-140.3-47.7-140.3-143.3z"/>
				<g id="&lt;Group&gt;">
					<path id="&lt;Compound Path&gt;" fill-rule="evenodd" class="s8" d="m706.4 1474.4c-26.6 0-51.6-9.5-71.5-27.4-25.9-23.2-40.2-58.5-40.2-99.2 0-86.6 48.5-138.3 129.7-138.3 63 0 119.6 55.5 126.2 123.8 7.9 80.5-39 130.4-132 140.4q-6.2 0.7-12.2 0.7zm18-256.7c-109.7 0-121.6 91-121.6 130.1 0 38.4 13.4 71.5 37.5 93.2 21.2 19 48.6 27.7 77.4 24.6 89.1-9.6 132.3-55 124.8-131.5-6.2-64.2-59.2-116.4-118.1-116.4z"/>
				</g>
				<g id="&lt;Group&gt;">
					<path id="&lt;Compound Path&gt;" class="s8" d="m723.8 1427.8l-1.4-9.5c-0.5-3.4-3.5-5.9-6.8-5.7-7.9 0.3-15.9-0.8-22.2-3-3.1-1-4.9-4.3-4.3-7.6l0.4-2.3c0.7-4 4.6-6.5 8.4-5.3 7.2 2.3 15.8 3.4 24.4 2 14.8-2.4 20-13.8 18.2-26.5-1.8-12.2-7.7-17.8-24-22.1-22.6-5.5-45.1-12.4-48-31.8-2.5-16.9 5-35.6 29.4-40.3 2.9-0.5 4.3-4.2 3.9-7.2l-1.6-10.4c-0.5-3.7 1.9-7.2 5.5-7.8 3.6-0.5 6.9 2 7.4 5.7l1.3 8.7c0.5 3.4 3.4 5.9 6.7 5.7 6.6-0.2 12.1 0.6 16.7 1.9 3.3 1 5.3 4.5 4.6 7.9l-0.4 2.2c-0.8 3.9-4.5 6.2-8.1 5.2-5.1-1.4-12.1-2.4-20.7-1.1-16.1 2.6-20.6 13.8-19.3 22.7 1.7 11.6 13.1 10.9 32.4 16.1 22.8 5.9 38.3 16.9 43 36.4 5 20.8-4.7 37.4-30.2 45.7-2.8 0.9-4.3 4.2-3.8 7.3l1.6 11c0.5 3.8-1.9 7.2-5.5 7.8h-0.2c-3.5 0.6-6.9-2-7.4-5.7z"/>
				</g>
			</g>
			<g id="&lt;Group&gt;">
				<path id="&lt;Path&gt;" class="s7" d="m1710.5 433.4c-9.2-39.2-1.1-85.3 56.9-98.9 37.7-8.9 77.9 17 90.8 55.2 15.8 46.4-5.1 81.7-58.3 100.4-36.6 12.9-77.9-7.6-89.4-56.7z"/>
				<g id="&lt;Group&gt;">
					<path id="&lt;Compound Path&gt;" fill-rule="evenodd" class="s8" d="m1779.1 483.8c-9.3 0-18.5-2.3-26.9-6.9-16.2-8.9-27.8-25.2-32.7-46.2-10.4-44.5 8.2-76.9 50-86.7 32.3-7.6 68.1 14.1 79.8 48.4 13.7 40.4-4.4 71.7-50.9 88.1-6.4 2.2-12.9 3.3-19.3 3.3zm-55.4-54c4.6 19.7 15.5 35.1 30.5 43.3 13.2 7.2 28.4 8.4 42.7 3.3 44.7-15.6 61.4-44.2 48.3-82.6-10.9-32.3-44.5-52.7-74.8-45.6-56.3 13.3-51.4 61.5-46.7 81.6z"/>
				</g>
				<g id="&lt;Group&gt;">
					<path id="&lt;Compound Path&gt;" class="s8" d="m1795.5 456.3l-1.9-4.7c-0.6-1.7-2.4-2.6-4.2-2.2-4 1.2-8.2 1.6-11.7 1.2-1.7-0.2-3-1.7-3.1-3.4l-0.1-1.3c-0.1-2.1 1.6-3.8 3.7-3.7 4 0.4 8.5-0.1 12.8-1.9 7.3-3 8.6-9.5 6.1-15.8-2.4-6.1-6.1-8.2-15-8.4-12.3-0.2-24.7-1-28.5-10.6-3.3-8.4-1.7-18.9 10.3-24.3 1.4-0.6 1.7-2.6 1.1-4.1l-2.1-5.2c-0.7-1.8 0.1-3.9 1.9-4.7 1.8-0.7 3.8 0.2 4.5 2.1l1.7 4.3c0.7 1.7 2.4 2.6 4.1 2.1 3.4-0.9 6.3-1.1 8.8-1 1.9 0.1 3.3 1.6 3.4 3.5v1.2c0.1 2-1.5 3.7-3.5 3.6-2.8-0.1-6.5 0.2-10.8 2-7.9 3.2-8.9 9.5-7.1 13.9 2.2 5.8 8 4.1 18.5 4.4 12.5 0.3 21.8 4.1 26.5 13.5 5.1 10.1 2.1 19.8-10 27.1-1.3 0.9-1.7 2.7-1.1 4.2l2.2 5.5c0.7 1.9-0.1 3.9-1.9 4.7h-0.1c-1.7 0.7-3.8-0.2-4.5-2z"/>
				</g>
			</g>
			<g id="&lt;Group&gt;">
				<path id="&lt;Path&gt;" class="s7" d="m1869.6 280.8c12.2-28.6 38.3-53.5 80.5-35.5 27.5 11.8 40.6 46.2 31.2 75.8-11.4 36-40.5 48.4-82.1 35.7-28.6-8.7-44.8-40.3-29.6-76z"/>
				<g id="&lt;Group&gt;">
					<path id="&lt;Compound Path&gt;" fill-rule="evenodd" class="s8" d="m1928.1 354.3c-7.8 0-16.3-1.4-25.4-4.2-12.2-3.7-21.8-12-27.1-23.3-6-12.9-5.7-28.3 0.8-43.6 4.2-9.8 12.1-23.1 25.4-30.7 13.1-7.4 28.3-7.5 45.3-0.3 23.5 10.1 35.8 39.9 27.4 66.5-7.4 23.5-23.6 35.6-46.4 35.6zm-4.8-104.1q-10.7 0-19.9 5.2c-12.5 7.1-19.9 19.8-23.9 29.1-6.1 14.4-6.4 28.9-0.9 40.9 4.9 10.5 13.8 18.1 25 21.6 34.9 10.6 58.3 0.5 67.8-29.3 7.9-25-3.6-53-25.6-62.4q-11.9-5.1-22.5-5.1z"/>
				</g>
				<g id="&lt;Group&gt;">
					<path id="&lt;Compound Path&gt;" class="s8" d="m1911.9 333.8l1-3.8c0.4-1.4-0.3-2.7-1.6-3.2-3-1.2-5.8-2.8-7.8-4.7-1-0.9-1.1-2.4-0.4-3.5l0.5-0.8c0.9-1.4 2.8-1.7 4-0.6 2.3 2 5.4 3.7 8.8 4.6 5.9 1.5 9.7-1.9 11-7 1.3-4.9 0-7.9-5.4-12.1-7.6-5.7-14.9-11.9-12.9-19.6 1.8-6.7 7.6-12.5 17.5-10.3 1.2 0.2 2.3-0.9 2.6-2.1l1.1-4.2c0.4-1.4 1.8-2.3 3.2-2 1.5 0.4 2.3 1.9 1.9 3.3l-0.9 3.5c-0.3 1.3 0.3 2.7 1.6 3.2 2.5 1 4.4 2.1 5.9 3.4 1.1 0.9 1.3 2.5 0.5 3.7l-0.5 0.7c-0.9 1.3-2.7 1.6-3.9 0.7-1.7-1.4-4.1-2.9-7.5-3.8-6.5-1.6-9.9 1.9-10.9 5.5-1.2 4.6 3.2 6.1 9.6 11.1 7.6 5.9 11.6 12.5 10.2 20.5-1.4 8.6-7.7 13.3-18.6 12.3-1.2-0.1-2.2 0.9-2.6 2.1l-1.1 4.4c-0.4 1.5-1.9 2.4-3.3 2h-0.1c-1.4-0.3-2.3-1.8-1.9-3.3z"/>
				</g>
			</g>
			<g id="&lt;Group&gt;">
				<path id="&lt;Path&gt;" class="s3" d="m1432.6 1170.1h-36v-468.7h36z"/>
				<path id="&lt;Path&gt;" class="s3" d="m2168.4 1170.1h-36v-468.7h36z"/>
				<g id="&lt;Group&gt;">
					<g id="&lt;Group&gt;">
						<path id="&lt;Path&gt;" class="s10" d="m1915.3 714.2v-56.8h271.9v56.8c0 2.2-1.8 4-4 4h-263.8c-2.3 0-4.1-1.8-4.1-4z"/>
						<path id="&lt;Path&gt;" class="s0" d="m2187.2 657.4h-815.7l61.4-96.8h692.9z"/>
						<path id="&lt;Path&gt;" class="s11" d="m1643.4 714.2v-56.8h271.9v56.8c0 2.2-1.8 4-4 4h-263.9c-2.2 0-4-1.8-4-4z"/>
						<path id="&lt;Path&gt;" class="s10" d="m1371.5 714.2v-56.8h271.9v56.8c0 2.2-1.8 4-4.1 4h-263.8c-2.2 0-4-1.8-4-4z"/>
						<path id="&lt;Path&gt;" class="s7" d="m1915.3 657.4l-21.6-96.8h232.1l61.4 96.8z"/>
						<path id="&lt;Path&gt;" class="s7" d="m1371.5 657.4l61.4-96.8h232.1l-21.6 96.8z"/>
					</g>
					<g id="&lt;Group&gt;">
						<path id="&lt;Path&gt;" class="s12" d="m2187.2 658.6h-815.7v-2.4h815.7z"/>
					</g>
				</g>
				<g id="&lt;Group&gt;">
					<g id="&lt;Group&gt;">
						<g id="&lt;Group&gt;">
							<path id="&lt;Path&gt;" class="s7" d="m1535.2 991.6c4.6-2.6 8.8-3.8 16.3-13.6 6.6-8.7 17.3-10.2 25.4-1.9 7.8 7.9 11 27.2 8.4 34.9-3.3 9.6-17.4 16-21.5 17-8.8 2.1-22.5-0.2-33.5-15.1-6.3-8.7-1.7-17.6 4.9-21.3z"/>
							<g id="&lt;Group&gt;">
								<path id="&lt;Path&gt;" class="s12" d="m1541.7 995.9c-0.2 0-0.4-0.2-0.4-0.4-0.1-0.3 0.1-0.5 0.4-0.5 13.1-1.5 14.4-13.2 14.4-13.3 0-0.3 0.2-0.4 0.5-0.4 0.2 0 0.4 0.2 0.4 0.5 0 0.1-1.4 12.5-15.2 14.1q-0.1 0-0.1 0z"/>
							</g>
							<g id="&lt;Group&gt;">
								<path id="&lt;Path&gt;" class="s12" d="m1551.7 991.2c-0.2 0-0.5-0.1-0.7-0.3-10.2-10-26-4.3-26.1-4.2-0.5 0.2-1.1-0.1-1.3-0.6-0.2-0.5 0.1-1.1 0.6-1.3 0.7-0.3 17-6.2 28.2 4.7 0.4 0.4 0.4 1 0 1.4q-0.3 0.3-0.7 0.3z"/>
							</g>
						</g>
						<path id="&lt;Path&gt;" class="s4" d="m1534.8 979.5c0 0-5.8 2.4-8.7-3-2.9-5.4 0.7-6.2-0.6-10.9-1.3-4.7 0.1-8.8 1.8-8.2 1.7 0.6 4.4 2.2 8.7 4.8 4.2 2.6 9.7 11.9-1.2 17.3z"/>
						<g id="&lt;Group&gt;">
							<path id="&lt;Path&gt;" class="s12" d="m1538.4 984.6q-0.2 0-0.3-0.1c-6-6.3-8.6-19.7-8.7-20.2-0.1-0.3 0.1-0.5 0.3-0.5 0.3-0.1 0.5 0.1 0.5 0.3 0.1 0.1 2.7 13.7 8.5 19.8 0.2 0.1 0.2 0.4 0 0.6q-0.1 0.1-0.3 0.1z"/>
						</g>
					</g>
					<g id="&lt;Group&gt;">
						<g id="&lt;Group&gt;">
							<path id="&lt;Path&gt;" class="s7" d="m1651.4 1007.9c-8.4 16.5-21.6 21-30.6 20.4-4.3-0.3-19.2-4.4-23.9-13.4-3.9-7.1-3.9-26.7 2.5-35.8 6.7-9.5 17.5-9.7 25.5-2.2 8.9 8.5 13.3 9 18.2 10.8 7.1 2.6 13.1 10.7 8.3 20.2z"/>
							<g id="&lt;Group&gt;">
								<path id="&lt;Path&gt;" class="s12" d="m1636.3 993c-13 0-16.2-11.4-16.2-11.5-0.1-0.2 0-0.4 0.3-0.5 0.2-0.1 0.4 0.1 0.5 0.3 0.1 0.5 3.1 10.8 15.3 10.8q0.6 0 1.1 0 0 0 0 0c0.3 0 0.4 0.2 0.5 0.4 0 0.3-0.2 0.5-0.5 0.5q-0.5 0-1 0z"/>
							</g>
							<g id="&lt;Group&gt;">
								<path id="&lt;Path&gt;" class="s12" d="m1626.6 990q-0.3 0-0.6-0.2c-0.4-0.3-0.5-1-0.2-1.4 9.3-12.5 26.4-9.3 27.1-9.2 0.6 0.1 0.9 0.7 0.8 1.2-0.1 0.5-0.5 0.9-1.2 0.8-0.1-0.1-16.6-3.1-25.1 8.4-0.2 0.2-0.5 0.4-0.8 0.4z"/>
							</g>
						</g>
						<path id="&lt;Path&gt;" class="s4" d="m1637.6 958.8c3.8-3.3 6.2-5.2 7.8-6.1 1.6-0.8 3.7 2.9 3.1 7.8-0.5 4.8 3.2 5.1 1.2 10.9-2.1 5.7-8.1 4.3-8.1 4.3-11.7-3.6-7.8-13.6-4-16.9z"/>
						<g id="&lt;Group&gt;">
							<path id="&lt;Path&gt;" class="s12" d="m1638.8 981.3q-0.2 0-0.3-0.1c-0.2-0.1-0.2-0.4-0.1-0.6 4.8-6.9 5.2-20.7 5.2-20.8 0-0.2 0.2-0.4 0.4-0.4q0 0 0 0c0.3 0 0.5 0.2 0.5 0.4 0 0.6-0.4 14.2-5.4 21.3q-0.1 0.2-0.3 0.2z"/>
						</g>
					</g>
					<g id="&lt;Group&gt;">
						<g id="&lt;Group&gt;">
							<path id="&lt;Path&gt;" class="s13" d="m1614.5 933.1c7.3 17.1 2.2 30-4.1 36.6-2.9 3.1-15.6 11.8-25.5 9.8-7.9-1.7-22.9-14.3-25.8-25-2.9-11.3 3.8-19.7 14.6-20.9 12.3-1.5 15.5-4.5 20.1-7.1 6.5-3.8 16.5-3.2 20.7 6.6z"/>
							<g id="&lt;Group&gt;">
								<path id="&lt;Path&gt;" class="s12" d="m1580.6 941.4c-3.7 0-6.3-1.2-6.4-1.2-0.2-0.1-0.3-0.4-0.2-0.6 0.1-0.2 0.4-0.3 0.6-0.2 0.4 0.2 10.8 4.9 18.8-5.6 0.1-0.2 0.4-0.3 0.6-0.1 0.2 0.1 0.2 0.4 0.1 0.6-4.4 5.7-9.5 7.1-13.5 7.1z"/>
							</g>
							<g id="&lt;Group&gt;">
								<path id="&lt;Path&gt;" class="s12" d="m1584.1 940.9c-0.4 0-0.8-0.3-0.9-0.7-3.7-15.1 9.8-26.2 10.4-26.7 0.4-0.3 1-0.2 1.3 0.2 0.4 0.4 0.3 1-0.1 1.4-0.1 0.1-13.1 10.7-9.7 24.6 0.1 0.6-0.2 1.1-0.7 1.2q-0.2 0.1-0.3 0z"/>
							</g>
						</g>
						<path id="&lt;Path&gt;" class="s4" d="m1568.1 912.2c-0.1-5.1 0-8.2 0.3-9.9 0.4-1.8 4.6-1 8 2.5 3.3 3.6 5.9 0.9 9 6.2 3.2 5.2-1.8 8.9-1.8 8.9-10.3 6.7-15.4-2.7-15.5-7.7z"/>
						<g id="&lt;Group&gt;">
							<path id="&lt;Path&gt;" class="s12" d="m1585.7 925.9c-0.2 0-0.3-0.2-0.4-0.3-2.2-8.2-12.5-17.3-12.6-17.4-0.2-0.2-0.2-0.4-0.1-0.6 0.2-0.2 0.5-0.2 0.7-0.1 0.4 0.4 10.5 9.4 12.9 17.8 0 0.3-0.1 0.5-0.4 0.6q0 0-0.1 0z"/>
						</g>
					</g>
					<g id="&lt;Group&gt;">
						<g id="&lt;Group&gt;">
							<path id="&lt;Path&gt;" class="s7" d="m1714.8 983.8c6.8 17.2 1.4 30-5.1 36.4-3 3-16 11.4-25.8 9.1-7.9-1.9-22.5-14.9-25.1-25.7-2.6-11.3 4.4-19.5 15.2-20.5 12.3-1.1 15.6-4 20.2-6.5 6.7-3.6 16.7-2.8 20.6 7.2z"/>
							<g id="&lt;Group&gt;">
								<path id="&lt;Path&gt;" class="s12" d="m1681.2 991.2c-4 0-6.8-1.4-6.9-1.5-0.2-0.1-0.3-0.3-0.2-0.5 0.1-0.3 0.4-0.4 0.6-0.2 0.4 0.2 10.7 5.1 19-5.1 0.1-0.2 0.4-0.3 0.6-0.1 0.2 0.1 0.2 0.4 0 0.6-4.3 5.4-9.2 6.8-13.1 6.8z"/>
							</g>
							<g id="&lt;Group&gt;">
								<path id="&lt;Path&gt;" class="s12" d="m1684.2 990.8c-0.4 0-0.8-0.4-0.9-0.8-3.2-15.2 10.5-25.9 11.1-26.4 0.4-0.3 1-0.2 1.4 0.2 0.3 0.4 0.2 1.1-0.2 1.4-0.1 0.1-13.4 10.4-10.4 24.4 0.1 0.5-0.2 1-0.8 1.2q-0.1 0-0.2 0z"/>
							</g>
						</g>
						<path id="&lt;Path&gt;" class="s4" d="m1669 961.5c0-5 0.2-8.1 0.6-9.8 0.4-1.8 4.6-0.9 7.9 2.8 3.2 3.6 5.9 1 8.8 6.3 3 5.4-2 8.9-2 8.9-10.5 6.4-15.3-3.1-15.3-8.2z"/>
						<g id="&lt;Group&gt;">
							<path id="&lt;Path&gt;" class="s12" d="m1686.2 975.7c-0.2 0-0.3-0.1-0.4-0.3-2-8.2-12-17.6-12.1-17.7-0.2-0.2-0.2-0.4 0-0.6 0.1-0.2 0.4-0.2 0.6 0 0.4 0.4 10.3 9.7 12.4 18.1 0 0.2-0.1 0.5-0.4 0.5q0 0-0.1 0z"/>
						</g>
					</g>
					<path id="&lt;Path&gt;" class="s14" d="m1529.6 1038.4l-4.9-23.4c-1-4.4 2.4-8.5 6.9-8.5h186.9c4.6 0 8 4.3 6.8 8.8l-6.2 23.5c-0.8 3.1-3.6 5.2-6.8 5.2h-175.8c-3.3 0-6.2-2.3-6.9-5.6z"/>
				</g>
				<path id="&lt;Path&gt;" class="s15" d="m1391.7 1156.6l112.1-114.1h580.1l85.2 117.8z"/>
				<g id="&lt;Group&gt;">
					<path id="&lt;Path&gt;" class="s7" d="m2160.3 1384.9h-761.4l-7.2-228.3 777.4 3.7z"/>
					<g id="&lt;Group&gt;">
						<path id="&lt;Path&gt;" class="s12" d="m2164.7 1273.8h-770.4v-2.4h770.4z"/>
					</g>
					<g id="&lt;Group&gt;">
						<path id="&lt;Path&gt;" class="s12" d="m2162.5 1330h-765.9v-2.5h765.9z"/>
					</g>
					<g id="&lt;Group&gt;">
						<path id="&lt;Path&gt;" class="s12" d="m2167.1 1211.9h-773.7v-2.5h773.7z"/>
					</g>
				</g>
				<path id="&lt;Path&gt;" class="s7" d="m1612.2 1042.5l-14.1 114.1-21.6 4.4 26-118.5z"/>
				<path id="&lt;Path&gt;" class="s7" d="m1803.3 1042.5l26.1 126.1-21.7-4.6-14.1-121.5z"/>
				<g id="&lt;Group&gt;">
					<path id="&lt;Path&gt;" class="s16" d="m1618.5 1031.4c22.5-22.6 57.3-24.4 77.6-4 20.4 20.3 18.6 55.1-4 77.7-22.5 22.6-57.3 24.4-77.7 4-20.3-20.3-18.5-55.2 4.1-77.7z"/>
					<g id="&lt;Group&gt;">
						<path id="&lt;Path&gt;" class="s17" d="m1671.2 1016.9c-10.6 3-16.7 6.9-24.8 14.4-3.9 3.7-0.7 2.8-5.7 5.5-1.3 0.7-3 0.6-4.3 1.2q-10 0.3-15.2 10.9 0 3.6 0.1 7.1c-0.5 5-1.9 6.8-4.3 10.9q-6.1 2.7-6.6 10.4 0.9 1.9 1.1 3.9c0.5-2-1.6 22.5-3 12.2 0.3 2-2.8 2.9-3.1 0.9-0.6-4.1 0.9-6.9 1.3-11.1 0.4-3.5-1.4-9.1 0.3-12.7 1.8-3.9 6.1-5.5 8.3-9.6 3.4-6.2 1.2-11.4 3.6-17.6 4.2-10.9 17.3-5.7 24.8-13.6 2.9-3.2 3.3-6.9 7.3-9.6 5.4-3.5 13.4-4.6 19.4-6.3 2-0.6 2.8 2.6 0.8 3.1z"/>
					</g>
					<g id="&lt;Group&gt;">
						<path id="&lt;Path&gt;" class="s17" d="m1618.5 1112.4c-0.2-8.6 3.5-10.8 9.4-16.4 6.3-5.9 10.7-12.3 14.4-20.1 1.9-3.9 1.1-5 4-8.5 3.7-4.4 9.1-4.8 13.4-8 10.8-8 9.2-13.2 12.7-22.6 3.5-9.3 7.8-12.7 16.6-17.3 1.8-1 3.5 1.8 1.6 2.8-17.6 9.3-15.6 30.2-31.6 41-13.5 9.1-10.9 16.2-18 26.4-5.8 8.4-19.5 9.1-19.3 22.7 0 2.1-3.2 2.1-3.2 0z"/>
					</g>
					<g id="&lt;Group&gt;">
						<path id="&lt;Path&gt;" class="s17" d="m1698.1 1029.2c-5.1 9.7-6.2 17.4-7.1 28-0.3 3.4 0.2 6.4-1 9.8-2.6 7.5-10.3 12.1-14.4 18.8-4.5 7.4-4.3 15.7-9.5 22.5-5.8 7.6-15.8 10.3-24.5 12.8-2.1 0.6-2.9-2.5-0.9-3.1 13.5-3.8 22.3-9.7 26.7-23.9 0.8-2.5 0-5.2 0.8-7.8 1.4-4.6 4-5.7 7-9.1 4.6-5.4 11-12.2 12.6-20 0.6-3.1-0.4-6.9 0.1-10.1 1-7.1 4.1-13.2 7.4-19.5 1-1.9 3.7-0.2 2.8 1.6z"/>
					</g>
					<g id="&lt;Group&gt;">
						<path id="&lt;Path&gt;" class="s17" d="m1708.2 1048.6c-4.7 9.6-5.6 17-7.9 27-1 4.3-2.2 5.6-4.6 8.8-3.6 4.7-5.2 9.3-8.1 14.3-3.7 6.2-10.5 10.1-12 17.7-0.3 2.1-3.4 1.2-3.1-0.8 1-5.4 3.7-8 7.2-12.1 4.9-5.7 7.2-11.8 10.6-18.4 6.2-12.3 9-25.5 15.1-38.1 0.9-1.9 3.7-0.3 2.8 1.6z"/>
					</g>
					<g id="&lt;Group&gt;">
						<path id="&lt;Path&gt;" class="s17" d="m1701.5 1016.1c-4.1-0.3-8.4 0.1-9.9 5.4-0.6 2-3.7 1.1-3.1-0.9 1.7-6.1 7-8.1 13-7.7 2 0.1 2 3.3 0 3.2z"/>
					</g>
				</g>
				<g id="&lt;Group&gt;">
					<path id="&lt;Path&gt;" class="s16" d="m1722.1 1086.9c-11.9-25-3.3-54 19.3-64.7 22.5-10.7 50.4 0.9 62.3 25.9 11.9 25 3.2 54-19.3 64.7-22.6 10.7-50.5-0.9-62.3-25.9z"/>
					<g id="&lt;Group&gt;">
						<path id="&lt;Path&gt;" class="s17" d="m1725.6 1039.4c-0.5 8-2 14.7 2.3 22.2 1.6 2.9 2.8 2.1 4.2 5.4 0.8 1.8 0.3 3.8 0.8 5.5q-3.4 10.4 7.1 18.3 2.1 0.6 4.1 1.4c1.1 1.1 3 1.4 4.1 2.7 4.4 4.8 1.4 8.6 9 11.9 1.8 0.8 4.3 0.4 6.3 1.2 2.9 1.2 3 4.4 6.6 5.1 1.8 0.4 1 3.1-0.7 2.7-4.6-0.9-7.6-4.3-12.2-6.2-2.6-1-3.7-0.2-6.3-1.7-1.6-1-6.1-8.7-6.9-9.5-4.2-4.3-8.7-4.8-12.5-8.6-1.2-1.2-2.3-2.8-2.8-4.3-0.5-1.4-0.1-3.3-0.3-4.7q0.5-2.2 1-4.3 0.4-8.4-4.5-14.2c-3.1-7.8-2.7-14.1-2.1-22.9 0.1-1.8 2.9-1.8 2.8 0z"/>
					</g>
					<g id="&lt;Group&gt;">
						<path id="&lt;Path&gt;" class="s17" d="m1788.3 1110.5c-6.8-2.3-7.7-5.6-10.5-11.9-3.3-7.3-7.2-13-12.6-18.4-2.2-2.2-4-2.9-5.7-5.7-2.7-4.7-0.6-4.1-2.1-9-4.8-14.8-6-13-15.4-21.3-6.4-5.7-7.9-9.8-9.1-18.4-0.2-1.7 2.5-2.5 2.7-0.7 2.4 16.9 18.9 20.7 24.1 35.7 2.2 6.4 2.1 12.2 7.5 17.2 1.9 1.8 4.5 2.7 6.4 4.6 6.3 6.4 6.6 22.2 15.5 25.2 1.7 0.6 0.9 3.3-0.8 2.7z"/>
					</g>
					<g id="&lt;Group&gt;">
						<path id="&lt;Path&gt;" class="s17" d="m1743.4 1021c5.7 6.2 11.6 10.2 19.4 13.6 2.8 1.2 5.7 1.7 8.2 3.6 5 3.8 5 7.4 7.2 13 4.3 10.9 14.8 10.4 20.5 19 4.6 7 3.9 15.9 3.4 23.8-0.1 1.8-2.9 1.8-2.8 0 0.6-8.8-0.9-21-8.1-27.3-5.4-4.8-7.4-1.1-11.5-5.6-2.1-2.3-2.6-4.6-3.8-7.3-3.5-7.9-5.2-13.2-13.8-16.5-2.3-0.9-4.6-1.4-6.7-2.5-5.6-2.8-9.8-7.2-14-11.8-1.2-1.3 0.8-3.3 2-2z"/>
					</g>
					<g id="&lt;Group&gt;">
						<path id="&lt;Path&gt;" class="s17" d="m1762.1 1018.4c5.8 5.9 11.4 10.3 18.7 13.9 2.9 1.5 4.4 2.3 6.3 4.8 2.4 3 0.2 3.2 4.6 7.8 2.1 2.2 4.4 3.6 6.3 6.1 3.5 4.6 4.5 10.8 10.1 13.8 1.5 0.8 0.1 3.3-1.5 2.4-4.3-2.4-5.6-5.6-8-9.8-3.3-5.7-8.6-8.6-11.9-13.8-1.7-2.8-1.6-5.4-4.8-7.7 0.2 0.1-6.6-2.9-7.2-3.3-5.5-3.1-10.1-7.7-14.5-12.2-1.3-1.3 0.7-3.3 1.9-2z"/>
					</g>
					<g id="&lt;Group&gt;">
						<path id="&lt;Path&gt;" class="s17" d="m1733.8 1014.4q-2.6 4.7 1.4 9.7c1.4 1.1 0 3.5-1.5 2.4-4.5-3.2-4.6-7.9-2.6-12.8 0.6-1.6 3.3-0.9 2.7 0.7z"/>
					</g>
				</g>
				<g id="&lt;Group&gt;">
					<path id="&lt;Path&gt;" class="s18" d="m1707.5 1123.2c-8.5-30.8 7.1-62 34.8-69.6 27.7-7.7 57.1 11 65.6 41.8 8.5 30.8-7.1 61.9-34.8 69.6-27.7 7.7-57.1-11.1-65.6-41.8z"/>
					<g id="&lt;Group&gt;">
						<path id="&lt;Path&gt;" class="s17" d="m1721 1070.1c-2.8 11.2-1.3 17.8 0.5 29.5 0.7 4.8 1.2 1 1.4 6 0.1 3.9-1.9 4-2.1 8.5-0.9 31.3 3.8 10.3 10.7 19.6 1.8 2.4 11.6 18.8 12 19.1-0.5-0.4 16.2 10.9 13 9.6 1.9 0.8 1.1 3.9-0.8 3.2-17.3-6.9-23.3-21.1-34.6-34.2-7.3-8.6-5.3-11.8-4.4-23.3 0.7-9.1-2.7-12.5-2.9-20.9-0.1-5.7 2.7-12.4 4-17.9 0.5-2.1 3.6-1.2 3.2 0.8z"/>
					</g>
					<g id="&lt;Group&gt;">
						<path id="&lt;Path&gt;" class="s17" d="m1777.9 1163.1c-6.7-3.7-6.5-6.1-9.3-12.8-3.8-9.1-8.4-19.4-12.9-28.3-2.8-5.7-2.6-3.7-3.6-8.7-2.5-11.4 3.2-14.1-6.7-27.7-2.7-3.8-6.9-6.3-9.5-10.2-4.2-6.5-4.2-11.8-3.9-19.5 0-2.1 3.3-2.1 3.2 0-0.6 18.8 14.4 24.8 19.9 40.1 3.5 9.6 2.9 20.4 8.8 29.6 1.6 2.4 4.1 4 5.4 6.7 4.4 9.1-1.5 21.6 10.2 28 1.8 1 0.2 3.8-1.6 2.8z"/>
					</g>
					<g id="&lt;Group&gt;">
						<path id="&lt;Path&gt;" class="s17" d="m1744.9 1052.8c5.9 9.2 12 13.9 20.8 20 2.8 1.9 5.8 3 8 5.6 5.8 6.8 4.5 15.4 9.3 22.9 4.4 6.9 11.6 10.8 14.8 18.4 3.8 8.8 1.2 18.8-0.9 27.7-0.5 2-3.6 1.1-3.1-0.9 3.3-13.7 2.6-24.2-7.7-35-1.8-1.9-4.5-2.6-6.4-4.6-2.3-2.5-2.5-4.3-4.1-7.6-4.1-8.3-5.6-18.5-13.6-24.9-2-1.6-4.6-2.4-6.6-3.9-5.7-4.3-9.5-10.2-13.3-16.1-1.1-1.7 1.7-3.4 2.8-1.6z"/>
					</g>
					<g id="&lt;Group&gt;">
						<path id="&lt;Path&gt;" class="s17" d="m1766.7 1053.5c5.6 8.1 10.9 13.5 18.5 19.5 2.8 2.3 4.5 3.4 6.1 6.7 1.7 3.5-0.6 2.6 1.7 7.3 0.1 0 5.5 6.5 6.2 7.7 4 6.5 4.4 15.5 10.4 20.6 1.6 1.4-0.7 3.6-2.3 2.3-5.1-4.3-5.6-9.2-8.1-15.2-2.4-6.2-7-11.1-10.3-16.9-5-8.7-7.3-10-13.6-15.9-4.4-4.2-7.9-9.4-11.4-14.4-1.2-1.7 1.6-3.4 2.8-1.7z"/>
					</g>
					<g id="&lt;Group&gt;">
						<path id="&lt;Path&gt;" class="s17" d="m1735.1 1043.4c-2.2 3.4-4 7.3-0.1 11.2 1.4 1.5-0.9 3.8-2.3 2.3-4.5-4.6-3.6-10.1-0.4-15.2 1.2-1.7 4-0.1 2.8 1.7z"/>
					</g>
				</g>
				<g id="&lt;Group&gt;">
					<path id="&lt;Path&gt;" class="s19" d="m1663.6 1084.7c28.9-13.5 62.2-3.4 74.4 22.7 12.2 26.1-1.4 58.2-30.3 71.7-28.8 13.6-62.2 3.4-74.4-22.7-12.1-26 1.4-58.2 30.3-71.7z"/>
					<g id="&lt;Group&gt;">
						<path id="&lt;Path&gt;" class="s17" d="m1718.2 1089.1c-13.5-1-14.6-0.4-28.2 5-1.3 0.5-2.3 2.1-3.7 2.4 4.8-0.9-17.1 1.3-11.6-0.2q-7.8 4.5-15.7 9.1-0.8 2.4-1.8 4.8c-4.6 5.5-14.3 9.2-16.8 14.9 0.3-0.8-1.5 7.6-1.4 7.2-1.4 3.4-5.1 3.5-5.9 7.6-0.5 2.1-3.6 1.2-3.2-0.8 1.2-5.3 5.1-8.7 7.3-14 1.2-3 0.3-4.3 2.1-7.3 1.1-1.9 10-7 10.9-7.9 5-4.7 5.6-10 10-14.4 1.4-1.3 3.2-2.6 4.9-3.2 1.6-0.5 3.8 0 5.4-0.3 10.3-1.9-1.6 6.1 20.1-2.9 9.9-4 16.1-4 27.6-3.2 2.1 0.1 2.1 3.4 0 3.2z"/>
					</g>
					<g id="&lt;Group&gt;">
						<path id="&lt;Path&gt;" class="s17" d="m1636 1161c2.7-7.9 6.5-8.8 13.8-12.1 8.3-3.7 15-8.2 21.2-14.4 2.6-2.5 3.4-4.6 6.6-6.5 5.4-3.1 4.7-0.7 10.4-2.4 17.1-5.4 15-6.9 24.6-17.6 6.6-7.4 11.4-9 21.2-10.4 2-0.3 2.9 2.9 0.9 3.1-19.5 2.7-24 21.6-41.4 27.6-7.3 2.5-14 2.3-19.7 8.5-2.1 2.2-3.2 5.2-5.4 7.4-7.4 7.2-25.6 7.5-29.1 17.6-0.7 2-3.8 1.2-3.1-0.8z"/>
					</g>
					<g id="&lt;Group&gt;">
						<path id="&lt;Path&gt;" class="s17" d="m1739.3 1109.7c-7.2 6.6-11.8 13.3-15.8 22.4-1.4 3.2-1.9 6.5-4.1 9.4-4.4 5.7-8.6 5.7-15 8.2-12.8 4.9-12 16.9-22.1 23.5-8 5.2-18.4 4.4-27.4 3.8-2.1-0.2-2.1-3.4 0-3.2 9.4 0.6 21 0.2 29-5.9 12.5-9.6 1.6-10.1 9-16.5 2.8-2.4 5.2-3 8.5-4.4 9.1-3.9 15.2-5.9 19-15.8 1-2.6 1.7-5.2 3-7.7 3.2-6.5 8.3-11.3 13.6-16.1 1.5-1.4 3.8 0.9 2.3 2.3z"/>
					</g>
					<g id="&lt;Group&gt;">
						<path id="&lt;Path&gt;" class="s17" d="m1742.2 1131.4c-6.8 6.6-11.9 13-16.2 21.5-1.6 3.3-2.7 5-5.5 7.2-3.4 2.7-3.7 0.2-9 5.2-2.6 2.4-4.2 5.1-7.1 7.2-5.3 4.1-12.4 5.1-15.9 11.5-1 1.9-3.8 0.2-2.8-1.6 2.8-5 6.5-6.5 11.3-9.2 6.6-3.7 9.9-9.9 16-13.6 3.2-2 6.2-1.9 8.9-5.5-0.1 0.2 3.4-7.6 3.8-8.3 3.7-6.4 8.9-11.6 14.2-16.7 1.5-1.5 3.8 0.8 2.3 2.3z"/>
					</g>
					<g id="&lt;Group&gt;">
						<path id="&lt;Path&gt;" class="s17" d="m1746.9 1098.7q-5.3-3-11.1 1.5c-1.2 1.7-4 0.1-2.8-1.6 3.8-5.2 9.1-5.4 14.8-3 1.9 0.7 1.1 3.9-0.9 3.1z"/>
					</g>
				</g>
				<g id="&lt;Group&gt;">
					<path id="&lt;Path&gt;" class="s20" d="m1532 1094.1c-3.9 13.4-24.1 19.3-45.1 13.1-21-6.2-34.8-22.1-30.9-35.5 3.9-13.4 24.2-19.3 45.2-13.1 21 6.2 34.8 22.1 30.8 35.5z"/>
					<g id="&lt;Group&gt;">
						<path id="&lt;Path&gt;" class="s21" d="m1456.8 1070.4c12.3 0.2 26.1 5.5 37.8 8.9 11.5 3.4 24.6 7.8 35.3 12.8 0.8 0.3 0.1 1.5-0.7 1.1-3.6-1.6-14-4.1-17.8-5.2-5.5-1.7-10.3-3.1-15.6-5.3-4.5-1.8-7.3-1.8-11.5-3.1-7.2-2.2-19.7-7.7-27.5-7.9-0.9 0-0.9-1.4 0-1.3z"/>
					</g>
					<g id="&lt;Group&gt;">
						<path id="&lt;Path&gt;" class="s21" d="m1461.6 1062.4c13.5-0.4 26.1 5.9 38.6 9.8 6.9 2.1 11.9 5.3 18.6 7.6 4.7 1.7 8.9 1.3 13.3 4 0.7 0.5 0 1.7-0.7 1.2-8.5-5.5-22.9-7.1-32.2-10.7-9.7-3.7-27.1-10.9-37.6-10.5-0.9 0-0.9-1.3 0-1.4z"/>
					</g>
					<g id="&lt;Group&gt;">
						<path id="&lt;Path&gt;" class="s21" d="m1477 1056.6c5.4 0.8 9.3 4.3 14.7 5.2 3.2 0.6 6.1 0.2 9.3 1.3 4.4 1.4 8.5 3.1 13 4.1 2.9 0.7 5.2 1.8 7.6 3.5 0.7 0.5 0 1.7-0.7 1.2-4.4-3-8.3-2.8-13.1-4.1-3.2-0.8-5.9-2.3-9-3.4-4.1-1.3-8-0.5-12-1.8-3.6-1.2-6.1-4.1-10.1-4.7-0.9-0.1-0.5-1.4 0.3-1.3z"/>
					</g>
					<g id="&lt;Group&gt;">
						<path id="&lt;Path&gt;" class="s21" d="m1456.5 1080.2c5.1 0.9 9.6 1.7 14.3 3.6 5.2 2.1 10.1 3.5 15.7 5.6 4.1 1.6 7.6 3.9 11.8 5.4 5 1.9 10 1.5 15.1 2.7 4.3 1.1 7.5 2.8 11.4 5.1 0.7 0.5 0 1.6-0.7 1.2-7.1-4.2-14.2-4.3-21.8-6-5.9-1.4-10.7-4.9-16.4-6.6-10.2-3.1-19.2-7.8-29.7-9.7-0.9-0.2-0.5-1.5 0.3-1.3z"/>
					</g>
					<g id="&lt;Group&gt;">
						<path id="&lt;Path&gt;" class="s21" d="m1464.6 1093.2c3.7 0.2 7.6 0.3 11.2 1.4 4.2 1.2 7.3 3.7 11.5 4.8 4.3 1 8.3 1 12.6 2.6 4.4 1.8 8.4 4.3 13.2 5.1 0.9 0.2 0.5 1.5-0.3 1.3-3.7-0.6-6.3-1.8-9.6-3.3-5.3-2.4-9.6-2.4-15-3.5-3.4-0.7-4.9-2-7.9-3.6-4.9-2.7-10.2-3.2-15.7-3.4-0.9-0.1-0.9-1.4 0-1.4z"/>
					</g>
				</g>
				<g id="&lt;Group&gt;">
					<path id="&lt;Path&gt;" class="s22" d="m1585.6 1072.5c2.7 13.7-12.6 28.2-34.1 32.4-21.5 4.2-41-3.6-43.7-17.3-2.7-13.7 12.6-28.2 34.1-32.4 21.5-4.2 41.1 3.6 43.7 17.3z"/>
					<g id="&lt;Group&gt;">
						<path id="&lt;Path&gt;" class="s21" d="m1507.8 1086.1c11.1-5.4 25.7-7.2 37.6-9.4 11.8-2.2 25.4-4.5 37.3-5 0.9 0 0.9 1.3 0 1.4-6.8 0.3-17.6 3.6-23.8 4.7-5.5 0.9-11.4 0.8-16.9 1.9-10 2-24.2 3-33.5 7.6-0.8 0.4-1.4-0.8-0.7-1.2z"/>
					</g>
					<g id="&lt;Group&gt;">
						<path id="&lt;Path&gt;" class="s21" d="m1508.5 1076.9c10.2-5.8 22.1-6.5 33.2-8 7.2-1 12.2-2.8 18.9-3.1 7-0.3 13.3-2.7 20.3-2.4 0.8 0 0.8 1.4 0 1.4-10.9-0.6-24.7 4.5-35.5 5.8-9.9 1.1-27.5 2.5-36.3 7.4-0.7 0.5-1.4-0.7-0.6-1.1z"/>
					</g>
					<g id="&lt;Group&gt;">
						<path id="&lt;Path&gt;" class="s21" d="m1519.5 1064.6c3.1-1.1 5.5-0.7 8.7-1 5.2-0.5 9-3.3 14-4.1 4.4-0.7 8.4-0.5 12.8-1.8 3.7-1 6.5-1.5 10.5-1.2 0.9 0.1 0.9 1.5 0 1.4-5.1-0.5-8.8 1.4-13.6 2.5-3.6 0.9-7.2-0.2-10.9 0.7-3.7 0.9-6.2 3.7-10 4.3-6.8 0.9-4.3-1.8-11.2 0.5-0.8 0.3-1.1-1.1-0.3-1.3z"/>
					</g>
					<g id="&lt;Group&gt;">
						<path id="&lt;Path&gt;" class="s21" d="m1512.1 1094.9c10.2-3.1 20.5-4.3 30.9-5.6 9-1.1 16-1 24.9-4 5.5-1.9 9.3-2.2 15.1-1.9 0.9 0.1 0.9 1.4 0 1.4-8.6-0.5-14.2 2.6-22 4.7-4.8 1.2-9.1 0.4-13.9 0.9-6.3 0.6-10.9 2.6-17 2.9-6.4 0.2-11.5 1-17.6 2.9-0.9 0.3-1.2-1-0.4-1.3z"/>
					</g>
					<g id="&lt;Group&gt;">
						<path id="&lt;Path&gt;" class="s21" d="m1525.3 1102.8c3.6-1.6 7.2-3.4 11.1-4 4.1-0.7 7.8 0 11.9-1 3.5-0.8 6.5-2.5 10.1-3.1 5.5-1.1 10.9-0.2 16.4-1.9 0.8-0.3 1.2 1.1 0.3 1.3-3.5 1.1-6.4 1.1-10 1.5-5.2 0.6-10 2.8-14.9 3.8-8.5 1.6-15.8 0.7-24.2 4.6-0.8 0.3-1.5-0.8-0.7-1.2z"/>
					</g>
				</g>
				<g id="&lt;Group&gt;">
					<path id="&lt;Path&gt;" class="s23" d="m1502.1 1109.1c4.5 13.2-8.6 29.7-29.3 36.7-20.8 7.1-41.2 2.1-45.7-11.1-4.5-13.2 8.6-29.7 29.3-36.8 20.7-7.1 41.2-2.1 45.7 11.2z"/>
					<g id="&lt;Group&gt;">
						<path id="&lt;Path&gt;" class="s21" d="m1427 1133.2c10.1-6.9 24.5-10.6 35.8-14.5 11.1-3.8 24.8-7.9 36.2-10 0.9-0.2 1.2 1.1 0.4 1.3-5.9 1.1-3.9 2.3-8.3 3.6-3.8 1.3-7 0.6-11.3 2.2-6.7 2.5-13 4.2-20 6.4-4 1.2-7.5 2.4-11.7 3.5-2.8 0.8-18.6 7.4-20.4 8.6-0.8 0.5-1.4-0.7-0.7-1.1z"/>
					</g>
					<g id="&lt;Group&gt;">
						<path id="&lt;Path&gt;" class="s21" d="m1426.3 1123.9c10.6-8 24-10.1 36.3-13.8 10.9-3.3 22.1-8.9 33.6-9.4 0.9 0 0.9 1.3 0 1.4-5.1 0.2-11.1 3.7-16.3 5.1-5.4 1.5-11 3.4-16.5 5-10.2 2.9-27.9 6.4-36.4 12.9-0.7 0.5-1.4-0.7-0.7-1.2z"/>
					</g>
					<g id="&lt;Group&gt;">
						<path id="&lt;Path&gt;" class="s21" d="m1435.4 1110.3c4-2 7.6-1.9 11.8-3.2 3.6-1.2 6-3.6 9.4-4.8 4.6-1.6 9.5-2.5 14.1-4.2 3.5-1.3 5.8-1.9 9.4-2.1 0.9 0 0.9 1.3 0 1.4-5.7 0.2-8.1 2.7-13.1 4.3-3.8 1.3-8.3 1-11.9 2.8-2.2 1.1-3.8 3.2-6 4.2-4.4 1.8-8 0.3-13 2.8-0.8 0.4-1.5-0.8-0.7-1.2z"/>
					</g>
					<g id="&lt;Group&gt;">
						<path id="&lt;Path&gt;" class="s21" d="m1432.3 1141.4c10.4-4.9 20.8-7 31.8-10.2 3.5-1.1 7.4-0.7 10.9-1.7 6.6-1.8 8.5-4.5 13.9-6.9 3.9-1.7 8-2 12.2-2.4 0.9 0 0.9 1.3 0 1.4-9 0.7-13.4 4.4-21.1 7.6-4.8 2-10.3 2.7-15.2 4-10.4 2.8-22.1 4.8-31.8 9.4-0.8 0.3-1.5-0.8-0.7-1.2z"/>
					</g>
					<g id="&lt;Group&gt;">
						<path id="&lt;Path&gt;" class="s21" d="m1446.5 1147.3c3.2-2 6.4-4.2 10-5.4 3.6-1.2 7.3-0.8 10.9-1.8 4.2-1.2 7.3-4.3 11.6-5.6 5-1.4 10.2-1.5 15-3.8 0.8-0.4 1.5 0.8 0.7 1.2-3.7 1.7-7.2 2.2-11.1 3.1-5.1 1.1-8.5 3.4-13 5.5-3 1.5-4.9 1.4-8.4 1.8-5.7 0.6-10.2 3.1-15 6.2-0.7 0.4-1.4-0.7-0.7-1.2z"/>
					</g>
				</g>
				<g id="&lt;Group&gt;">
					<path id="&lt;Path&gt;" class="s20" d="m1585.7 1132.1c-3.9 13.4-24.2 19.3-45.2 13.1-21-6.2-34.8-22.1-30.9-35.5 4-13.4 24.2-19.3 45.2-13.1 21 6.2 34.8 22.1 30.9 35.5z"/>
					<g id="&lt;Group&gt;">
						<path id="&lt;Path&gt;" class="s21" d="m1510.4 1108.4c12.4 0.3 26.2 5.5 37.8 8.9 11.6 3.4 24.6 7.8 35.3 12.8 0.8 0.4 0.1 1.5-0.7 1.2-3.6-1.7-14-4.1-17.7-5.3-5.6-1.6-10.3-3-15.7-5.2-4.4-1.8-7.3-1.9-11.4-3.1-7.3-2.2-19.8-7.8-27.6-8-0.9 0-0.9-1.3 0-1.3z"/>
					</g>
					<g id="&lt;Group&gt;">
						<path id="&lt;Path&gt;" class="s21" d="m1515.2 1100.5c13.5-0.5 26.1 5.9 38.6 9.7 7 2.1 12 5.3 18.7 7.7 4.6 1.6 8.9 1.2 13.2 4 0.7 0.4 0.1 1.6-0.7 1.1-8.5-5.4-22.8-7.1-32.1-10.6-9.8-3.8-27.1-10.9-37.7-10.6-0.9 0.1-0.9-1.3 0-1.3z"/>
					</g>
					<g id="&lt;Group&gt;">
						<path id="&lt;Path&gt;" class="s21" d="m1530.7 1094.6c5.3 0.9 9.3 4.3 14.6 5.3 3.3 0.5 6.1 0.2 9.4 1.2 4.3 1.4 8.4 3.2 13 4.2 2.8 0.6 5.1 1.8 7.5 3.4 0.7 0.5 0.1 1.7-0.7 1.2-4.3-3-8.3-2.8-13.1-4-3.2-0.9-5.8-2.4-9-3.4-4.1-1.4-8-0.5-11.9-1.9-3.6-1.2-6.2-4-10.2-4.7-0.9-0.1-0.5-1.4 0.4-1.3z"/>
					</g>
					<g id="&lt;Group&gt;">
						<path id="&lt;Path&gt;" class="s21" d="m1510.2 1118.2c5.1 0.9 9.5 1.8 14.2 3.7 5.3 2.1 10.2 3.4 15.8 5.6 4.1 1.6 7.6 3.8 11.7 5.3 5.1 1.9 10.1 1.5 15.1 2.8 4.4 1 7.5 2.7 11.4 5.1 0.8 0.4 0.1 1.6-0.7 1.1-7.1-4.2-14.1-4.2-21.7-6-5.9-1.3-10.8-4.8-16.5-6.6-10.1-3-19.1-7.8-29.7-9.7-0.8-0.1-0.5-1.5 0.4-1.3z"/>
					</g>
					<g id="&lt;Group&gt;">
						<path id="&lt;Path&gt;" class="s21" d="m1518.2 1131.2c3.8 0.2 7.7 0.3 11.3 1.4 4.1 1.2 7.2 3.8 11.4 4.8 4.4 1.1 8.4 1 12.6 2.7 4.5 1.7 8.4 4.2 13.3 5.1 0.8 0.1 0.5 1.4-0.4 1.3-3.6-0.7-6.3-1.8-9.6-3.3-5.2-2.4-9.5-2.5-15-3.6-3.3-0.6-4.8-2-7.8-3.6-5-2.7-10.2-3.1-15.8-3.4-0.8 0-0.8-1.4 0-1.4z"/>
					</g>
				</g>
				<g id="&lt;Group&gt;">
					<g id="&lt;Group&gt;">
						<path id="&lt;Path&gt;" class="s19" d="m1965.1 1083.6c-8.1 14-19.8 17.3-27.8 16.3-3.7-0.4-16.5-4.7-20.3-12.7-3-6.5-2.1-23.6 4-31.3 6.3-8 15.7-7.7 22.3-0.7 7.5 7.8 11.3 8.5 15.5 10.3 6.1 2.6 11 9.9 6.3 18.1z"/>
						<g id="&lt;Group&gt;">
							<path id="&lt;Path&gt;" class="s12" d="m1953.5 1069.8c-12.2 0-14.6-10.7-14.6-10.8 0-0.2 0.1-0.4 0.3-0.5q0.1 0 0.1 0c0.2 0 0.3 0.1 0.4 0.3 0.1 0.4 2.3 10.2 13.8 10.3 0.2 0 0.4 0.1 0.4 0.3 0 0.3-0.2 0.4-0.4 0.4z"/>
						</g>
						<g id="&lt;Group&gt;">
							<path id="&lt;Path&gt;" class="s12" d="m1944.3 1066.7q-0.3 0-0.5-0.2c-0.4-0.3-0.5-0.9-0.2-1.2 8.7-10.5 23.6-6.9 24.2-6.8 0.5 0.1 0.7 0.6 0.6 1.1-0.1 0.4-0.5 0.7-1 0.6-0.2 0-14.4-3.5-22.4 6.2-0.2 0.2-0.4 0.3-0.7 0.3z"/>
						</g>
					</g>
				</g>
				<g id="&lt;Group&gt;">
					<path id="&lt;Path&gt;" class="s22" d="m1538.7 1152.4c-4.5 13.2-25 18.2-45.7 11.2-20.7-7.1-33.9-23.5-29.4-36.8 4.5-13.2 24.9-18.2 45.7-11.2 20.7 7.1 33.8 23.5 29.4 36.8z"/>
					<g id="&lt;Group&gt;">
						<path id="&lt;Path&gt;" class="s21" d="m1464.4 1125.5c12.2 0.8 25.9 6.5 37.3 10.5 11.4 4 24.3 8.8 34.8 14.2 0.8 0.4 0.1 1.6-0.7 1.2-4.1-2.2-13.3-4.6-17.5-6-5.5-1.8-10.1-3.5-15.4-5.9-4.1-1.9-7.2-2.5-11.3-3.5-8.2-2.2-18.5-8.6-27.2-9.1-0.9-0.1-0.9-1.4 0-1.4z"/>
					</g>
					<g id="&lt;Group&gt;">
						<path id="&lt;Path&gt;" class="s21" d="m1469.5 1117.8c11.8 0.1 22.4 5.4 32.9 9.6 6.3 2.5 12 4 17.9 6.7 5.9 2.7 13.3 4.2 18.8 8 0.7 0.5 0 1.7-0.7 1.2-4.7-3.3-10.9-3.9-16.1-5.9-5.8-2.1-11.9-4.3-17.6-6.7-9.4-4-24.8-11.4-35.2-11.5-0.9 0-0.9-1.4 0-1.4z"/>
					</g>
					<g id="&lt;Group&gt;">
						<path id="&lt;Path&gt;" class="s21" d="m1485.2 1112.6c4.3 0.9 7.2 3.3 11.2 4.7 3.8 1.2 7.7 0.8 11.4 2.3 4.4 1.8 8 3.8 12.8 4.9 3.3 0.7 5.8 2 8.5 4 0.7 0.5 0 1.7-0.7 1.2-4.4-3.3-8.1-3.2-13-4.6-3.3-1-5.8-3.5-9.1-4.6-3.4-1.2-7-0.1-10.4-1.1-4.1-1.4-6.6-4.6-11.1-5.5-0.8-0.2-0.5-1.5 0.4-1.3z"/>
					</g>
					<g id="&lt;Group&gt;">
						<path id="&lt;Path&gt;" class="s21" d="m1463.7 1135.3c11.2 2.5 21.1 7 31.5 11.4 7.8 3.3 13.2 6.4 21.8 7.9 5.5 1.1 9.2 2.8 14 6 0.7 0.4 0 1.6-0.7 1.1-9.6-6.3-21.8-6.6-32.2-11.8-6.1-3.1-12.1-3.7-18-7.1-5.6-3.3-10.3-4.7-16.7-6.2-0.9-0.2-0.5-1.5 0.3-1.3z"/>
					</g>
					<g id="&lt;Group&gt;">
						<path id="&lt;Path&gt;" class="s21" d="m1471.2 1148.7c3.8 0.3 7.7 0.6 11.2 1.8 4.1 1.4 7.1 4.1 11.3 5.3 4.3 1.2 8.3 1.3 12.4 3.2 4.4 1.9 8.3 4.5 13.1 5.6 0.8 0.2 0.5 1.5-0.4 1.3-3.6-0.8-6.2-2.1-9.4-3.7-5.2-2.6-9.5-2.8-14.9-4.1-3.3-0.9-4.7-2.3-7.7-4-4.8-2.9-10-3.6-15.6-4.1-0.8 0-0.8-1.4 0-1.3z"/>
					</g>
				</g>
				<g id="&lt;Group&gt;">
					<path id="&lt;Path&gt;" class="s16" d="m1984.7 1117.1c-8.1 14-19.9 17.3-27.8 16.3-3.7-0.4-16.5-4.7-20.3-12.8-3-6.4-2.1-23.6 4-31.2 6.3-8 15.7-7.7 22.3-0.8 7.5 7.9 11.3 8.5 15.5 10.4 6.1 2.6 11 9.9 6.3 18.1z"/>
					<g id="&lt;Group&gt;">
						<path id="&lt;Path&gt;" class="s12" d="m1973.1 1103.3c-12.2-0.1-14.6-10.7-14.6-10.8 0-0.2 0.1-0.4 0.3-0.5q0 0 0.1 0c0.2 0 0.3 0.1 0.4 0.3 0 0.4 2.2 10.2 13.8 10.2 0.2 0 0.4 0.2 0.4 0.4 0 0.2-0.2 0.4-0.4 0.4z"/>
					</g>
					<g id="&lt;Group&gt;">
						<path id="&lt;Path&gt;" class="s12" d="m1963.9 1100.2q-0.3 0-0.6-0.2c-0.3-0.3-0.4-0.9-0.1-1.2 8.7-10.6 23.6-7 24.2-6.8 0.4 0.1 0.7 0.6 0.6 1-0.1 0.5-0.6 0.8-1 0.7-0.2-0.1-14.5-3.5-22.4 6.1-0.2 0.3-0.5 0.4-0.7 0.4z"/>
					</g>
					<path id="&lt;Path&gt;" class="s4" d="m1974.9 1073.4c3.5-2.7 5.7-4.3 7.1-5 1.5-0.6 3.1 2.8 2.4 7-0.7 4.2 2.6 4.6 0.5 9.5-2 5-7.3 3.5-7.3 3.5-10-3.7-6.1-12.3-2.7-15z"/>
					<g id="&lt;Group&gt;">
						<path id="&lt;Path&gt;" class="s12" d="m1974.9 1093.2q-0.1 0-0.2-0.1c-0.2-0.1-0.2-0.4-0.1-0.6 4.5-5.8 5.5-17.8 5.5-18 0.1-0.2 0.2-0.3 0.4-0.3q0 0 0 0c0.3 0 0.4 0.2 0.4 0.4 0 0.5-1 12.4-5.7 18.4q-0.1 0.2-0.3 0.2z"/>
					</g>
				</g>
				<g id="&lt;Group&gt;">
					<path id="&lt;Path&gt;" class="s16" d="m1886.2 1072.4c-1.1 16.2-10.2 24.3-17.8 26.9-3.5 1.2-16.9 3-23.8-2.6-5.6-4.5-12.2-20.3-10.1-29.8 2.1-10 10.8-13.9 19.7-10.5 10.2 3.8 13.9 2.7 18.5 2.5 6.6-0.3 14.2 4.1 13.5 13.5z"/>
					<g id="&lt;Group&gt;">
						<path id="&lt;Path&gt;" class="s12" d="m1862.8 1066.8c-6.8 0-10.8-5-10.9-5-0.1-0.2-0.1-0.4 0.1-0.6 0.2-0.1 0.4-0.1 0.5 0.1 0.3 0.3 6.5 8.1 17 3.1 0.2-0.1 0.4 0 0.5 0.2 0.1 0.2 0 0.4-0.2 0.5-2.6 1.3-4.9 1.7-7 1.7z"/>
					</g>
					<g id="&lt;Group&gt;">
						<path id="&lt;Path&gt;" class="s12" d="m1859.8 1066.4q-0.1 0-0.2 0c-0.5-0.1-0.8-0.6-0.7-1 3.2-13.3 18.2-16.6 18.8-16.7 0.4-0.1 0.9 0.2 1 0.7 0.1 0.4-0.2 0.9-0.6 1-0.2 0-14.5 3.2-17.5 15.4-0.1 0.3-0.4 0.6-0.8 0.6z"/>
					</g>
					<path id="&lt;Path&gt;" class="s4" d="m1858.4 1037.4c1.9-3.9 3.2-6.3 4.2-7.6 1-1.2 4 1.1 5.2 5.2 1.2 4.1 4.3 3.1 4.6 8.4 0.3 5.4-5 6.3-5 6.3-10.7 1.1-10.9-8.3-9-12.3z"/>
					<g id="&lt;Group&gt;">
						<path id="&lt;Path&gt;" class="s12" d="m1866.8 1055.2q0 0 0 0c-0.2 0-0.4-0.2-0.3-0.4 1.5-7.3-2.9-18.5-2.9-18.6-0.1-0.2 0-0.5 0.2-0.5 0.2-0.1 0.4 0 0.5 0.2 0.2 0.5 4.5 11.6 2.9 19 0 0.2-0.2 0.3-0.4 0.3z"/>
					</g>
				</g>
				<g id="&lt;Group&gt;">
					<path id="&lt;Path&gt;" class="s18" d="m1923.6 1080c4.3 15.7-1.5 26.4-7.7 31.3-3 2.4-15 8.6-23.4 5.6-6.7-2.3-18.3-15-19.5-24.6-1.3-10.2 5.5-16.7 15.1-16.6 10.8 0.2 13.9-2.1 18.2-3.8 6.1-2.6 14.8-0.9 17.3 8.1z"/>
					<g id="&lt;Group&gt;">
						<path id="&lt;Path&gt;" class="s12" d="m1895 1083.5c-4.2 0-7.2-1.9-7.3-1.9-0.2-0.2-0.2-0.4-0.1-0.6 0.1-0.1 0.3-0.2 0.5-0.1 0.4 0.2 8.9 5.5 17-2.7 0.2-0.2 0.4-0.2 0.6-0.1 0.1 0.2 0.1 0.4 0 0.6-3.7 3.7-7.5 4.8-10.7 4.8z"/>
					</g>
					<g id="&lt;Group&gt;">
						<path id="&lt;Path&gt;" class="s12" d="m1896.4 1083.3c-0.5 0-0.8-0.3-0.9-0.7-1.4-13.6 11.5-21.7 12.1-22 0.4-0.3 0.9-0.1 1.2 0.2 0.2 0.5 0.1 1-0.3 1.2-0.2 0.1-12.6 7.9-11.3 20.4 0.1 0.5-0.3 0.9-0.7 0.9q-0.1 0-0.1 0z"/>
					</g>
					<path id="&lt;Path&gt;" class="s4" d="m1885.6 1056.5c0.5-4.4 0.9-7.1 1.4-8.6 0.5-1.5 4.1-0.3 6.6 3.2 2.5 3.4 5.1 1.4 7.2 6.3 2.1 4.9-2.6 7.6-2.6 7.6-9.7 4.6-13.1-4.2-12.6-8.5z"/>
					<g id="&lt;Group&gt;">
						<path id="&lt;Path&gt;" class="s12" d="m1899.4 1070.4c-0.2 0-0.3-0.1-0.4-0.3-1-7.3-8.9-16.5-9-16.6-0.1-0.1-0.1-0.4 0.1-0.5 0.1-0.2 0.4-0.1 0.5 0 0.3 0.4 8.1 9.4 9.2 17 0 0.2-0.1 0.4-0.3 0.4q-0.1 0-0.1 0z"/>
					</g>
				</g>
				<g id="&lt;Group&gt;">
					<g id="&lt;Group&gt;">
						<path id="&lt;Path&gt;" class="s19" d="m1884.6 1117.4c-8.1 14.1-19.8 17.4-27.7 16.4-3.7-0.5-16.6-4.7-20.3-12.8-3.1-6.4-2.1-23.6 3.9-31.2 6.3-8 15.7-7.7 22.4-0.8 7.4 7.9 11.2 8.5 15.5 10.3 6 2.7 10.9 10 6.2 18.1z"/>
						<g id="&lt;Group&gt;">
							<path id="&lt;Path&gt;" class="s12" d="m1873 1103.7c-12.2-0.1-14.5-10.8-14.6-10.9 0-0.2 0.1-0.4 0.3-0.4 0.2-0.1 0.4 0.1 0.5 0.3 0.1 0.4 2.3 10.1 13.8 10.2 0.3 0 0.4 0.2 0.4 0.4 0 0.2-0.1 0.4-0.4 0.4z"/>
						</g>
						<g id="&lt;Group&gt;">
							<path id="&lt;Path&gt;" class="s12" d="m1863.8 1100.5q-0.3 0-0.5-0.2c-0.4-0.3-0.4-0.8-0.1-1.2 8.6-10.5 23.5-6.9 24.1-6.7 0.5 0.1 0.8 0.6 0.6 1-0.1 0.5-0.5 0.8-1 0.6-0.1 0-14.4-3.4-22.4 6.2-0.2 0.2-0.4 0.3-0.7 0.3z"/>
						</g>
					</g>
				</g>
				<g id="&lt;Group&gt;">
					<g id="&lt;Group&gt;">
						<path id="&lt;Path&gt;" class="s19" d="m1942.3 1106.1c8.2 14 5.3 25.8 0.6 32.3-2.2 3-12.3 12.1-21.1 11.4-7.1-0.5-21.6-9.7-25.3-18.8-3.8-9.4 1.1-17.5 10.3-19.8 10.5-2.7 13-5.7 16.6-8.5 5.3-4 14.1-4.7 18.9 3.4z"/>
						<g id="&lt;Group&gt;">
							<path id="&lt;Path&gt;" class="s12" d="m1911.7 1117.3c-2.2 0-3.7-0.4-3.7-0.4-0.2-0.1-0.3-0.3-0.3-0.5 0.1-0.2 0.3-0.3 0.5-0.2 0.4 0.1 10 2.9 15.7-7.1 0.1-0.2 0.4-0.3 0.6-0.2 0.1 0.2 0.2 0.4 0.1 0.6-3.8 6.6-9.3 7.8-12.9 7.8z"/>
						</g>
						<g id="&lt;Group&gt;">
							<path id="&lt;Path&gt;" class="s12" d="m1916.6 1116.4c-0.4 0-0.7-0.2-0.8-0.6-4.9-12.7 5.5-23.9 6-24.3 0.3-0.4 0.8-0.4 1.2-0.1 0.3 0.4 0.3 0.9 0 1.3-0.1 0.1-10.1 10.8-5.6 22.5 0.2 0.5-0.1 1-0.5 1.1q-0.2 0.1-0.3 0.1z"/>
						</g>
					</g>
				</g>
				<g id="&lt;Group&gt;">
					<g id="&lt;Group&gt;">
						<path id="&lt;Path&gt;" class="s19" d="m2003.8 1140.8c-1.7 16.2-11.1 24-18.7 26.3-3.6 1.1-17.1 2.4-23.8-3.4-5.3-4.6-11.5-20.7-9.1-30.1 2.5-9.9 11.2-13.5 20.1-9.8 10 4.1 13.8 3.1 18.4 3.1 6.6-0.1 14 4.6 13.1 13.9z"/>
						<g id="&lt;Group&gt;">
							<path id="&lt;Path&gt;" class="s12" d="m1981 1134.5c-7.1 0-11.1-5.4-11.2-5.4-0.1-0.2-0.1-0.4 0.1-0.6 0.2-0.1 0.4-0.1 0.6 0.1 0.2 0.3 6.1 8.3 16.8 3.7 0.2-0.1 0.4 0 0.5 0.2 0.1 0.2 0 0.4-0.2 0.5-2.5 1.1-4.7 1.5-6.6 1.5z"/>
						</g>
						<g id="&lt;Group&gt;">
							<path id="&lt;Path&gt;" class="s12" d="m1977.5 1134q-0.1 0-0.2-0.1c-0.4-0.1-0.7-0.6-0.6-1 3.7-13.2 18.7-15.9 19.3-16q0.1-0.1 0.2-0.1c0.4 0 0.7 0.3 0.8 0.8 0.1 0.4-0.2 0.9-0.7 0.9-0.1 0.1-14.6 2.7-17.9 14.8-0.1 0.4-0.5 0.7-0.9 0.7z"/>
						</g>
					</g>
				</g>
				<g id="&lt;Group&gt;">
					<path id="&lt;Path&gt;" class="s16" d="m1973.8 1145.2c-9.2 16-22.6 19.8-31.6 18.6-4.3-0.5-18.9-5.4-23.2-14.5-3.4-7.4-2.4-26.9 4.5-35.7 7.2-9.1 18-8.7 25.5-0.8 8.5 8.9 12.8 9.7 17.7 11.8 6.9 2.9 12.5 11.3 7.1 20.6z"/>
					<g id="&lt;Group&gt;">
						<path id="&lt;Path&gt;" class="s12" d="m1960.6 1129.5c-13.9-0.1-16.6-12.2-16.6-12.4-0.1-0.2 0.1-0.4 0.3-0.5q0 0 0.1 0c0.2 0 0.4 0.2 0.4 0.4 0.1 0.4 2.6 11.5 15.8 11.6 0.3 0 0.4 0.2 0.4 0.5 0 0.2-0.2 0.4-0.4 0.4z"/>
					</g>
					<g id="&lt;Group&gt;">
						<path id="&lt;Path&gt;" class="s12" d="m1950.1 1125.9q-0.3 0-0.6-0.2c-0.4-0.3-0.5-1-0.1-1.4 9.8-12 26.8-7.9 27.5-7.7 0.5 0.1 0.8 0.7 0.7 1.2-0.1 0.5-0.7 0.8-1.2 0.7-0.2 0-16.4-3.9-25.5 7.1-0.2 0.2-0.5 0.3-0.8 0.3z"/>
					</g>
					<path id="&lt;Path&gt;" class="s4" d="m1962.7 1095.4c4-3.1 6.4-4.9 8.1-5.7 1.6-0.7 3.5 3.1 2.7 7.9-0.8 4.8 2.9 5.3 0.6 11-2.4 5.6-8.3 3.9-8.3 3.9-11.5-4.2-7-14-3.1-17.1z"/>
					<g id="&lt;Group&gt;">
						<path id="&lt;Path&gt;" class="s12" d="m1962.7 1117.9q-0.2 0-0.3-0.1c-0.2-0.1-0.2-0.4-0.1-0.6 5.2-6.7 6.3-20.4 6.3-20.5 0-0.2 0.2-0.4 0.5-0.4q0 0 0 0c0.2 0 0.4 0.2 0.4 0.5-0.1 0.5-1.2 14.1-6.5 21q-0.1 0.1-0.3 0.1z"/>
					</g>
				</g>
				<g id="&lt;Group&gt;">
					<path id="&lt;Path&gt;" class="s16" d="m1880.1 1152.9c-8.1 14.1-19.9 17.4-27.8 16.4-3.7-0.5-16.5-4.8-20.3-12.8-3-6.4-2.1-23.6 4-31.2 6.3-8 15.7-7.7 22.3-0.8 7.5 7.8 11.3 8.5 15.5 10.3 6.1 2.6 11 10 6.3 18.1z"/>
					<g id="&lt;Group&gt;">
						<path id="&lt;Path&gt;" class="s12" d="m1868.5 1139.2c-12.2-0.1-14.6-10.8-14.6-10.9 0-0.2 0.1-0.4 0.3-0.4 0.2-0.1 0.4 0 0.5 0.3 0 0.4 2.3 10.1 13.8 10.2 0.2 0 0.4 0.2 0.4 0.4 0 0.2-0.2 0.4-0.4 0.4z"/>
					</g>
					<g id="&lt;Group&gt;">
						<path id="&lt;Path&gt;" class="s12" d="m1859.3 1136q-0.3 0-0.6-0.2c-0.3-0.3-0.4-0.8-0.1-1.2 8.7-10.5 23.6-6.9 24.2-6.7 0.5 0.1 0.7 0.5 0.6 1-0.1 0.5-0.5 0.8-1 0.6-0.2 0-14.5-3.5-22.4 6.2-0.2 0.2-0.5 0.3-0.7 0.3z"/>
					</g>
					<path id="&lt;Path&gt;" class="s4" d="m1870.3 1109.3c3.5-2.7 5.7-4.3 7.1-5 1.5-0.7 3.1 2.7 2.4 6.9-0.7 4.2 2.6 4.6 0.5 9.6-2 5-7.3 3.4-7.3 3.4-10-3.6-6.1-12.2-2.7-14.9z"/>
					<g id="&lt;Group&gt;">
						<path id="&lt;Path&gt;" class="s12" d="m1870.3 1129q-0.1 0-0.2-0.1c-0.2-0.1-0.2-0.3-0.1-0.5 4.5-5.9 5.5-17.9 5.5-18 0.1-0.2 0.2-0.4 0.4-0.4q0 0 0 0c0.3 0 0.4 0.2 0.4 0.4 0 0.5-1 12.4-5.7 18.5q-0.1 0.1-0.3 0.1z"/>
					</g>
				</g>
				<g id="&lt;Group&gt;">
					<path id="&lt;Path&gt;" class="s18" d="m1915.7 1130c4.4 15.7-1.5 26.4-7.7 31.3-2.9 2.4-15 8.6-23.3 5.6-6.7-2.3-18.3-15-19.6-24.6-1.3-10.1 5.5-16.7 15.1-16.6 10.8 0.2 14-2.1 18.2-3.8 6.1-2.5 14.8-0.9 17.3 8.1z"/>
					<g id="&lt;Group&gt;">
						<path id="&lt;Path&gt;" class="s12" d="m1887.2 1133.5c-4.2 0-7.3-1.9-7.4-1.9-0.1-0.2-0.2-0.4-0.1-0.6 0.1-0.1 0.4-0.2 0.6-0.1 0.3 0.2 8.8 5.5 17-2.7 0.1-0.2 0.4-0.2 0.5 0 0.2 0.1 0.2 0.4 0 0.5-3.7 3.7-7.5 4.8-10.6 4.8z"/>
					</g>
					<g id="&lt;Group&gt;">
						<path id="&lt;Path&gt;" class="s12" d="m1888.5 1133.4c-0.4 0-0.8-0.4-0.8-0.8-1.5-13.6 11.5-21.7 12-22 0.4-0.3 1-0.1 1.2 0.3 0.2 0.4 0.1 0.9-0.3 1.1-0.1 0.1-12.6 7.9-11.2 20.4 0 0.5-0.3 0.9-0.8 1q-0.1 0-0.1 0z"/>
					</g>
					<path id="&lt;Path&gt;" class="s4" d="m1877.7 1106.5c0.5-4.4 0.9-7.1 1.4-8.6 0.6-1.5 4.2-0.3 6.7 3.2 2.5 3.4 5 1.4 7.1 6.3 2.2 4.9-2.6 7.6-2.6 7.6-9.7 4.7-13-4.1-12.6-8.5z"/>
					<g id="&lt;Group&gt;">
						<path id="&lt;Path&gt;" class="s12" d="m1891.6 1120.4c-0.2 0-0.4-0.1-0.4-0.3-1-7.3-8.9-16.5-9-16.5-0.2-0.2-0.2-0.4 0-0.6 0.2-0.1 0.4-0.1 0.6 0.1 0.3 0.3 8.1 9.3 9.1 16.9 0.1 0.2-0.1 0.4-0.3 0.4q0 0 0 0z"/>
					</g>
				</g>
				<path id="&lt;Path&gt;" class="s7" d="m2167.2 1209.4l-773.8-0.1-1.7-52.7 776.8 3.7z"/>
			</g>
			<g id="&lt;Group&gt;">
				<path id="&lt;Path&gt;" class="s24" d="m1997.9 792.1c0 0 13.5-11.6 25.5-9.8 11.9 1.7 18.9 10.6 18.2 16.9-0.6 6.4-43.7-7.1-43.7-7.1z"/>
				<path id="&lt;Path&gt;" class="s7" d="m1964.8 813.3c2-20.2 20.3-26.7 53.3-20.7 27.9 5 50.9 10.2 49 30.4-2 20.2-26.4 34.4-54.6 31.7-28.3-2.7-49.6-21.2-47.7-41.4z"/>
				<path id="&lt;Path&gt;" class="s8" d="m1985.1 1004.3c0 0-32.8 52.3-57.8 39.8-16-8-30.8-28.2-30.8-47 0.2-41.1 58-82.4 59.4-83.3z"/>
				<path id="&lt;Path&gt;" class="s12" d="m2008.9 1462.7c6.2 0.1 13-3.4 13-3.4 0 0 6.5 29 0 34.8-5.9 5.3-13.3 1.9-21.2 1.9-7.9 0-35.9 3.3-41.9-1.9-10.3-9.1 17.4-12.7 27-16.7 9.5-4 9.9-18.1 9.9-18.1 0 0 4.4 3.1 13.2 3.4z"/>
				<path id="&lt;Path&gt;" class="s12" d="m2118.8 1462.7c6.1 0.1 13-3.4 13-3.4 0 0 6.4 29 0 34.8-5.9 5.3-13.3 1.9-21.2 1.9-7.9 0-36 3.3-41.9-1.9-10.4-9.1 17.4-12.7 26.9-16.7 9.6-4 9.9-18.1 9.9-18.1 0 0 4.5 3.1 13.3 3.4z"/>
				<path id="&lt;Path&gt;" class="s3" d="m2018.4 1089.4l4.7 88.3 19.2 268.1c1.1 15.6-11.3 28.8-26.5 28.1l-7.6-0.3c-14.1-0.5-26-10.9-28.9-25.1-7.9-39.6-24-122.3-37.6-204.3-18.9-113.7-17.2-149.7-17.2-149.7z"/>
				<path id="&lt;Path&gt;" class="s3" d="m2068.9 1095c3.7 1 20.8 14.1 21.7 18l60 338.5c2.8 15.2-8.8 29.2-23.9 29l-6.4-0.1c-14.7-0.3-27.6-10.1-32-24.4l-106.5-342.4c-1.9-14.1 67.1-24.4 87.1-18.6z"/>
				<path id="&lt;Path&gt;" class="s25" d="m2085.1 1036.1c-2.9 28 3.2 67.8 3.2 67.8-96.8-42.3-163.8-9.4-163.8-9.4 26.4-141.2 41.1-204.4 91.6-206.2 50.4-1.8 64.6 38 64.6 38 13.1 34.4 8.5 69.4 4.4 109.8z"/>
				<path id="&lt;Path&gt;" class="s25" d="m2116.2 923.9l-35.8 22.9c0 0-91.9 9.3-116.3 4.8-24.4-4.4-28.2-22.4-28.2-22.4 0 0 23.2-31.8 67.4-39.7 4.1-0.8 8.3-0.9 12.8-1.2 7.5-0.6 15-0.3 22.3 0.5 43.6 4.7 77.8 35.1 77.8 35.1z"/>
				<g id="&lt;Group&gt;">
					<path id="&lt;Path&gt;" class="s26" d="m2029.4 1266.6l-22.9-69.6c-5.1-15.7-15.7-28.8-29.8-36.9l0.9-1.5c14.5 8.3 25.3 21.7 30.6 37.8l22.9 69.7z"/>
				</g>
				<g id="&lt;Group&gt;">
					<path id="&lt;Path&gt;" class="s12" d="m1981.5 879.4c-0.3-0.1-6.8-1.7-8.7-6.3-1.1-2.5-0.6-5.3 1.3-8.5q1.3-2.1 2.4-3.8c5.1-8.1 6.8-10.8 5.5-17.1l0.5-0.1c1.4 6.5-0.5 9.5-5.5 17.5q-1.1 1.7-2.4 3.8c-1.8 3-2.2 5.7-1.3 7.9 1.8 4.4 8.2 6 8.3 6z"/>
				</g>
				<path id="&lt;Path&gt;" class="s12" d="m2011.6 879.7c-11.6 6.4-15.1-5.1-24.2-1.1-9 4.1-16.3-3.6-9.6-14.2 6.7-10.6 4.4-20.8 4.4-20.8 0 0 41 29.7 29.4 36.1z"/>
				<path id="&lt;Path&gt;" class="s8" d="m2036 888.4c-5.4 8.6-20.2 15.9-29.5 12.9-7.8-2.5-5.2-8.7-3.3-11.8h0.1c3.5-0.7 6-3.8 5.8-7.4l-0.3-4.4-1.2-15.5-1.8-25.7 10.7 24.8 1.8 4.2 6.2 14.6c2 4.6 6.4 7.8 11.4 8.3q0 0 0.1 0z"/>
				<path id="&lt;Path&gt;" class="s27" d="m2018.3 865.1q0 0.2 0 0.4c-0.6 8.3-9.5 12.2-9.5 12.2l-1.2-15.5c2.8-1 6.6-2 8.9-0.9 1.1 0.6 1.9 1.8 1.8 3.8z"/>
				<path id="&lt;Path&gt;" class="s8" d="m1980.5 840.6c0-16.4 10.8-29.8 24.1-29.8 13.4 0 24.2 13.4 24.2 29.8 0 16.5-10.8 29.8-24.2 29.8-13.3 0-24.1-13.3-24.1-29.8z"/>
				<path id="&lt;Path&gt;" class="s8" d="m2025.5 845.1c-2.7 2.6-6.5 2.9-8.5 0.6-2-2.3-1.4-6.2 1.4-8.8 2.7-2.7 6.5-2.9 8.5-0.6 2 2.2 1.4 6.2-1.4 8.8z"/>
				<path id="&lt;Path&gt;" class="s28" d="m1991.6 859.9c0 0 8.3 0.2 16.5-2.7 0 0 0.7 8.1-8.2 8.7-5.2 0.3-8.3-6-8.3-6z"/>
				<path id="&lt;Path&gt;" class="s29" d="m2008.1 857.2c0 0-5.2 4.3-9.8 4.4-4.7 0-6.7-1.7-6.7-1.7 6.6 0 16.5-2.7 16.5-2.7z"/>
				<g id="&lt;Group&gt;">
					<path id="&lt;Path&gt;" class="s30" d="m2002.3 840.9q-0.3-0.1-0.4-0.3c-0.1-0.3 0.1-0.6 0.3-0.7 0.2-0.1 3.9-2 7.1 1.6 0.2 0.2 0.2 0.5 0 0.7-0.2 0.3-0.5 0.2-0.8 0-2.5-1.7-5.7-1.4-5.9-1.3q-0.1 0.1-0.3 0z"/>
				</g>
				<path id="&lt;Path&gt;" class="s30" d="m2009 846.7c0 1.3-0.7 2.4-1.6 2.4-1 0.1-1.8-1-1.8-2.3-0.1-1.3 0.7-2.4 1.6-2.4 1 0 1.8 1 1.8 2.3z"/>
				<g id="&lt;Group&gt;">
					<path id="&lt;Path&gt;" class="s30" d="m1982.7 843.8q-0.3 0-0.5-0.2c-0.2-0.2-0.2-0.5 0.1-0.8 0.1-0.1 2.8-3.2 7.1-1.2 0.3 0.1 0.4 0.5 0.3 0.7-0.1 0.3-0.4 0.4-0.7 0.3-3-0.6-5.9 0.9-6 1q-0.1 0.2-0.3 0.2z"/>
				</g>
				<path id="&lt;Path&gt;" class="s30" d="m1990.9 847.7c0.5 1.2 0.2 2.5-0.6 2.9-0.9 0.4-2-0.3-2.6-1.5-0.5-1.2-0.2-2.5 0.6-2.8 0.9-0.4 2 0.2 2.6 1.4z"/>
				<path id="&lt;Path&gt;" class="s12" d="m1980.7 836.3c0 0-15.7-34.2 27.1-35.7 25.8-0.9 28.9 12.1 34.2 24.5 3.4 8.3 10.8 15.7 15.4 20.8 11.4 12.9 8.4 35-8.2 31.8-16.5-3.2-13.3 10.7-28.6 3.2-15.3-7.4 5.5-26.7 7.3-36 1.7-9.3-7.2-14.8-20.1-16.6-12.9-1.7-13.4-12.1-13.4-12.1 0 11.5-13.7 20.1-13.7 20.1z"/>
				<g id="&lt;Group&gt;">
					<path id="&lt;Path&gt;" class="s29" d="m2025 882.9c-3.2-1.3-5.2-3.3-5.9-5.8-1.8-6.9 6.2-17.4 13.4-26.7 1.8-2.4 3.6-4.7 5.2-6.9 4.3-6 4.6-13.1 1-18.6-4.1-6.2-11.9-8.8-20.3-6.8-16.2 3.7-22.9-6-23-6.1l0.3-0.2c0 0.1 6.7 9.7 22.6 6 8.6-2 16.5 0.6 20.7 6.9 3.7 5.6 3.3 12.9-1 19-1.6 2.2-3.4 4.5-5.3 7-7 9.1-15.1 19.5-13.2 26.3 0.6 2.4 2.5 4.2 5.7 5.5z"/>
				</g>
				<g id="&lt;Group&gt;">
					<path id="&lt;Compound Path&gt;" fill-rule="evenodd" class="s7" d="m1981.8 862.8c-3.6-1.3-6.8-5.3-8.5-10.7-2.8-8.7-0.8-18.5 4.3-21.7 2-1.2 4.2-1.4 6.3-0.6 3.6 1.3 6.8 5.3 8.5 10.7 2.8 8.7 0.9 18.5-4.3 21.7q-1.8 1.1-3.7 1.1-1.3 0-2.6-0.5zm9.6-22c-1.6-5-4.5-8.8-7.9-10-1.8-0.7-3.7-0.5-5.3 0.5-4.8 3-6.5 12.2-3.9 20.5 1.6 5.1 4.6 8.8 7.9 10 1.8 0.7 3.7 0.5 5.3-0.5 4.8-3 6.6-12.2 3.9-20.5z"/>
				</g>
				<path id="&lt;Path&gt;" class="s31" d="m2020.4 834.8c1.9 8.5-1.2 17.7-7 20.4-5.7 2.8-11.9-1.9-13.9-10.4-1.9-8.5 1.2-17.6 6.9-20.4 5.8-2.8 12 1.9 14 10.4z"/>
				<path id="&lt;Path&gt;" class="s31" d="m1992.7 841.2c1.9 8.6-0.7 17.8-5.8 20.7-5.1 2.9-10.9-1.7-12.8-10.2-2-8.6 0.6-17.9 5.8-20.7 5.1-2.9 10.8 1.7 12.8 10.2z"/>
				<g id="&lt;Group&gt;">
					<path id="&lt;Compound Path&gt;" fill-rule="evenodd" class="s7" d="m2005.4 855.3c-3.7-1.8-6.5-5.8-7.8-11.1-2.1-9.1 1.4-18.9 7.7-21.9 2.6-1.2 5.3-1.2 7.8 0 3.8 1.8 6.6 5.9 7.8 11.2 2.1 9.1-1.3 18.9-7.7 21.9q-1.9 0.9-3.8 0.9-2 0-4-1zm0.4-32.1c-5.9 2.8-9.1 12.1-7.1 20.7 1.1 4.9 3.8 8.8 7.2 10.5 2.2 1 4.6 1 6.9 0 5.9-2.8 9.1-12 7.1-20.7-1.2-4.9-3.9-8.8-7.2-10.4q-1.8-0.8-3.5-0.8-1.8 0-3.4 0.7z"/>
				</g>
				<g id="&lt;Group&gt;">
					<path id="&lt;Path&gt;" class="s32" d="m1990.8 844c-0.4-0.4-0.3-1 0.1-1.4 0.1-0.1 3.4-2.8 8.8-1.7 0.6 0.1 0.9 0.6 0.8 1.2-0.1 0.5-0.6 0.9-1.1 0.8-4.5-0.9-7.1 1.2-7.2 1.3q-0.3 0.2-0.7 0.2c-0.3 0-0.5-0.1-0.7-0.4z"/>
				</g>
				<path id="&lt;Path&gt;" class="s12" d="m2116.7 924.7c1.2 3.6-8.1 10.4-20.9 15.1-12.8 4.7-24.2 5.6-25.4 2-1.2-3.6 8.1-10.3 20.9-15 12.8-4.8 24.1-5.7 25.4-2.1z"/>
				<path id="&lt;Path&gt;" class="s33" d="m2057.6 892.5c-21.6 24.8-19.7 53.7-19.7 53.7l-14.9-5.3c7.1-37.8 22.9-51.1 22.9-51.1 5.7-1.8 11.7 2.7 11.7 2.7z"/>
				<path id="&lt;Path&gt;" class="s33" d="m1987.4 893.5c0 0-4.9 8.5-5.5 37l-8.6 0.4c0 0-2.8-22.3 4.1-33.7 0 0 2.7-4.8 10-3.7z"/>
				<path id="&lt;Path&gt;" class="s3" d="m1924.5 1094.5c-4.4-38.4 17.7-108.9 34.3-149 5.5-13.5 17.6-23 31.8-19.9l40.3 9.1c9 2 16.3 8.5 19.4 17.2l35.8 74.2 4.5 86.9c0 0-160 33.7-166.1-18.5z"/>
				<g id="&lt;Group&gt;">
					<path id="&lt;Path&gt;" class="s12" d="m2027.3 956.7c-3.5 0-7.5-2.1-6.8-6.1 0.6-3.5 3.3-6.6 6.8-6.7 4.9-0.1 6.4 2.9 6.4 6.4 0 4.2-2.9 6.4-6.4 6.4z"/>
					<path id="&lt;Path&gt;" class="s33" d="m2027.2 955.7c-2.9 0-6.3-1.8-5.7-5.2 0.5-2.9 2.8-5.5 5.7-5.6 4.2-0.1 5.4 2.4 5.4 5.4 0 3.6-2.4 5.4-5.4 5.4z"/>
					<path id="&lt;Path&gt;" class="s12" d="m2029.4 950.9c-0.5 0-1.2-0.4-1.1-1.1 0.1-0.6 0.6-1.1 1.1-1.1 0.9 0 1.1 0.5 1.1 1.1 0 0.7-0.5 1.1-1.1 1.1z"/>
					<path id="&lt;Path&gt;" class="s12" d="m2024.7 951.9c-0.6 0-1.3-0.3-1.1-1 0.1-0.6 0.5-1.1 1.1-1.1 0.8 0 1.1 0.5 1.1 1.1 0 0.7-0.5 1-1.1 1z"/>
				</g>
				<g id="&lt;Group&gt;">
					<path id="&lt;Path&gt;" class="s12" d="m1979.2 947.2c-3.6 0-7.6-2.1-6.9-6.1 0.7-3.5 3.3-6.6 6.9-6.7 4.9-0.1 6.3 2.9 6.3 6.4 0 4.2-2.8 6.4-6.3 6.4z"/>
					<path id="&lt;Path&gt;" class="s33" d="m1979.1 946.2c-3 0-6.3-1.8-5.7-5.2 0.5-2.9 2.7-5.5 5.7-5.6 4.2-0.1 5.4 2.4 5.4 5.4 0 3.6-2.4 5.4-5.4 5.4z"/>
					<path id="&lt;Path&gt;" class="s12" d="m1981.3 941.3c-0.6 0-1.3-0.3-1.1-1 0.1-0.6 0.5-1.1 1.1-1.1 0.8 0 1.1 0.5 1.1 1.1 0 0.7-0.5 1-1.1 1z"/>
					<path id="&lt;Path&gt;" class="s12" d="m1976.6 942.4c-0.6 0-1.3-0.3-1.2-1 0.1-0.6 0.6-1.1 1.2-1.1 0.8-0.1 1 0.4 1 1 0 0.7-0.4 1.1-1 1.1z"/>
				</g>
				<g id="&lt;Group&gt;">
					<path id="&lt;Path&gt;" class="s8" d="m2029 1049.4l-0.5-26.2c0-3.5 2.7-6.5 6.3-6.8 18.1-1.3 30.8-6.9 37.7-16.7 9.7-13.7 8.7-34.9 6-49.6-1.4-7.5 1.1-12.6 10.2-17.4 0 0 7.8-4.3 17.4-5.9 3.9-0.7 7.7 0.9 8.7 4.7 1.5 5.9 3.6 15.1 4.5 26 2.3 25.8-2.7 48.2-14.3 64.8-14.4 20.5-37.5 31.8-68.8 33.7-3.9 0.2-7.2-2.8-7.2-6.6z"/>
				</g>
				<g id="&lt;Group&gt;">
					<path id="&lt;Compound Path&gt;" fill-rule="evenodd" class="s34" d="m2095.6 1015.1c-1.2 0-2.3-0.4-3.1-1-2.7-2.2-2.3-7 0.8-10.9 1.8-2.2 4.3-3.7 6.6-4 1.5-0.2 2.8 0.2 3.8 1 2.6 2.1 2.3 7-0.8 10.8-1.8 2.3-4.3 3.8-6.6 4q-0.4 0.1-0.7 0.1zm5-15.1q-0.3 0-0.6 0.1c-2.1 0.2-4.4 1.6-6.1 3.7-2.7 3.4-3.1 7.7-0.9 9.6 0.9 0.6 2 0.9 3.2 0.8 2.1-0.3 4.3-1.6 6-3.8 2.8-3.4 3.2-7.7 0.9-9.5-0.7-0.6-1.5-0.9-2.5-0.9z"/>
				</g>
				<g id="&lt;Group&gt;">
					<g id="&lt;Group&gt;">
						<g id="&lt;Group&gt;">
							<path id="&lt;Path&gt;" class="s1" d="m1930.3 971.6c0 0-77.4-99.3-49.9-119.1 27.5-19.8 37.3 77.9 60.7 106.1z"/>
							<g id="&lt;Group&gt;">
								<path id="&lt;Path&gt;" class="s2" d="m1930.3 968.3c0 0-48-98.5-17.9-114.4 30.1-15.8 16 75.2 30.9 103.3z"/>
								<g id="&lt;Group&gt;">
									<path id="&lt;Path&gt;" class="s3" d="m1936.9 962.6c-10.8-19.4-15.8-43.8-18.1-60.9-2.5-18.6-2.4-32.7-2.4-32.9h0.8c0 0.2 0 14.3 2.5 32.8 2.3 17 7.2 41.3 17.9 60.6z"/>
								</g>
							</g>
							<g id="&lt;Group&gt;">
								<path id="&lt;Path&gt;" class="s2" d="m1915.3 980.9c-19.9-22.2-104.8-39-81.1-60.5 23.6-21.5 95 52.5 95 52.5z"/>
								<g id="&lt;Group&gt;">
									<path id="&lt;Path&gt;" class="s3" d="m1921.5 977.5c-13.5-15.6-33.4-27.9-47.7-35.4-15.4-8.1-27.9-12.6-28-12.6l0.3-0.8c0.1 0 12.6 4.5 28.1 12.7 14.4 7.5 34.3 19.8 47.9 35.5z"/>
								</g>
							</g>
						</g>
					</g>
					<path id="&lt;Path&gt;" class="s7" d="m2007.9 1100.6c-14.6-14-105.9-95.6-104.1-111.3 1.9-15.8 34.6-47.7 54.9-38.9 20.3 8.9 74.8 133 74.8 133 4.9 12.2-9.7 32.4-25.6 17.2z"/>
					<g id="&lt;Group&gt;">
						<path id="&lt;Path&gt;" class="s35" d="m1946.1 988.8c-0.3 0-0.6-0.2-0.7-0.5-0.2-0.4 0-0.9 0.4-1 8.1-3.1 16.2-13 16.3-13.1 0.2-0.3 0.7-0.4 1.1-0.1 0.3 0.3 0.4 0.8 0.1 1.1-0.3 0.5-8.4 10.4-16.9 13.6q-0.2 0-0.3 0z"/>
					</g>
					<g id="&lt;Group&gt;">
						<path id="&lt;Path&gt;" class="s35" d="m1937.5 1015.4c-0.4 0-0.7-0.2-0.8-0.6-0.1-0.4 0.1-0.8 0.5-1 8.1-3 16.2-12.9 16.2-13 0.3-0.4 0.8-0.4 1.2-0.2 0.3 0.3 0.4 0.8 0.1 1.2-0.4 0.4-8.5 10.3-17 13.5q-0.1 0.1-0.2 0.1z"/>
					</g>
					<g id="&lt;Group&gt;">
						<path id="&lt;Path&gt;" class="s35" d="m1915.4 994.9c-0.3 0-0.6-0.2-0.7-0.5-0.2-0.4 0-0.9 0.4-1 8.1-3.1 16.2-13 16.3-13.1 0.3-0.3 0.8-0.4 1.1-0.1 0.3 0.3 0.4 0.8 0.1 1.1-0.3 0.4-8.4 10.4-16.9 13.5q-0.2 0.1-0.3 0.1z"/>
					</g>
					<g id="&lt;Group&gt;">
						<path id="&lt;Path&gt;" class="s35" d="m1968.5 1018.4c-0.3 0-0.6-0.2-0.7-0.5-0.2-0.4 0-0.9 0.4-1 8.1-3.1 16.2-13 16.3-13.1 0.3-0.3 0.8-0.4 1.1-0.1 0.4 0.3 0.4 0.8 0.1 1.1-0.3 0.5-8.4 10.4-16.9 13.6q-0.1 0-0.3 0z"/>
					</g>
					<g id="&lt;Group&gt;">
						<path id="&lt;Path&gt;" class="s35" d="m1962.4 1039.5c-0.3 0-0.6-0.2-0.7-0.6-0.2-0.4 0.1-0.8 0.5-1 5.5-1.7 10.6-8.5 10.7-8.5 0.2-0.4 0.7-0.5 1.1-0.2 0.4 0.3 0.4 0.7 0.2 1.1-0.3 0.3-5.5 7.3-11.5 9.2q-0.1 0-0.3 0z"/>
					</g>
					<g id="&lt;Group&gt;">
						<path id="&lt;Path&gt;" class="s35" d="m1982.4 1035.8c-0.3 0-0.6-0.2-0.7-0.6-0.2-0.4 0.1-0.8 0.5-0.9 5.5-1.8 10.6-8.6 10.7-8.7 0.2-0.3 0.7-0.4 1.1-0.1 0.3 0.2 0.4 0.7 0.2 1.1-0.3 0.3-5.5 7.3-11.5 9.2q-0.1 0-0.3 0z"/>
					</g>
					<g id="&lt;Group&gt;">
						<path id="&lt;Path&gt;" class="s35" d="m1979.5 1054.8c-0.4 0-0.7-0.2-0.8-0.5-0.1-0.4 0.1-0.9 0.5-1 5.5-1.7 10.7-8.5 10.7-8.6 0.3-0.4 0.8-0.4 1.1-0.2 0.4 0.3 0.5 0.8 0.2 1.1-0.2 0.3-5.5 7.3-11.5 9.2q-0.1 0-0.2 0z"/>
					</g>
					<g id="&lt;Group&gt;">
						<path id="&lt;Path&gt;" class="s35" d="m1999.4 1057c-0.4 0-0.7-0.2-0.8-0.5-0.1-0.5 0.1-0.9 0.5-1 5.5-1.8 10.7-8.6 10.7-8.7 0.3-0.3 0.8-0.4 1.2-0.1 0.3 0.3 0.4 0.7 0.1 1.1-0.2 0.3-5.5 7.3-11.5 9.2q-0.1 0-0.2 0z"/>
					</g>
					<g id="&lt;Group&gt;">
						<path id="&lt;Path&gt;" class="s35" d="m1992.7 1074.6c-0.3 0-0.6-0.2-0.7-0.6-0.1-0.4 0.1-0.8 0.5-1 5.5-1.7 10.6-8.5 10.7-8.6 0.3-0.3 0.7-0.4 1.1-0.1 0.4 0.2 0.4 0.7 0.2 1.1-0.3 0.3-5.5 7.2-11.5 9.1q-0.1 0.1-0.3 0.1z"/>
					</g>
					<g id="&lt;Group&gt;">
						<path id="&lt;Path&gt;" class="s35" d="m2008.8 1081.9c-0.3 0-0.6-0.2-0.7-0.5-0.2-0.4 0.1-0.9 0.5-1 5.4-1.9 10.6-8.6 10.7-8.6 0.3-0.4 0.8-0.4 1.1-0.2 0.4 0.3 0.4 0.8 0.1 1.1-0.2 0.3-5.5 7.2-11.4 9.2q-0.1 0-0.3 0z"/>
					</g>
				</g>
				<g id="&lt;Group&gt;">
					<g id="&lt;Group&gt;">
						<path id="&lt;Path&gt;" class="s8" d="m2042.9 1055.4c-13.2 7.6-31.6-5.7-34.9-10.1-3.2-4.4-16.4 6-21.6 2.5-5.2-3.5 17.1-11.7 17.1-11.7 0 0-18.4 6.1-22.8 3-4.4-3.2 19.9-11 19.9-11 0 0-18 4.5-21.3 0.1-3.2-4.4 17.5-9.3 17.5-9.3 0 0-9.8 1.9-17.3 1.2-7.5-0.6 6.5-11.4 18.2-12.9 11.8-1.4 37.1 9.2 37.1 9.2z"/>
					</g>
					<g id="&lt;Group&gt;">
						<path id="&lt;Path&gt;" class="s34" d="m1996.8 1019.4c-0.1 0-0.3-0.1-0.4-0.3-0.1-0.2 0-0.5 0.3-0.6 0.2-0.1 5.9-2.3 9.1-0.1 0.2 0.1 0.3 0.4 0.2 0.6-0.2 0.2-0.5 0.3-0.7 0.1-2.8-1.9-8.3 0.3-8.3 0.3q-0.1 0-0.2 0z"/>
					</g>
					<g id="&lt;Group&gt;">
						<path id="&lt;Path&gt;" class="s34" d="m2000.6 1028.6c-0.2 0-0.4-0.1-0.4-0.3-0.1-0.2 0-0.5 0.2-0.6 0.2-0.1 5.7-2.4 10.8-0.2 0.2 0.1 0.3 0.4 0.2 0.6-0.1 0.2-0.3 0.3-0.5 0.2-4.8-2-10.1 0.2-10.2 0.2q0 0.1-0.1 0.1z"/>
					</g>
					<g id="&lt;Group&gt;">
						<path id="&lt;Path&gt;" class="s34" d="m2003.5 1036.6c-0.2 0-0.3-0.1-0.4-0.3-0.1-0.2 0-0.5 0.2-0.6 0.3-0.1 7.1-2.7 10.3-0.1 0.2 0.1 0.2 0.4 0.1 0.6-0.2 0.2-0.5 0.2-0.6 0.1-2.9-2.4-9.4 0.2-9.4 0.2q-0.1 0.1-0.2 0.1z"/>
					</g>
				</g>
				<g id="&lt;Group&gt;">
					<path id="&lt;Path&gt;" class="s8" d="m1929.7 1047.1c-0.7-0.7-1.1-2.5-2.4-3-3.3-1.3-6.2-6.9-6.2-6.9-4.5-3.1-6.3-6.7-3.2-11 3.3-4.5 8.3-16.6 14.8-16.3 6.6 0.2-7.2 20.4-7.2 20.4 0 0 11.8-16 17.5-15.7 5.6 0.4-7.3 21.8-7.3 21.8 0 0 12.9-17.7 18.3-15.6 5.5 2.1-9.8 22.5-9.8 22.5 0 0 6.1-7.9 11.5-12.1 6.1-4.7 2 14.6-7.5 22.2-7.4 5.9-14.3-3-14.3-3 0 0-2.9-1.9-4.2-3.3z"/>
				</g>
				<g id="&lt;Group&gt;">
					<path id="&lt;Path&gt;" class="s34" d="m1927.3 1044.6q0 0-0.1 0c-2.4-0.7-5.1-3-5.5-5.5 0-0.6-0.2-0.7-1-0.9-1.1-0.3-2.8-0.9-4.7-4.3-3.3-5.6 6-16.1 6.4-16.6 0.2-0.1 0.5-0.2 0.6 0 0.2 0.2 0.2 0.4 0.1 0.6-0.1 0.1-9.3 10.5-6.4 15.6 1.8 3.1 3.3 3.6 4.3 3.9 0.8 0.2 1.5 0.4 1.6 1.6 0.3 2.1 2.8 4.2 4.8 4.7 0.3 0.1 0.4 0.3 0.4 0.6-0.1 0.2-0.3 0.3-0.5 0.3z"/>
				</g>
				<path id="&lt;Path&gt;" class="s7" d="m1986.1 802.8l6.1-3.5 18.2-1.9 21.1 3.3 13.8 14.2-3.3 10.2c-23.6-28.4-59.8-15.1-59.8-15.1z"/>
			</g>
			<g id="&lt;Group&gt;">
				<path id="&lt;Path&gt;" class="s8" d="m1253.9 1063.4c11.6-0.9 14.7 9.3 14.7 9.3 0 0 4 8 6.9 21.1q0.4 1.1 0.6 2.4c0.2 1.1 0.4 2.6 0.7 4.2q0 0 0 0c1.2 8 3.1 20.8-0.2 23.3-5.8 4.4-6.7-18-6.7-18 0 0 0.3 17.5-4.2 22-3.6 3.5-6.5-12.5-7.6-19.2q0 0.1-0.1 0.1c0.4 6.6 1.1 22.5-3.4 24.8-5.1 2.5-6.9-19.8-7.2-23.8q-0.1 0-0.1 0c-0.4 39.6-10.3 12.7-11.5-6.1-2.9 2.8-9.5 7.9-11.4 6.4-2.2-1.8 2.2-10.4 3.6-12.8 3.4-5.6 7.7-18.1 11.2-23.7 1.5-2.4 7.3-9.4 14.7-10z"/>
				<g id="&lt;Group&gt;">
					<path id="&lt;Path&gt;" class="s36" d="m1230.5 1076.1c-41.9-27.5 3.1-112.7-14.3-171.5-4-13.6-5.8-18.8-9.3-26.3-2.8-6.1 4.8-18 15.2-22.9 9.7-4.7 33.1-1.6 34.9 1.5 28.2 47 37.3 124.3 23.2 222.9 0 0-31.8 8.1-49.7-3.7z"/>
				</g>
				<path id="&lt;Path&gt;" class="s12" d="m1168.3 1433c0 0 0.4 14.2 9.9 18.2 9.6 4 37.4 7.6 27.1 16.7-6 5.3-34.1 1.9-42 1.9-8 0-15.4 3.5-21.3-1.9-6.5-5.8 0-34.9 0-34.9 0 0 6.8 3.6 13 3.4 8.9-0.2 13.3-3.4 13.3-3.4z"/>
				<path id="&lt;Path&gt;" class="s7" d="m1251.1 1004.7c0 0 1.9 64-18.5 186.9-14.8 88.7-32.2 178.1-40.7 221-3.1 15.3-16 26.5-31.2 27.1l-8.2 0.3c-16.5 0.7-29.9-13.5-28.7-30.4l20.7-289.9 5.1-95.4z"/>
				<path id="&lt;Path&gt;" class="s12" d="m1077.4 1433c0 0 0.4 14.2 10 18.2 9.6 4 37.4 7.6 27 16.7-6 5.3-34.1 1.9-42 1.9-7.9 0-15.4 3.5-21.3-1.9-6.5-5.8 0-34.9 0-34.9 0 0 6.9 3.6 13 3.4 8.9-0.2 13.3-3.4 13.3-3.4z"/>
				<path id="&lt;Path&gt;" class="s7" d="m1160.2 1004.7c0 0 1.9 64-18.5 186.9-14.7 88.7-32.1 178.1-40.7 221-3 15.3-15.9 26.5-31.2 27.1l-8.2 0.3c-16.5 0.7-29.9-13.5-28.7-30.4l20.7-289.9 5.1-95.4z"/>
				<path id="&lt;Path&gt;" class="s12" d="m1152.6 1055.9c57.7-1.8 104.2 2.7 104.4 10.4 0.2 7.8-45.9 15.8-103.7 17.6-57.7 1.8-104.4-1.3-104.6-9-0.2-7.8 46.2-17.2 103.9-19z"/>
				<path id="&lt;Path&gt;" class="s36" d="m1062.8 856.1c0 0 10.2-40.5 85.6-40.9 108.6-0.6 98.6 99.3 108.6 251.1 0 0-107-15.1-208.4 6.7 0 0-9.4-155 14.2-216.9z"/>
				<path id="&lt;Path&gt;" class="s36" d="m1133.5 815.7c8.6-1 17.4-1.1 26.1-0.5q7.9 0.5 15.2 1.7c51.7 8.4 82.2 40 82.2 40 0 0-7.8 21-36.4 25.7-28.6 4.7-136.4-5.1-136.4-5.1l-49.2-27.2c0 0 32.8-27.2 98.5-34.6z"/>
				<path id="&lt;Path&gt;" class="s7" d="m1244.7 1104.8l-189.9-6.7 1-18.6c129.6-25.3 192.1-6.9 192.1-6.9z"/>
				<g id="&lt;Group&gt;">
					<path id="&lt;Path&gt;" class="s36" d="m973.5 1068.6c-10.5-66.2 22.8-185.6 61.5-218.3 2.8-2.3 14.6 4.9 23.8 10.5 9.8 6.1 16 18.7 12.5 24.5-4.3 7.1-41.2 137.8-45.7 187.7z"/>
				</g>
				<path id="&lt;Path&gt;" class="s8" d="m1138 805.9l5.7-18.4 1.7-5.3 9.7-31.5 1.3 31.3 0.5 11.9 0.2 6.9 0.1 0.7 0.2 5.2c0.1 4.1 2.6 4.9 5.6 8.4 1.2 1.4 2.5 1.4-6.3 5.3-11 4.8-25 6.2-32.8-3.5 0.1 0 12.3-5.1 14.1-11z"/>
				<path id="&lt;Path&gt;" class="s12" d="m1156.9 793.9l0.2 6.9 0.1 0.7c-10-1.5-14.7-9.3-14.7-9.3 0 0 9 1.2 14.4 1.7z"/>
				<path id="&lt;Path&gt;" class="s37" d="m1206.3 1002c0 0-3.1 28.9-23.6 44.5 0 0-12.8-8.4-22-22-4.5-6.4-8.2-14-9.3-22.5-0.5-3.8-0.6-10.9-0.4-20 0.3-7.4 0.7-16.1 1.2-25.7 0.9-16.7 2.2-35.6 3.1-53.5 0.5-9.8 0.9-19.4 1.1-27.9 0.4-18.2-0.1-32.4-2.4-37.4l9.8-3.1c0 0 4.2 10.9 10 27.5 2.2 6.4 4.6 13.6 7.2 21.2 3.9 12.3 8.1 26 12 39.7 2 7.6 4.1 15.3 5.8 22.7 3.6 15.4 6.3 30.2 7.2 42.5 0.5 5.2 0.6 9.8 0.3 14z"/>
				<path id="&lt;Path&gt;" class="s12" d="m1000.2 1056.8c14.5 0.8 26 7.3 25.7 14.5-0.3 7.2-12.3 12.5-26.8 11.7-14.4-0.7-25.9-7.2-25.6-14.4 0.3-7.3 12.3-12.5 26.7-11.8z"/>
				<g id="&lt;Group&gt;">
					<path id="&lt;Path&gt;" class="s12" d="m1257.6 1066.4l-1.2-0.1c0.1-1.1 8.8-108.2-22.2-174.5l1.1-0.5c31.2 66.5 22.4 174 22.3 175.1z"/>
				</g>
				<g id="&lt;Group&gt;">
					<path id="&lt;Path&gt;" class="s12" d="m1047.4 970l-1.2-0.3c8.2-33.8 25.4-57.8 25.6-58l1 0.7c-0.2 0.3-17.2 24.1-25.4 57.6z"/>
				</g>
				<path id="&lt;Path&gt;" class="s7" d="m1166.5 730.8c0 0 4.4 6.5 5.7 16.2 1.3 9.7-15.6-9.3-15.6-9.3z"/>
				<path id="&lt;Path&gt;" class="s8" d="m1164.5 791.9c-13.8 6.9-31.7-0.9-40.1-17.5-8.4-16.6-4.1-35.7 9.7-42.7 13.8-6.9 31.7 0.9 40.1 17.5 8.4 16.6 4 35.7-9.7 42.7z"/>
				<path id="&lt;Path&gt;" class="s7" d="m1103.9 772.3c-21.4-21.3 0.9-41.6 15.6-46.3 11.3-3.6 10.1-14.9 24.4-17.9 7.6-1.5 7.7 9 13.9 2.5 6.2-6.5 15.8-3.7 17 4.9 1.1 8.5-5.7 21-20.9 25.7-12.1 3.7-14.5 6.9-15.7 12-0.7 2.9-2.7 5.3-5.4 6.5l-12.3 5.9z"/>
				<g id="&lt;Group&gt;">
					<path id="&lt;Path&gt;" class="s30" d="m1151.6 758.3c-0.1 0-3 1.8-4.1 4.7-0.1 0.3-0.3 0.5-0.6 0.5-0.3 0-0.5-0.3-0.5-0.6 0.5-5 4.8-5.7 4.9-5.7 0.3-0.1 0.7 0.1 0.7 0.4q0.1 0.3-0.1 0.5-0.1 0.1-0.3 0.2z"/>
				</g>
				<path id="&lt;Path&gt;" class="s30" d="m1152.1 762.7c0.8-0.5 2.1-0.1 2.8 1.1 0.8 1.1 0.8 2.4 0 3-0.8 0.5-2.1 0.1-2.9-1-0.7-1.1-0.7-2.5 0.1-3.1z"/>
				<g id="&lt;Group&gt;">
					<path id="&lt;Path&gt;" class="s30" d="m1169.3 748.9c-0.1 0-2.8 0.5-4 2.7-0.2 0.2-0.4 0.3-0.6 0.2-0.3-0.2-0.4-0.5-0.4-0.7 1-4.1 4.7-3.2 4.9-3.2 0.3 0 0.5 0.3 0.5 0.6q0 0.2-0.1 0.4-0.1 0-0.3 0z"/>
				</g>
				<path id="&lt;Path&gt;" class="s30" d="m1168.4 753.5c0.9-0.4 2.1 0.4 2.5 1.7 0.5 1.3 0.1 2.5-0.8 2.9-1 0.3-2.1-0.5-2.5-1.7-0.5-1.3-0.1-2.6 0.8-2.9z"/>
				<path id="&lt;Path&gt;" class="s7" d="m1135.4 758c-18.2 16.3-3 27.3-3 27.3-13 3-28.5-13-28.5-13 10.9-10.5 31.5-14.3 31.5-14.3z"/>
				<path id="&lt;Path&gt;" class="s8" d="m1120.5 770c0.7-3 3.9-4.7 7.2-3.9 3.2 0.7 5.3 3.7 4.7 6.6-0.7 3-3.9 4.7-7.2 3.9-3.3-0.7-5.4-3.7-4.7-6.6z"/>
				<g id="&lt;Group&gt;">
					<path id="&lt;Path&gt;" class="s7" d="m1170.4 713.9c-3.5 0-4.3-3.1-4.3-3.2-0.1-0.3 0.1-0.7 0.4-0.7 0.3-0.1 0.7 0.1 0.8 0.4 0.1 0.3 0.9 2.7 4.1 2.1 0.4 0 0.7 0.1 0.8 0.5 0 0.3-0.2 0.7-0.5 0.7q-0.7 0.2-1.3 0.2z"/>
				</g>
				<g id="&lt;Group&gt;">
					<path id="&lt;Path&gt;" class="s29" d="m1156.7 735.5l-0.3-0.3c0.2-0.1 14.5-10.5 12.3-19-0.6-2.4-1.6-3.8-2.9-4.3-2-0.8-4.7 0.8-7 2.3q-0.6 0.4-1.1 0.7l-0.2-0.3q0.5-0.3 1.1-0.7c2.4-1.5 5.1-3.3 7.4-2.4 1.4 0.6 2.4 2.1 3.1 4.6 2.3 8.7-11.8 18.9-12.4 19.4z"/>
				</g>
				<g id="&lt;Group&gt;">
					<path id="&lt;Path&gt;" class="s29" d="m1114.3 731.2l-0.1-0.4c16.4-3.4 20.9-14.8 20.9-14.9l0.3 0.1c0 0.1-4.5 11.7-21.1 15.2z"/>
				</g>
				<g id="&lt;Group&gt;">
					<path id="&lt;Path&gt;" class="s12" d="m1138.2 1215.1l-0.8-0.2c0.1-0.9 18.5-90.3 22.5-104.3 4-14.2 18.6-17.5 18.7-17.5l0.2 0.7c-0.2 0.1-14.3 3.3-18.2 17.1-3.9 13.9-22.3 103.3-22.4 104.2z"/>
				</g>
				<path id="&lt;Path&gt;" class="s38" d="m1156.4 874.9c0.4-18.2-0.1-32.4-2.4-37.4l9.8-3.1c0 0 4.2 10.9 10 27.5-5.9 4.3-12.1 8.9-17.4 13z"/>
				<path id="&lt;Path&gt;" class="s38" d="m1193 922.8c-13.9 10.7-33.4 26.2-40.8 33.5 0.9-16.7 2.2-35.6 3.1-53.5l25.7-19.7c3.9 12.3 8.1 26 12 39.7z"/>
				<path id="&lt;Path&gt;" class="s38" d="m1206 988c-12.5 9.9-32.3 25.5-45.3 36.5-4.5-6.4-8.2-14-9.3-22.5-0.5-3.8-0.6-10.9-0.4-20l47.8-36.5c3.6 15.4 6.3 30.2 7.2 42.5z"/>
				<path id="&lt;Path&gt;" class="s37" d="m1148.6 821.9c0 0 13.2-4.1 16.7-0.9 3.5 3.2 0.9 17.7-5.2 19-6 1.3-17.6-14.6-11.5-18.1z"/>
				<path id="&lt;Path&gt;" class="s39" d="m1149.4 843.1c-2.1 3-34.3-20.4-34.7-24.6-0.3-4.2 17.6-18.4 21-12.3 3.4 6.2 20.6 12.3 20.6 12.3 4.3 4-4.8 21.7-6.9 24.6z"/>
				<path id="&lt;Path&gt;" class="s39" d="m1156.3 818.5c0 0 2.6-6.4 1.4-9.9 0 0-0.9-3.1 1.8-2.9 2.6 0.2 16.9 10.2 18.2 13.3 1.3 3.1 1.5 17.4-3.2 18.4-4.6 1.1-15.8-14.3-17.1-15.8-1.3-1.5-1.1-3.1-1.1-3.1z"/>
				<g id="&lt;Group&gt;">
					<path id="&lt;Path&gt;" class="s12" d="m1160.1 840.3c-3.9 0-7.2-3.4-7.4-3.6l0.5-0.4c0 0 3.3 3.4 6.9 3.4q0 0 0 0c3.6-0.1 5.7-7.7 5.7-7.8l0.6 0.2c0 0.3-2.2 8.2-6.2 8.2q-0.1 0-0.1 0z"/>
				</g>
				<g id="&lt;Group&gt;">
					<path id="&lt;Path&gt;" class="s12" d="m1162 778c-1.6 0-3.3-0.3-5.3-1-0.3-0.2-0.5-0.5-0.4-0.8 0.1-0.3 0.5-0.5 0.8-0.4 9.4 3.5 12.8-3.4 12.9-3.7 0.1-0.3 0.5-0.4 0.8-0.3 0.3 0.1 0.4 0.5 0.3 0.8 0 0-2.6 5.4-9.1 5.4z"/>
				</g>
				<g id="&lt;Group&gt;">
					<g id="&lt;Group&gt;">
						<path id="&lt;Path&gt;" class="s12" d="m1014 1107.7c-0.8-4-4.4-6.8-8.4-6.8l-23.5-0.1c-3.7 0-6.9 2.3-8.2 5.8l-9.6 32-6.8-2 9.7-32.1v-0.2c2.2-6.3 8.2-10.6 14.9-10.6l23.5 0.1c7.4 0 13.8 5.2 15.3 12.5l5.3 28.5-7 1.3z"/>
					</g>
					<path id="&lt;Path&gt;" class="s25" d="m936.3 1212.1l-15.4-69.8c-2-8.8 4.9-17.1 13.9-16.8l131.4 3c8.1 0.2 14.4 7.2 13.6 15.3l-7.6 76.8c-0.7 7.6-7.5 13.1-15.1 12.4l-108.5-10c-6-0.5-11-4.9-12.3-10.9z"/>
					<g id="&lt;Group&gt;">
						<path id="&lt;Path&gt;" class="s40" d="m997.7 1180.9l-74.6-26.6 0.5-1.6 74.1 26.5 80.4-21 0.4 1.6z"/>
					</g>
					<g id="&lt;Group&gt;">
						<path id="&lt;Path&gt;" class="s40" d="m991.9 1182.5l-0.1-4.4c0-2.5 2.1-4.5 4.6-4.5 2.5 0 4.5 2 4.5 4.5v4.4c0.1 2.4-2 4.5-4.5 4.5-2.5 0-4.5-2-4.5-4.5z"/>
					</g>
				</g>
				<path id="&lt;Path&gt;" class="s8" d="m1027.2 1106c-1.9 1.4-7.8-3.8-10.5-6.7-1.6 13.9-8.8 23-11.5 5q-0.1 0-0.3-0.1c-0.9 2.9-4.5 15.6-9.1 13-3.9-2.3-2.3-10.5-1.3-14.8q0 0 0 0c-1.5 4.8-5 14.1-8.1 10.7-2.9-3.3-2.1-9-1.5-12-1 3.3-3.4 9.2-7.4 5.8-3.6-3.2-0.7-11.4 0.6-17.4q0.3-1.2 0.7-2.2c3.7-12.3 5.7-21.2 11.1-24.6 5.5-3.4 21.5-2.7 24.1 3.4 1.1 2.6 4 10.6 5.5 14.5 1.7 4.9 3.5 10 5.1 13.1 1.2 2.4 4.9 10.8 2.6 12.3z"/>
			</g>
			<g id="&lt;Group&gt;">
				<g id="&lt;Group&gt;">
					<g id="&lt;Group&gt;">
						<path id="&lt;Compound Path&gt;" fill-rule="evenodd" class="s12" d="m844.6 1029.7q-1.6 0-3.1-0.1c-24.5-0.8-46.4-10.9-61.5-28.6-14.8-17.1-22.4-40.4-21.6-65.4 0.8-24.9 10.1-47.5 26.2-63.7 16.5-16.7 39.3-25.6 63.9-24.6 24.6 0.8 46.4 11 61.5 28.6 14.8 17.2 22.4 40.4 21.6 65.5-0.8 24.6-10.1 47.1-26.2 63.4-15.9 16.1-37.4 24.9-60.8 24.9zm0.8-180c-22.8 0-43.7 8.4-59 23.9-15.7 15.8-24.7 37.9-25.5 62.1-0.8 24.4 6.6 47 21 63.7 14.6 17.1 35.8 27 59.6 27.8 23.9 0.7 46.1-7.8 62.1-24.1 15.7-15.8 24.7-37.8 25.5-61.8 1.7-51.4-32.2-89.9-80.6-91.5q-1.6-0.1-3.1-0.1zm-221.1 168.7q-0.4 0-0.8-0.1c-9.8-0.3-18-5.7-22.2-14.6-4-8.7-2.9-18.8 3-26.4l231.5-296.1c5-6.4 12.8-10.2 20.8-9.8 9.8 0.4 18 5.8 22.2 14.7 4 8.7 2.9 18.8-3 26.4l-231.5 296.1c-4.8 6.2-12.2 9.8-20 9.8zm231.5-344.5c-7 0-13.7 3.3-18.1 8.8l-231.4 296.1c-5.5 7-6.5 15.9-2.7 23.9 3.7 7.9 11.2 12.9 20 13.2q0.3 0 0.7 0c7 0 13.7-3.3 18.1-8.8l231.4-296.1c5.5-7 6.5-15.9 2.7-23.9-3.7-8-11.2-12.9-20-13.2q-0.4 0-0.7 0zm-10.7 310.1q-0.5 0-1.1-0.1c-19.6-0.6-33.7-20.7-32.9-46.6 0.4-12.5 3.8-23.7 9.5-31.5 6-8.4 14.4-12.8 24.3-12.8q0.6 0 1.1 0c19.6 0.6 33.7 20.7 32.9 46.6-0.8 22.3-11.5 44.4-33.8 44.4zm-0.2-88.6c-9.1 0-16.8 4.1-22.3 11.8-5.4 7.5-8.6 18.2-9 30.2-0.8 24.5 12.3 43.5 30.5 44.1q0.5 0 1 0c20.7 0 30.6-20.9 31.3-42 0.8-24.5-12.3-43.4-30.5-44.1q-0.5 0-1 0zm-210.2-52.8q-1.6 0-3.1-0.1c-24.6-0.8-46.4-11-61.5-28.6-14.8-17.2-22.4-40.4-21.6-65.5 0.8-24.8 10.1-47.4 26.2-63.6 16.5-16.7 39.2-25.6 63.9-24.6 24.5 0.8 46.4 10.9 61.5 28.6 14.8 17.1 22.4 40.4 21.6 65.4-0.8 24.6-10.1 47.2-26.2 63.5-15.9 16.1-37.4 24.9-60.8 24.9zm0.7-180c-22.8 0-43.6 8.4-58.9 23.9-15.7 15.8-24.7 37.8-25.5 62-1.7 51.4 32.2 89.9 80.6 91.5 24 0.7 46-7.7 62.1-24 15.7-15.9 24.7-37.9 25.5-61.9 0.8-24.4-6.6-47-21-63.7-14.7-17.1-35.8-27-59.6-27.8q-1.6 0-3.2 0zm-0.2 134.2q-0.5 0-1.1 0c-19.6-0.7-33.7-20.7-32.9-46.6 0.4-12.5 3.8-23.7 9.5-31.6 6.2-8.7 15.1-13.1 25.4-12.8 9.9 0.4 18.6 5.6 24.7 14.7 5.6 8.5 8.6 19.9 8.2 31.9-0.8 22.3-11.5 44.4-33.8 44.4zm-0.2-88.5c-9.1 0-16.8 4.1-22.3 11.8-5.4 7.4-8.6 18.2-9 30.2-0.8 24.5 12.3 43.4 30.5 44q0.5 0.1 1 0.1c20.6 0 30.6-21 31.3-42 0.4-11.6-2.4-22.4-7.8-30.6-5.7-8.5-13.5-13.2-22.7-13.5q-0.5 0-1 0z"/>
					</g>
				</g>
				<g id="&lt;Group&gt;">
					<path id="&lt;Compound Path&gt;" fill-rule="evenodd" class="s3" d="m550.4 727.1c1.7-49.8 37.7-88.8 88.9-87.1 50.7 1.7 83.5 42.5 81.9 92.8-1.7 49.2-37.7 88.8-88.9 87.1-50.7-1.7-83.5-42.6-81.9-92.8zm306.9-75.8c19.7 0.6 30.4 23.5 18.2 39l-231.5 296.1c-4.7 6.1-12.1 9.6-19.8 9.3-19.7-0.6-30.4-23.5-18.2-39l231.5-296.2c4.7-6 12.1-9.5 19.8-9.2zm-188.9 79.7c0.8-23.6-11.5-44.7-31.6-45.3-21.1-0.7-32.8 19-33.6 43.1-0.8 23.7 11.5 44.7 31.6 45.4 21.1 0.7 32.9-19.6 33.6-43.2zm92 183.2c1.6-49.7 37.6-88.8 88.8-87.1 50.7 1.7 83.6 42.6 81.9 92.8-1.7 49.3-37.7 88.8-88.9 87.1-50.7-1.7-83.5-42.5-81.8-92.8zm118 4c0.7-23.7-11.6-44.7-31.7-45.4-21.1-0.7-32.8 19-33.6 43.2-0.8 23.6 11.6 44.6 31.6 45.3 21.1 0.7 32.9-19.5 33.7-43.1z"/>
				</g>
			</g>
			<path id="&lt;Path&gt;" class="s11" d="m1151.1 244c0 0 23.4-57 82.6-49.9 59.2 7.2 52.1 64.3 80.3 59 28.2-5.4 67.6 0 76.1 35.7 8.4 35.7 46.5 16.1 47.9 46.4 1.4 30.4-43.7 51.8-95.8 25-52.1-26.7-77.5 20.9-150.8 12.2-73.2-8.6-82.3-19.3-125.7-13.9-43.3 5.3-42.3-32.3-22.6-57.3 19.7-25 99.6-22.7 108-57.2z"/>
			<path id="&lt;Path&gt;" class="s11" d="m2032.5 402.9c0 0 18.5-41 65.3-35.9 46.9 5.1 41.3 46.2 63.6 42.4 22.3-3.9 53.5 0 60.2 25.7 6.7 25.7 36.8 11.5 37.9 33.4 1.2 21.8-34.5 37.2-75.8 17.9-41.3-19.2-61.4 15-119.3 8.8-58-6.2-65.2-13.9-99.6-10-34.3 3.8-33.5-23.3-17.9-41.2 15.7-18 78.9-16.3 85.6-41.1z"/>
			<path id="&lt;Path&gt;" class="s41" d="m615.7 451.2c0 0 14.9-32.9 52.6-28.8 37.6 4.1 33.1 37.2 51.1 34.1 17.9-3.1 43 0 48.4 20.6 5.4 20.7 29.6 9.3 30.5 26.9 0.9 17.5-27.8 29.9-61 14.4-33.2-15.5-49.3 12-95.9 7.1-46.7-5-52.4-11.2-80-8.1-27.6 3.1-27-18.7-14.4-33.1 12.5-14.5 63.3-13.1 68.7-33.1z"/>
			<path id="&lt;Path&gt;" class="s41" d="m1189.9 555.1c0 0 12.4-27.6 44-24.1 31.5 3.5 27.7 31.1 42.7 28.5 15-2.6 36 0 40.5 17.3 4.5 17.3 24.8 7.8 25.5 22.4 0.8 14.7-23.2 25.1-51 12.1-27.7-12.9-41.2 10.1-80.2 5.9-39.1-4.1-43.9-9.3-67-6.7-23.1 2.6-22.5-15.6-12-27.7 10.5-12.1 53-11 57.5-27.7z"/>
			<g id="&lt;Group&gt;">
				<path id="&lt;Path&gt;" class="s32" d="m1582.6 509.5l-98.1 12.9 2.8-48.3z"/>
				<path id="&lt;Path&gt;" class="s29" d="m1487.3 474.1l95.3 35.4-150.4-6.5z"/>
				<path id="&lt;Path&gt;" class="s32" d="m1582.6 509.5l-74.5-27.7 1.8-25.4z"/>
				<path id="&lt;Path&gt;" class="s29" d="m1582.6 509.5l-73.9-36-32.3-62.4z"/>
			</g>
			<g id="&lt;Group&gt;">
				<path id="&lt;Compound Path&gt;" class="s32" d="m710 609.4c-0.2 0-0.3-0.1-0.4-0.2-0.1-0.2 0-0.5 0.3-0.6 0 0 2.2-0.9 6.3-2.5 0.3-0.1 0.5 0 0.6 0.2 0.1 0.2 0 0.5-0.2 0.6-4.2 1.6-6.4 2.5-6.4 2.5q-0.1 0.1-0.2 0zm12.7-5.1c-0.1 0-0.3-0.1-0.4-0.3-0.1-0.2 0-0.4 0.3-0.5q2.8-1.2 6.3-2.7c0.2-0.1 0.4 0 0.5 0.2 0.1 0.3 0 0.5-0.2 0.6q-3.4 1.5-6.3 2.7-0.1 0-0.2 0zm12.6-5.3c-0.2 0-0.3-0.1-0.4-0.3-0.1-0.2 0-0.5 0.2-0.6l1.2-0.5q2.5-1 5.1-2.2c0.2 0 0.4 0 0.5 0.3 0.1 0.2 0 0.4-0.2 0.5q-2.6 1.2-5 2.2l-1.2 0.5q-0.1 0.1-0.2 0.1zm12.5-5.5c-0.2 0-0.3-0.1-0.4-0.2-0.1-0.3 0-0.5 0.2-0.6q3-1.3 6.2-2.8c0.2-0.1 0.5 0 0.6 0.2 0.1 0.2 0 0.5-0.2 0.6q-3.2 1.4-6.3 2.8 0 0-0.1 0zm12.4-5.6c-0.2 0-0.3-0.1-0.4-0.2-0.1-0.2 0-0.5 0.2-0.6l6.2-2.8c0.2-0.1 0.5 0 0.6 0.2 0.1 0.2 0 0.5-0.3 0.5l-6.1 2.9q-0.1 0-0.2 0zm12.3-5.7c-0.1 0-0.3-0.1-0.3-0.2-0.1-0.3-0.1-0.5 0.2-0.6l1.1-0.5q2.5-1.2 5-2.4c0.2-0.1 0.5 0 0.6 0.2 0.1 0.2 0 0.4-0.2 0.5q-2.6 1.3-5.1 2.4l-1.1 0.6q-0.1 0-0.2 0zm12.3-5.9c-0.1 0-0.3 0-0.4-0.2-0.1-0.2 0-0.5 0.2-0.6q3.1-1.4 6.2-2.9c0.2-0.1 0.4-0.1 0.5 0.2 0.1 0.2 0 0.4-0.2 0.5q-3.1 1.5-6.1 3-0.1 0-0.2 0zm12.3-5.9q-0.3 0-0.4-0.3c-0.1-0.2-0.1-0.4 0.2-0.6l6-3c0.2-0.1 0.5 0 0.6 0.2 0.1 0.2 0 0.5-0.2 0.6l-6.1 3q0 0.1-0.1 0.1zm12.1-6.2c-0.2 0-0.3-0.1-0.4-0.2-0.1-0.2 0-0.5 0.2-0.6l6-3.1c0.3-0.1 0.5 0 0.6 0.2 0.1 0.2 0 0.5-0.2 0.6l-6 3.1q-0.1 0-0.2 0zm12.1-6.3q-0.3 0-0.4-0.2c-0.1-0.2-0.1-0.5 0.2-0.6q2.1-1.1 4.3-2.3l1.7-0.9c0.1-0.1 0.4 0 0.5 0.2 0.1 0.2 0.1 0.5-0.1 0.6l-1.7 0.8q-2.2 1.2-4.3 2.4-0.1 0-0.2 0zm171.9-4.7c-0.3 0-0.5-0.2-0.5-0.5 0-0.2 0.3-0.4 0.5-0.4q0.2 0 0.4 0 3.2 0 6.3-0.1 0 0 0.1 0c0.2 0 0.4 0.2 0.4 0.4 0 0.2-0.2 0.4-0.4 0.4-2.1 0.1-4.2 0.2-6.3 0.2q-0.3 0-0.5 0zm-6.8-0.2q0 0 0 0c-2.4-0.1-4.7-0.3-6.8-0.5-0.3 0-0.4-0.2-0.4-0.4 0-0.3 0.2-0.4 0.4-0.4q0 0 0 0c2.2 0.2 4.4 0.3 6.8 0.4 0.2 0 0.4 0.2 0.4 0.5 0 0.2-0.2 0.4-0.4 0.4zm20.3-0.4c-0.2 0-0.4-0.1-0.4-0.4 0-0.2 0.2-0.4 0.4-0.4 2.2-0.2 4.4-0.4 6.7-0.7q0.1 0 0.1 0c0.2 0 0.4 0.2 0.4 0.4 0.1 0.2-0.1 0.4-0.3 0.5-2.4 0.3-4.7 0.5-6.8 0.6q0 0-0.1 0zm-33.9-0.8q0 0 0 0c-2.2-0.3-4.4-0.6-6.7-1-0.3-0.1-0.4-0.3-0.4-0.5 0-0.2 0.3-0.4 0.5-0.4 2.4 0.4 4.6 0.8 6.7 1.1 0.2 0 0.4 0.2 0.4 0.4-0.1 0.2-0.2 0.4-0.5 0.4zm-139.6-0.3c-0.1 0-0.3-0.1-0.4-0.2-0.1-0.2 0-0.5 0.2-0.6q3-1.6 6-3.3c0.2-0.1 0.4 0 0.6 0.2 0.1 0.2 0 0.4-0.2 0.5q-3 1.7-6 3.3-0.1 0.1-0.2 0.1zm187-0.5c-0.2 0-0.4-0.1-0.4-0.3 0-0.3 0.1-0.5 0.4-0.5 2.3-0.4 4.5-0.7 6.6-1.2 0.3 0 0.5 0.1 0.5 0.4 0.1 0.2-0.1 0.4-0.3 0.5-2.2 0.4-4.3 0.8-6.7 1.1q0 0-0.1 0zm-60.7-1.5q-0.1 0-0.1 0c-2.6-0.6-4.7-1.1-6.7-1.6-0.2 0-0.3-0.3-0.3-0.5 0.1-0.2 0.3-0.4 0.6-0.3 1.9 0.5 4 1 6.6 1.6 0.2 0 0.3 0.2 0.3 0.5-0.1 0.2-0.2 0.3-0.4 0.3zm74-1c-0.2 0-0.4-0.2-0.4-0.4-0.1-0.2 0.1-0.4 0.3-0.5 2.1-0.4 4.3-1 6.6-1.6 0.2 0 0.5 0.1 0.5 0.3 0.1 0.3-0.1 0.5-0.3 0.5-2.3 0.7-4.5 1.2-6.6 1.7q0 0-0.1 0zm-87.2-2.4q-0.1 0-0.1 0l-0.9-0.3q-2.9-0.9-5.6-1.8c-0.2-0.1-0.4-0.3-0.3-0.5 0.1-0.3 0.3-0.4 0.6-0.3q2.7 0.9 5.5 1.8l0.9 0.3c0.3 0 0.4 0.3 0.3 0.5 0 0.2-0.2 0.3-0.4 0.3zm100.3-1.1c-0.1 0-0.3-0.1-0.4-0.3 0-0.2 0.1-0.4 0.3-0.5 2-0.6 4.2-1.2 6.5-2 0.2-0.1 0.5 0 0.5 0.3 0.1 0.2 0 0.4-0.2 0.5-2.4 0.8-4.5 1.4-6.5 2q-0.1 0-0.2 0zm-201.5-0.1c-0.2 0-0.3-0.1-0.4-0.3-0.1-0.2 0-0.4 0.2-0.5q2.9-1.7 5.9-3.4c0.2-0.1 0.4-0.1 0.6 0.1 0.1 0.2 0 0.5-0.2 0.6q-2.9 1.7-5.9 3.4-0.1 0.1-0.2 0.1zm88.3-3.2q0 0-0.1 0c-2.2-0.8-4.3-1.7-6.3-2.5-0.2-0.1-0.3-0.4-0.3-0.6 0.1-0.2 0.4-0.3 0.6-0.2q3 1.3 6.3 2.5c0.2 0.1 0.3 0.3 0.2 0.6 0 0.1-0.2 0.2-0.4 0.2zm126.2-0.9c-0.2 0-0.4-0.1-0.4-0.3-0.1-0.2 0-0.4 0.2-0.5q3.2-1.2 6.4-2.3c0.2-0.2 0.4 0 0.5 0.2 0.1 0.2 0 0.5-0.2 0.5-2.1 0.8-4.3 1.6-6.4 2.4q-0.1 0-0.1 0zm-202.7-2.8c-0.2 0-0.3 0-0.4-0.2-0.1-0.2-0.1-0.5 0.2-0.6q2.9-1.7 5.8-3.5c0.2-0.1 0.4 0 0.6 0.2 0.1 0.2 0 0.5-0.2 0.6q-2.9 1.7-5.8 3.5-0.1 0-0.2 0zm64.1-1.6q-0.1 0-0.2-0.1c-2.2-1-4.2-2.1-6.1-3.1-0.2-0.1-0.3-0.4-0.2-0.6 0.2-0.2 0.4-0.2 0.6-0.1 1.9 1 3.8 2 6 3.1 0.3 0.1 0.3 0.3 0.2 0.5 0 0.2-0.2 0.3-0.3 0.3zm151.2-0.4c-0.1 0-0.3-0.1-0.4-0.3 0-0.2 0.1-0.5 0.3-0.5 2.2-1 4.2-1.8 6.2-2.7 0.3 0 0.5 0 0.6 0.2 0.1 0.3 0 0.5-0.2 0.6-2 0.9-4.1 1.7-6.3 2.6q-0.1 0.1-0.2 0.1zm-203.7-5q-0.2 0-0.4-0.2c-0.1-0.2 0-0.5 0.2-0.6q2.9-1.8 5.7-3.6c0.2-0.1 0.5 0 0.6 0.2 0.2 0.2 0.1 0.4-0.1 0.5q-2.9 1.8-5.8 3.6-0.1 0.1-0.2 0.1zm216.2-0.4c-0.1 0-0.3-0.1-0.4-0.3-0.1-0.2 0-0.4 0.2-0.5q3.1-1.4 6.2-2.9c0.2-0.1 0.4 0 0.6 0.2 0.1 0.2 0 0.5-0.2 0.6q-3.1 1.4-6.2 2.8-0.1 0.1-0.2 0.1zm-175.6-0.8q-0.1 0-0.3 0c-2-1.4-3.9-2.6-5.6-3.9-0.2-0.1-0.2-0.4-0.1-0.6 0.2-0.2 0.4-0.2 0.6-0.1 1.7 1.3 3.5 2.5 5.6 3.9 0.2 0.1 0.3 0.3 0.1 0.5q-0.1 0.2-0.3 0.2zm187.9-5c-0.2 0-0.3-0.1-0.4-0.3-0.1-0.2 0-0.4 0.2-0.5q3-1.5 6.1-3.1c0.2-0.1 0.4 0 0.5 0.2 0.1 0.2 0.1 0.5-0.2 0.6q-3 1.5-6 3-0.1 0.1-0.2 0.1zm-217-1.1q-0.2 0-0.4-0.2c-0.1-0.2 0-0.4 0.2-0.6q2.8-1.8 5.6-3.7c0.3-0.1 0.5-0.1 0.6 0.1 0.2 0.2 0.1 0.5-0.1 0.6q-2.8 1.9-5.7 3.8-0.1 0-0.2 0zm18.2-2q-0.2 0-0.3-0.1-2.6-2.3-4.9-4.7c-0.2-0.2-0.2-0.4 0-0.6 0.2-0.1 0.4-0.1 0.6 0 1.5 1.6 3.1 3.2 4.9 4.7 0.1 0.1 0.2 0.4 0 0.6q-0.1 0.1-0.3 0.1zm210.9-3.1c-0.2 0-0.3-0.1-0.4-0.2-0.1-0.2 0-0.5 0.2-0.6q3-1.6 6-3.2c0.2-0.1 0.4 0 0.6 0.2 0.1 0.2 0 0.4-0.2 0.5q-3 1.7-6 3.3-0.1 0-0.2 0zm-217.8-2.4q-0.2 0-0.3-0.2c-0.2-0.2-0.1-0.5 0.1-0.6q2.8-1.9 5.6-3.9c0.1-0.1 0.4 0 0.6 0.1 0.1 0.2 0 0.5-0.1 0.6q-2.8 2-5.6 3.9-0.1 0.1-0.3 0.1zm229.8-4c-0.2 0-0.3-0.1-0.4-0.3-0.1-0.2 0-0.4 0.2-0.5q2.9-1.7 5.9-3.3c0.2-0.1 0.5-0.1 0.6 0.1 0.1 0.2 0 0.5-0.2 0.6q-3 1.7-5.9 3.3-0.1 0.1-0.2 0.1zm-232.2-0.3q-0.2 0-0.4-0.2-2.1-2.7-3.8-5.7c-0.1-0.2 0-0.4 0.2-0.6 0.2-0.1 0.5 0 0.6 0.2 1.1 1.9 2.4 3.8 3.7 5.6 0.2 0.2 0.1 0.5-0.1 0.6q-0.1 0.1-0.2 0.1zm13.5-3.5q-0.2 0-0.3-0.2c-0.1-0.2-0.1-0.5 0.1-0.6q2.8-2 5.5-4.1c0.2-0.1 0.4-0.1 0.6 0.1 0.1 0.2 0.1 0.5-0.1 0.6q-2.7 2.1-5.5 4.1-0.1 0.1-0.3 0.1zm230.5-2.9c-0.1 0-0.3 0-0.3-0.2-0.2-0.2-0.1-0.4 0.1-0.6q3-1.6 5.9-3.3c0.2-0.2 0.5-0.1 0.6 0.1 0.1 0.2 0.1 0.5-0.1 0.6q-3 1.7-5.9 3.4-0.2 0-0.3 0zm-250.8-5.3c-0.2 0-0.3-0.1-0.4-0.3-0.9-2.1-1.6-4.3-2.2-6.5-0.1-0.2 0.1-0.4 0.3-0.5 0.3-0.1 0.5 0.1 0.5 0.3q0.9 3.3 2.2 6.4c0.1 0.2 0 0.5-0.2 0.6q-0.1 0-0.2 0zm31.2 0q-0.2 0-0.3-0.2c-0.2-0.2-0.1-0.4 0.1-0.6q2.7-2.1 5.3-4.2c0.2-0.1 0.4-0.1 0.6 0.1 0.1 0.2 0.1 0.4-0.1 0.6q-2.6 2.1-5.3 4.2-0.1 0.1-0.3 0.1zm231.4-1.4c-0.1 0-0.3-0.1-0.3-0.2-0.2-0.2-0.1-0.5 0.1-0.6q3-1.7 5.9-3.4c0.2-0.1 0.4-0.1 0.6 0.2 0.1 0.2 0 0.4-0.2 0.5q-2.9 1.8-5.9 3.4-0.1 0.1-0.2 0.1zm11.8-6.8c-0.2 0-0.3-0.1-0.4-0.2-0.1-0.2-0.1-0.5 0.2-0.6l2.5-1.5q1.7-0.9 3.3-1.9c0.2-0.1 0.5 0 0.6 0.2 0.1 0.2 0 0.4-0.2 0.6q-1.6 0.9-3.3 1.9l-2.5 1.5q-0.1 0-0.2 0zm-232.6-0.4q-0.2 0-0.4-0.1c-0.1-0.2-0.1-0.5 0.1-0.6q2.7-2.3 5.1-4.5c0.2-0.2 0.5-0.1 0.6 0.1 0.2 0.1 0.2 0.4 0 0.6-1.6 1.4-3.4 2.9-5.1 4.4q-0.2 0.1-0.3 0.1zm-45.3-4.5c-0.2 0-0.4-0.2-0.4-0.4q-0.4-3.2-0.4-6.4 0-0.2 0-0.4c0-0.2 0.2-0.4 0.5-0.4 0.2 0 0.4 0.2 0.4 0.4q0 0.2 0 0.4c0 2.1 0.1 4.2 0.4 6.3 0 0.3-0.2 0.5-0.4 0.5q0 0-0.1 0zm289.6-1.9c-0.1 0-0.3-0.1-0.4-0.2-0.1-0.2 0-0.4 0.2-0.6q2.9-1.7 5.9-3.4c0.2-0.1 0.4 0 0.6 0.2 0.1 0.2 0 0.5-0.2 0.6q-2.9 1.7-5.9 3.4-0.1 0-0.2 0zm-234.2-2.6q-0.1 0-0.3-0.2c-0.1-0.1-0.1-0.4 0-0.6 1.6-1.4 3.2-2.9 4.9-4.7 0.2-0.1 0.5-0.1 0.6 0 0.2 0.2 0.2 0.5 0 0.6-1.7 1.8-3.3 3.3-4.9 4.8q-0.1 0.1-0.3 0.1zm246-4.1c-0.2 0-0.3-0.1-0.4-0.2-0.1-0.2 0-0.5 0.2-0.6q2.9-1.7 5.9-3.3c0.2-0.2 0.5-0.1 0.6 0.1 0.1 0.2 0 0.5-0.2 0.6q-3 1.7-5.9 3.3-0.1 0.1-0.2 0.1zm-301.3-4.9q0 0 0 0c-0.3-0.1-0.4-0.3-0.4-0.5q0.4-3.4 1.2-6.8c0.1-0.2 0.3-0.3 0.5-0.3 0.3 0.1 0.4 0.3 0.4 0.6q-0.8 3.3-1.3 6.6c0 0.2-0.2 0.4-0.4 0.4zm65-0.6q-0.2 0-0.3-0.1c-0.2-0.2-0.2-0.5 0-0.6q2.3-2.5 4.5-5c0.2-0.2 0.4-0.3 0.6-0.1 0.2 0.2 0.2 0.4 0.1 0.6-1.5 1.7-3.1 3.4-4.6 5.1q-0.2 0.1-0.3 0.1zm248.1-1.2q-0.2 0-0.3-0.2c-0.1-0.2-0.1-0.4 0.1-0.5q3-1.7 6-3.3c0.2-0.1 0.5 0 0.6 0.2 0.1 0.2 0 0.4-0.2 0.6q-3 1.6-6 3.2 0 0.1-0.2 0zm12-6.4q-0.2 0-0.4-0.2c-0.1-0.2 0-0.5 0.2-0.6q3-1.6 6-3.2c0.2-0.1 0.5 0 0.6 0.2 0.1 0.2 0 0.5-0.2 0.6q-3 1.6-6 3.2-0.1 0-0.2 0zm-251.2-2.7q-0.2 0-0.3-0.1c-0.2-0.1-0.2-0.4 0-0.6 1.4-1.8 2.8-3.6 4-5.4 0.2-0.2 0.4-0.2 0.6-0.1 0.2 0.2 0.3 0.4 0.1 0.6q-1.9 2.7-4.1 5.5-0.1 0.1-0.3 0.1zm-70.8-2.3q0 0-0.1 0c-0.2-0.1-0.4-0.4-0.3-0.6 0.7-2.1 1.6-4.2 2.5-6.4 0.1-0.2 0.4-0.2 0.6-0.2 0.2 0.1 0.3 0.4 0.2 0.6-0.9 2.1-1.8 4.2-2.5 6.3 0 0.2-0.2 0.3-0.4 0.3zm334.1-1.2q-0.3 0-0.4-0.3c-0.1-0.2 0-0.4 0.2-0.5q3-1.6 6.1-3c0.2-0.1 0.5-0.1 0.6 0.2 0.1 0.2 0 0.4-0.2 0.5q-3.1 1.5-6.1 3-0.1 0.1-0.2 0.1zm12.2-6c-0.1 0-0.3-0.1-0.4-0.2-0.1-0.2 0-0.5 0.2-0.6q3.1-1.4 6.2-2.8c0.2-0.2 0.5 0 0.6 0.2 0.1 0.2 0 0.4-0.2 0.5q-3.1 1.4-6.2 2.9-0.1 0-0.2 0zm-267.6-1.5q-0.2 0-0.3-0.1c-0.2-0.1-0.2-0.3-0.1-0.5 1.2-2 2.4-3.9 3.4-5.9 0.1-0.2 0.4-0.3 0.6-0.1 0.2 0.1 0.3 0.3 0.2 0.5q-1.6 3-3.5 5.9-0.1 0.2-0.3 0.2zm-73.2-3.8q-0.1 0-0.2 0c-0.2-0.1-0.3-0.4-0.2-0.6q1.6-2.9 3.4-5.9c0.1-0.2 0.4-0.3 0.6-0.1 0.2 0.1 0.3 0.3 0.2 0.5-1.3 2-2.4 4-3.4 5.9q-0.2 0.2-0.4 0.2zm353.2-0.2c-0.1 0-0.3-0.1-0.4-0.3-0.1-0.2 0-0.5 0.2-0.6q3.2-1.3 6.3-2.6c0.2-0.1 0.5 0 0.6 0.2 0.1 0.3 0 0.5-0.3 0.6q-3.1 1.3-6.2 2.6-0.1 0.1-0.2 0.1zm12.6-5.2c-0.2 0-0.3-0.1-0.4-0.3-0.1-0.2 0-0.4 0.2-0.5 2.1-0.8 4.3-1.6 6.4-2.4 0.2-0.2 0.5 0 0.5 0.2 0.1 0.3 0 0.5-0.2 0.6q-3.2 1.2-6.4 2.4 0 0-0.1 0zm178.5 0q-0.1 0-0.2 0-3.1-1.3-6.3-2.5c-0.2-0.1-0.3-0.4-0.2-0.6 0.1-0.2 0.3-0.4 0.5-0.2 2.1 0.8 4.3 1.6 6.4 2.5 0.2 0.1 0.3 0.3 0.2 0.5-0.1 0.2-0.2 0.3-0.4 0.3zm-464.8-2.8q-0.1 0-0.1 0c-0.3-0.1-0.4-0.3-0.3-0.6 1-2.1 1.7-4.2 2.4-6.3 0.1-0.2 0.3-0.3 0.5-0.2 0.2 0 0.4 0.3 0.3 0.5-0.7 2.1-1.5 4.2-2.4 6.4 0 0.1-0.2 0.2-0.4 0.2zm299-1.8c-0.1 0-0.3-0.1-0.4-0.3 0-0.2 0.1-0.5 0.3-0.6q3.2-1.1 6.5-2.1c0.2 0 0.4 0.1 0.5 0.3 0.1 0.2-0.1 0.4-0.3 0.5q-3.2 1.1-6.4 2.1-0.1 0.1-0.2 0.1zm153.1-0.3q-0.1 0.1-0.1 0c-2.4-0.8-4.5-1.5-6.5-2.1-0.2-0.1-0.3-0.4-0.2-0.6 0-0.2 0.3-0.3 0.5-0.3 2 0.7 4.1 1.4 6.4 2.2 0.3 0.1 0.4 0.3 0.3 0.6-0.1 0.1-0.2 0.2-0.4 0.2zm-524.4-1.2q-0.1 0-0.3-0.1c-0.2-0.1-0.2-0.4-0.1-0.6q2-2.8 4.2-5.4c0.1-0.2 0.4-0.2 0.6-0.1 0.2 0.2 0.2 0.5 0 0.6q-2.1 2.7-4.1 5.4-0.1 0.2-0.3 0.2zm384.3-2.6c-0.2 0-0.4-0.1-0.4-0.3-0.1-0.2 0-0.5 0.3-0.5q3.2-1 6.5-1.8c0.3-0.1 0.5 0 0.5 0.3 0.1 0.2-0.1 0.4-0.3 0.5q-3.3 0.8-6.5 1.8-0.1 0-0.1 0zm127.2-0.3q-0.1 0-0.2-0.1c-2.3-0.6-4.5-1.2-6.5-1.8-0.2 0-0.3-0.3-0.3-0.5 0.1-0.2 0.3-0.3 0.5-0.3 2 0.5 4.2 1.1 6.6 1.8 0.2 0.1 0.3 0.3 0.3 0.6-0.1 0.1-0.2 0.3-0.4 0.3zm-114.1-3.1c-0.2 0-0.4-0.2-0.4-0.4-0.1-0.2 0.1-0.4 0.3-0.5 2.5-0.5 4.6-1 6.7-1.4 0.2 0 0.4 0.1 0.4 0.3 0.1 0.3-0.1 0.5-0.3 0.5-2 0.4-4.2 0.9-6.6 1.5q0 0-0.1 0zm100.9-0.4q0 0-0.1 0c-2.2-0.5-4.4-1-6.6-1.4-0.2-0.1-0.4-0.3-0.3-0.5q0-0.4 0.5-0.4 3.3 0.7 6.6 1.5c0.3 0 0.4 0.2 0.4 0.5-0.1 0.2-0.3 0.3-0.5 0.3zm-87.6-2.4c-0.2 0-0.4-0.1-0.4-0.3-0.1-0.2 0.1-0.5 0.3-0.5q3.4-0.6 6.7-1.1c0.2 0 0.5 0.1 0.5 0.4 0.1 0.2-0.1 0.4-0.3 0.5-2.2 0.3-4.5 0.7-6.7 1q-0.1 0-0.1 0zm74.3-0.3q0 0-0.1 0-3.3-0.5-6.7-1c-0.2 0-0.4-0.3-0.3-0.5 0-0.2 0.2-0.4 0.5-0.4 2.2 0.4 4.4 0.7 6.7 1.1 0.2 0 0.4 0.2 0.3 0.5 0 0.2-0.2 0.3-0.4 0.3zm-408.6-0.5q-0.1 0-0.1 0c-0.3 0-0.4-0.2-0.4-0.5q0.5-2.3 0.7-4.6 0.1-1 0.2-2.1c0-0.2 0.2-0.4 0.4-0.4 0.3 0.1 0.4 0.3 0.4 0.5q-0.1 1-0.2 2.1-0.2 2.3-0.6 4.7c-0.1 0.2-0.2 0.3-0.4 0.3zm-67.9-0.9q-0.1 0-0.2-0.1c-0.2-0.2-0.2-0.5-0.1-0.7 1.5-1.6 3-3.2 4.8-4.9 0.1-0.1 0.4-0.1 0.6 0 0.1 0.2 0.1 0.5 0 0.6-1.7 1.7-3.3 3.3-4.7 4.9q-0.2 0.2-0.4 0.2zm415.6-0.2c-0.2 0-0.4-0.2-0.4-0.4 0-0.2 0.1-0.4 0.4-0.4 2.4-0.3 4.6-0.5 6.8-0.7q0 0 0 0c0.2 0 0.4 0.1 0.4 0.4 0 0.2-0.1 0.4-0.4 0.4-2.1 0.2-4.3 0.4-6.7 0.7q0 0-0.1 0zm47.5-0.2q-0.1 0-0.1 0c-2.1-0.3-4.3-0.4-6.7-0.6-0.3 0-0.4-0.3-0.4-0.5 0-0.2 0.2-0.4 0.4-0.4q0 0 0 0c2.4 0.2 4.7 0.4 6.8 0.6 0.2 0.1 0.4 0.3 0.4 0.5 0 0.2-0.2 0.4-0.4 0.4zm-33.9-0.9c-0.3 0-0.5-0.2-0.5-0.4 0-0.3 0.2-0.5 0.4-0.5 2.2-0.1 4.4-0.2 6.8-0.2 0.3 0 0.5 0.1 0.5 0.4 0 0.2-0.2 0.4-0.4 0.4-2.5 0.1-4.7 0.2-6.8 0.3q0 0 0 0zm20.3-0.1q0 0 0 0c-2.4-0.1-4.7-0.2-6.8-0.2-0.2 0-0.4-0.2-0.4-0.4 0-0.3 0.2-0.5 0.4-0.5 2.2 0.1 4.4 0.1 6.8 0.2 0.3 0 0.5 0.2 0.4 0.5 0 0.2-0.2 0.4-0.4 0.4zm-439.8-8.2q-0.1 0-0.3-0.1c-0.1-0.2-0.1-0.5 0.1-0.6 1.6-1.5 3.4-2.9 5.2-4.4 0.2-0.1 0.5-0.1 0.6 0.1 0.2 0.2 0.1 0.4-0.1 0.6-1.8 1.4-3.5 2.9-5.2 4.3q-0.1 0.1-0.3 0.1zm58.9-3c-0.2 0-0.4-0.1-0.4-0.4-0.2-2.4-0.7-4.6-1.3-6.5-0.1-0.2 0-0.5 0.2-0.5 0.3-0.2 0.5 0 0.6 0.2 0.7 2 1.1 4.2 1.4 6.8 0 0.2-0.2 0.4-0.4 0.4q0 0-0.1 0zm-48.1-5.3q-0.3-0.1-0.4-0.2c-0.1-0.2-0.1-0.5 0.1-0.6 1.9-1.3 3.9-2.6 5.8-3.7 0.2-0.1 0.4-0.1 0.5 0.2 0.2 0.2 0.1 0.4-0.1 0.6-1.9 1.1-3.8 2.3-5.7 3.6q-0.1 0-0.2 0.1zm11.7-6.9c-0.2 0-0.3-0.1-0.4-0.2-0.1-0.3 0-0.5 0.2-0.6q3.3-1.6 6.3-2.7c0.3-0.1 0.5 0.1 0.5 0.3 0.1 0.2 0 0.4-0.2 0.5q-3 1.1-6.2 2.6-0.1 0.1-0.2 0.1zm31.7-0.3q-0.2 0-0.3-0.1-2.2-2.4-5.4-3.7c-0.2 0-0.3-0.3-0.2-0.5 0-0.2 0.3-0.4 0.5-0.2 2.3 0.8 4.2 2.1 5.7 3.8 0.2 0.2 0.2 0.5 0 0.6q-0.1 0.1-0.3 0.1zm-18.9-4.2c-0.2 0-0.4-0.1-0.4-0.3-0.1-0.3 0.1-0.5 0.3-0.5q3.4-0.7 6.5-0.8h0.3c0.2 0 0.4 0.2 0.4 0.5 0 0.2-0.2 0.4-0.4 0.4h-0.3c-2 0-4.1 0.2-6.3 0.7q-0.1 0-0.1 0z"/>
			</g>
		</g>
	</g>
</svg>